<?xml version="1.0" encoding="utf-8"?>
<!-- Generator: Adobe Illustrator 27.4.0, SVG Export Plug-In . SVG Version: 6.00 Build 0)  -->
<svg version="1.1" id="레이어_1" xmlns="http://www.w3.org/2000/svg" xmlns:xlink="http://www.w3.org/1999/xlink" x="0px"
	 y="0px" viewBox="0 0 24 24" style="enable-background:new 0 0 24 24;" xml:space="preserve">
<path d="M13,1L13,1l-0.1-0.1l-1.8,0l0,0.1v16c-0.7-1-1.5-1.8-2.5-2.5h1.5v-1.9H4.3H3v0c-0.1,0-0.3,0-0.4,0v1.9
	c4.7,0,8.5,3.8,8.5,8.5l0,0.1h0v0h0.1H13v-13L13,1z"/>
<path d="M11,1L11,1l0.1-0.1l1.8,0l0,0.1v16c0.7-1,1.5-1.8,2.5-2.5h-1.5v-1.9h5.8H21v0c0.1,0,0.3,0,0.4,0v1.9c-4.7,0-8.5,3.8-8.5,8.5
	l0,0.1h0v0h-0.1H11v-13L11,1z"/>
</svg>
