<?xml version="1.0" encoding="utf-8"?>
<!-- Generator: Adobe Illustrator 27.4.0, SVG Export Plug-In . SVG Version: 6.00 Build 0)  -->
<svg version="1.1" id="레이어_1" xmlns="http://www.w3.org/2000/svg" xmlns:xlink="http://www.w3.org/1999/xlink" x="0px"
	 y="0px" viewBox="0 0 24 24" style="enable-background:new 0 0 24 24;" xml:space="preserve">
<path d="M21,12.6h-1.3h-5.8v1.9h1.5c-1,0.7-1.7,1.4-2.4,2.4v-6.8V1l-0.1-0.1h-1.8L11,1v9.1v6.8c-0.7-0.9-1.4-1.7-2.4-2.4h1.5v-1.9
	H4.3H3c-0.1,0-0.3,0-0.4,0v1.9c4.3,0,7.8,3.2,8.4,7.3v1.3h0.1h0.1h1.6h0.1H13v-1.3c0.6-4.1,4.1-7.3,8.4-7.3v-1.9
	C21.3,12.6,21.1,12.6,21,12.6z"/>
</svg>
