<?xml version="1.0" encoding="utf-8"?>
<!-- Generator: Adobe Illustrator 27.4.0, SVG Export Plug-In . SVG Version: 6.00 Build 0)  -->
<svg version="1.1" id="레이어_1" xmlns="http://www.w3.org/2000/svg" xmlns:xlink="http://www.w3.org/1999/xlink" x="0px"
	 y="0px" viewBox="0 0 24 24" style="enable-background:new 0 0 24 24;" xml:space="preserve">
<path d="M1,11L1,11l-0.1,0.1l0,1.8l0.1,0h16c-1,0.7-1.8,1.5-2.5,2.5v-1.5h-1.9v5.8V21h0c0,0.1,0,0.3,0,0.4h1.9
	c0-4.7,3.8-8.5,8.5-8.5l0.1,0v0h0v-0.1V11h-13L1,11z"/>
<path d="M1,13L1,13l-0.1-0.1l0-1.8l0.1,0h16c-1-0.7-1.8-1.5-2.5-2.5v1.5h-1.9V4.3V3h0c0-0.1,0-0.3,0-0.4h1.9c0,4.7,3.8,8.5,8.5,8.5
	l0.1,0v0h0v0.1V13h-13L1,13z"/>
</svg>
