<?xml version="1.0" encoding="utf-8"?>
<!-- Generator: Adobe Illustrator 27.4.0, SVG Export Plug-In . SVG Version: 6.00 Build 0)  -->
<svg version="1.1" id="레이어_1" xmlns="http://www.w3.org/2000/svg" xmlns:xlink="http://www.w3.org/1999/xlink" x="0px"
	 y="0px" viewBox="0 0 24 24" style="enable-background:new 0 0 24 24;" xml:space="preserve">
<path d="M13,2.2V0.9h-0.1h-0.1h-1.6h-0.1H11v1.3c-0.6,4.1-4.1,7.3-8.4,7.3v1.9c0.1,0,0.3,0,0.4,0h1.3h5.8V9.5H8.6
	c1-0.7,1.7-1.4,2.4-2.4v6.8V23l0.1,0.1h1.8L13,23v-9.1V7.1c0.7,0.9,1.4,1.7,2.4,2.4h-1.5v1.9h5.8H21c0.1,0,0.3,0,0.4,0V9.5
	C17.1,9.5,13.6,6.3,13,2.2z"/>
</svg>
