<?xml version="1.0" encoding="utf-8"?>
<!-- Generator: Adobe Illustrator 27.4.0, SVG Export Plug-In . SVG Version: 6.00 Build 0)  -->
<svg version="1.1" id="레이어_1" xmlns="http://www.w3.org/2000/svg" xmlns:xlink="http://www.w3.org/1999/xlink" x="0px"
	 y="0px" viewBox="0 0 24 24" style="enable-background:new 0 0 24 24;" xml:space="preserve">
<path d="M21.8,11c-4.1-0.6-7.3-4.1-7.3-8.4h-1.9c0,0.1,0,0.3,0,0.4v1.3v5.8h1.9V8.6c0.7,1,1.4,1.7,2.4,2.4h-6.8H1l-0.1,0.1v1.8L1,13
	h9.1h6.8c-0.9,0.7-1.7,1.4-2.4,2.4v-1.5h-1.9v5.8V21c0,0.1,0,0.3,0,0.4h1.9c0-4.3,3.2-7.8,7.3-8.4h1.3v-0.1v-0.1v-1.6v-0.1V11H21.8z
	"/>
</svg>
