<?xml version="1.0" encoding="utf-8"?>
<!-- Generator: Adobe Illustrator 27.4.0, SVG Export Plug-In . SVG Version: 6.00 Build 0)  -->
<svg version="1.1" id="레이어_1" xmlns="http://www.w3.org/2000/svg" xmlns:xlink="http://www.w3.org/1999/xlink" x="0px"
	 y="0px" viewBox="0 0 24 24" style="enable-background:new 0 0 24 24;" xml:space="preserve">
<path d="M23,13L23,13l0.1-0.1l0-1.8l-0.1,0H7c1-0.7,1.8-1.5,2.5-2.5v1.5h1.9V4.3V3h0c0-0.1,0-0.3,0-0.4H9.5c0,4.7-3.8,8.5-8.5,8.5
	l-0.1,0v0h0v0.1V13h13L23,13z"/>
<path d="M23,11L23,11l0.1,0.1l0,1.8l-0.1,0H7c1,0.7,1.8,1.5,2.5,2.5v-1.5h1.9v5.8V21h0c0,0.1,0,0.3,0,0.4H9.5c0-4.7-3.8-8.5-8.5-8.5
	l-0.1,0v0h0v-0.1V11h13L23,11z"/>
</svg>
