<?xml version="1.0" encoding="utf-8"?>
<!-- Generator: Adobe Illustrator 27.4.0, SVG Export Plug-In . SVG Version: 6.00 Build 0)  -->
<svg version="1.1" id="레이어_1" xmlns="http://www.w3.org/2000/svg" xmlns:xlink="http://www.w3.org/1999/xlink" x="0px"
	 y="0px" viewBox="0 0 24 24" style="enable-background:new 0 0 24 24;" xml:space="preserve">
<path d="M23,11h-9.1H7.1c0.9-0.7,1.7-1.4,2.4-2.4v1.5h1.9V4.3V3c0-0.1,0-0.3,0-0.4H9.5c0,4.3-3.2,7.8-7.3,8.4H0.9v0.1v0.1v1.6v0.1
	V13h1.3c4.1,0.6,7.3,4.1,7.3,8.4h1.9c0-0.1,0-0.3,0-0.4v-1.3v-5.8H9.5v1.5c-0.7-1-1.4-1.7-2.4-2.4h6.8H23l0.1-0.1L23,11L23,11z"/>
</svg>
