<?xml version="1.0" encoding="UTF-8"?>
<svg id="_레이어_1" data-name="레이어 1" xmlns="http://www.w3.org/2000/svg" viewBox="0 0 100.14 14.07">
  <defs>
    <style>
      .cls-1 {
        fill: #231815;
      }
    </style>
  </defs>
  <path class="cls-1" d="m6.79,6.55h6.23s.02.09.02.18v.27c.05,4.06-2.32,7.07-6.45,7.07-3.74,0-6.59-2.83-6.59-7.03S2.85,0,6.59,0c2.37,0,4.36,1.14,5.52,3.01l-1.09.69c-.93-1.64-2.58-2.56-4.43-2.56C3.65,1.14,1.34,3.47,1.34,7.03s2.31,5.9,5.25,5.9c3.21,0,5.06-2.21,5.15-5.25h-4.95v-1.12Z"/>
  <path class="cls-1" d="m20.58,0c3.74,0,6.59,2.83,6.59,7.03s-2.85,7.03-6.59,7.03-6.59-2.83-6.59-7.03S16.84,0,20.58,0Zm0,1.14c-2.94,0-5.27,2.33-5.27,5.89s2.33,5.9,5.27,5.9,5.27-2.33,5.27-5.9-2.33-5.89-5.27-5.89Z"/>
  <path class="cls-1" d="m31.35,3.29l-.59-1.07.04,1.23v10.26h-1.32V.36h1.35l6.91,10.17.78,1.3-.04-1.6V.36h1.32v13.36h-1.35l-7.1-10.42Z"/>
  <path class="cls-1" d="m48.9,6.55h6.23s.02.09.02.18v.27c.05,4.06-2.32,7.07-6.45,7.07-3.74,0-6.59-2.83-6.59-7.03s2.85-7.03,6.59-7.03c2.37,0,4.36,1.14,5.52,3.01l-1.09.69c-.93-1.64-2.58-2.56-4.43-2.56-2.94,0-5.25,2.33-5.25,5.89s2.31,5.9,5.25,5.9c3.21,0,5.06-2.21,5.15-5.25h-4.95v-1.12Z"/>
  <path class="cls-1" d="m63.71,2.46c-.77-.8-1.85-1.32-3.13-1.32-1.78,0-2.78,1.05-2.78,2.23,0,1.05.59,1.73,2.08,2.37l1.91.8c1.18.52,3.37,1.25,3.37,3.74,0,2.07-1.83,3.79-4.56,3.79-2.4,0-4.15-1.57-4.81-2.74l.89-.85c.62,1.21,2.12,2.46,3.92,2.46,1.94,0,3.24-1.16,3.24-2.65,0-.78-.34-1.69-2.39-2.55l-1.94-.78c-2.23-.94-3.03-2.08-3.03-3.58,0-1.91,1.58-3.37,4.1-3.37,1.78,0,3.06.68,3.97,1.67l-.84.78Z"/>
  <path class="cls-1" d="m70.62,1.5h-4.68V.36h10.68v1.14h-4.68v12.22h-1.32V1.5Z"/>
  <path class="cls-1" d="m85.33,10.11h-6.64l-1.5,3.6h-1.33L81.57.36h.89l5.72,13.36h-1.34l-1.51-3.6Zm-6.16-1.14h5.68l-2.83-6.78-2.85,6.78Z"/>
  <path class="cls-1" d="m91.22,8.73v4.99h-1.32V.36h4.72c2.94,0,4.72,1.82,4.72,4.18,0,1.23-.45,2.3-1.28,3.03-.34.32-.77.57-1.25.77l3.33,5.38h-1.58l-2.99-5.04c-.3.04-.62.05-.96.05h-3.38Zm3.4-1.14c2.08,0,3.4-1.28,3.4-3.04s-1.32-3.04-3.4-3.04h-3.4v6.09h3.4Z"/>
</svg>