<?xml version="1.0" encoding="utf-8"?>
<!-- Generator: Adobe Illustrator 27.4.0, SVG Export Plug-In . SVG Version: 6.00 Build 0)  -->
<svg version="1.1" id="_레이어_1" xmlns="http://www.w3.org/2000/svg" xmlns:xlink="http://www.w3.org/1999/xlink" x="0px"
	 y="0px" viewBox="0 0 136.3 30.8" style="enable-background:new 0 0 136.3 30.8;" xml:space="preserve">
<style type="text/css">
	.st0{fill:#232323;}
</style>
<path class="st0" d="M31,13.9H9.9c1.6-1.1,3-2.5,4.1-4.1v2.5h3.1V0.7l0,0c0-0.2,0-0.5,0-0.7H14c0,7.7-6.2,13.9-13.9,13.9H0l0,0h0V17
	h21.2c-1.6,1.1-3,2.5-4.1,4.1v-2.5H14v11.6l0,0c0,0.2,0,0.4,0,0.7c0,0,0,0.1,0,0.1h3.1C17.1,23.2,23.3,17,31,17h0.1v-0.2v-2.9H31z"
	/>
<g>
	<path class="st0" d="M42.9,14.4h6.2c0,0,0,0.1,0,0.2v0.3c0,4.1-2.3,7.1-6.5,7.1c-3.7,0-6.6-2.8-6.6-7s2.8-7,6.6-7
		c2.4,0,4.4,1.1,5.5,3l-1.1,0.7C46.2,9.9,44.6,9,42.7,9c-2.9,0-5.2,2.3-5.2,5.9s2.3,5.9,5.2,5.9c3.2,0,5.1-2.2,5.2-5.2h-5V14.4
		L42.9,14.4z"/>
	<path class="st0" d="M56.7,7.9c3.7,0,6.6,2.8,6.6,7s-2.8,7-6.6,7s-6.6-2.8-6.6-7S53,7.9,56.7,7.9z M56.7,9c-2.9,0-5.3,2.3-5.3,5.9
		s2.3,5.9,5.3,5.9s5.3-2.3,5.3-5.9S59.7,9,56.7,9z"/>
	<path class="st0" d="M67.5,11.2l-0.6-1.1l0,1.2v10.3h-1.3V8.2H67l6.9,10.2l0.8,1.3l0-1.6V8.2h1.3v13.4h-1.3
		C74.6,21.6,67.5,11.2,67.5,11.2z"/>
	<path class="st0" d="M85,14.4h6.2c0,0,0,0.1,0,0.2v0.3c0.1,4.1-2.3,7.1-6.4,7.1c-3.7,0-6.6-2.8-6.6-7s2.8-7,6.6-7
		c2.4,0,4.4,1.1,5.5,3l-1.1,0.7C88.3,9.9,86.7,9,84.8,9c-2.9,0-5.2,2.3-5.2,5.9s2.3,5.9,5.2,5.9c3.2,0,5.1-2.2,5.2-5.2H85L85,14.4
		L85,14.4z"/>
	<path class="st0" d="M99.8,10.3C99.1,9.5,98,9,96.7,9c-1.8,0-2.8,1.1-2.8,2.2c0,1.1,0.6,1.7,2.1,2.4l1.9,0.8
		c1.2,0.5,3.4,1.2,3.4,3.7c0,2.1-1.8,3.8-4.6,3.8c-2.4,0-4.2-1.6-4.8-2.7l0.9-0.9c0.6,1.2,2.1,2.5,3.9,2.5c1.9,0,3.2-1.2,3.2-2.6
		c0-0.8-0.3-1.7-2.4-2.6l-1.9-0.8c-2.2-0.9-3-2.1-3-3.6c0-1.9,1.6-3.4,4.1-3.4c1.8,0,3.1,0.7,4,1.7L99.8,10.3L99.8,10.3z"/>
	<path class="st0" d="M106.8,9.4h-4.7V8.2h10.7v1.1h-4.7v12.2h-1.3V9.4z"/>
	<path class="st0" d="M121.5,18h-6.6l-1.5,3.6H112l5.7-13.4h0.9l5.7,13.4H123L121.5,18L121.5,18z M115.3,16.9h5.7l-2.8-6.8
		L115.3,16.9z"/>
	<path class="st0" d="M127.3,16.6v5H126V8.2h4.7c2.9,0,4.7,1.8,4.7,4.2c0,1.2-0.4,2.3-1.3,3c-0.3,0.3-0.8,0.6-1.2,0.8l3.3,5.4h-1.6
		l-3-5c-0.3,0-0.6,0-1,0L127.3,16.6L127.3,16.6z M130.8,15.5c2.1,0,3.4-1.3,3.4-3s-1.3-3-3.4-3h-3.4v6.1L130.8,15.5L130.8,15.5z"/>
</g>
</svg>
