<?xml version="1.0" encoding="UTF-8"?>
<svg id="_레이어_1" data-name="레이어 1" xmlns="http://www.w3.org/2000/svg" viewBox="0 0 136.27 30.84">
  <defs>
    <style>
      .cls-1 {
        fill: #231815;
      }
    </style>
  </defs>
  <path class="cls-1" d="m30.97,13.87H9.9c1.58-1.12,2.96-2.49,4.08-4.06v2.51h3.11V.71h0c0-.24.02-.47.02-.71h-3.11C14,7.65,7.78,13.87.11,13.87H.02s0,0,0,0h-.02v3.11h21.2c-1.58,1.12-2.95,2.49-4.07,4.07v-2.55h-3.11v11.6h0c0,.22-.02.44-.02.66,0,.03,0,.06,0,.09h3.1c0-7.65,6.22-13.87,13.88-13.87h.11s0-.24,0-.24v-2.87s-.12,0-.12,0Z"/>
  <g>
    <path class="cls-1" d="m42.92,14.43h6.23s.02.09.02.18v.27c.05,4.06-2.32,7.07-6.45,7.07-3.74,0-6.59-2.83-6.59-7.03s2.85-7.03,6.59-7.03c2.37,0,4.36,1.14,5.52,3.01l-1.09.69c-.93-1.64-2.58-2.56-4.43-2.56-2.94,0-5.25,2.33-5.25,5.89s2.31,5.9,5.25,5.9c3.21,0,5.06-2.21,5.15-5.25h-4.95v-1.12Z"/>
    <path class="cls-1" d="m56.71,7.87c3.74,0,6.59,2.83,6.59,7.03s-2.85,7.03-6.59,7.03-6.59-2.83-6.59-7.03,2.85-7.03,6.59-7.03Zm0,1.14c-2.94,0-5.27,2.33-5.27,5.89s2.33,5.9,5.27,5.9,5.27-2.33,5.27-5.9-2.33-5.89-5.27-5.89Z"/>
    <path class="cls-1" d="m67.48,11.17l-.59-1.07.04,1.23v10.26h-1.32v-13.36h1.35l6.91,10.17.78,1.3-.04-1.6v-9.87h1.32v13.36h-1.35l-7.1-10.42Z"/>
    <path class="cls-1" d="m85.03,14.43h6.23s.02.09.02.18v.27c.05,4.06-2.32,7.07-6.45,7.07-3.74,0-6.59-2.83-6.59-7.03s2.85-7.03,6.59-7.03c2.37,0,4.36,1.14,5.52,3.01l-1.09.69c-.93-1.64-2.58-2.56-4.43-2.56-2.94,0-5.25,2.33-5.25,5.89s2.31,5.9,5.25,5.9c3.21,0,5.06-2.21,5.15-5.25h-4.95v-1.12Z"/>
    <path class="cls-1" d="m99.85,10.33c-.77-.8-1.85-1.32-3.13-1.32-1.78,0-2.78,1.05-2.78,2.23,0,1.05.59,1.73,2.08,2.37l1.91.8c1.18.52,3.37,1.25,3.37,3.74,0,2.07-1.83,3.79-4.56,3.79-2.4,0-4.15-1.57-4.81-2.74l.89-.85c.62,1.21,2.12,2.46,3.92,2.46,1.94,0,3.24-1.16,3.24-2.65,0-.78-.34-1.69-2.39-2.55l-1.94-.78c-2.23-.94-3.03-2.08-3.03-3.58,0-1.91,1.58-3.37,4.1-3.37,1.78,0,3.06.68,3.97,1.67l-.84.78Z"/>
    <path class="cls-1" d="m106.75,9.37h-4.68v-1.14h10.68v1.14h-4.68v12.22h-1.32v-12.22Z"/>
    <path class="cls-1" d="m121.46,17.99h-6.64l-1.5,3.6h-1.33l5.72-13.36h.89l5.72,13.36h-1.34l-1.51-3.6Zm-6.16-1.14h5.68l-2.83-6.78-2.85,6.78Z"/>
    <path class="cls-1" d="m127.35,16.6v4.99h-1.32v-13.36h4.72c2.94,0,4.72,1.82,4.72,4.18,0,1.23-.45,2.3-1.28,3.03-.34.32-.77.57-1.25.77l3.33,5.38h-1.58l-2.99-5.04c-.3.04-.62.05-.96.05h-3.38Zm3.4-1.14c2.08,0,3.4-1.28,3.4-3.04s-1.32-3.04-3.4-3.04h-3.4v6.09h3.4Z"/>
  </g>
</svg>