<?xml version="1.0" encoding="utf-8"?>
<!-- Generator: Adobe Illustrator 27.4.0, SVG Export Plug-In . SVG Version: 6.00 Build 0)  -->
<svg version="1.1" id="_레이어_1" xmlns="http://www.w3.org/2000/svg" xmlns:xlink="http://www.w3.org/1999/xlink" x="0px"
	 y="0px" viewBox="0 0 43.6 43.3" style="enable-background:new 0 0 43.6 43.3;" xml:space="preserve">
<style type="text/css">
	.st0{fill:#FFE618;}
</style>
<path class="st0" d="M43.5,19.5H13.9c2.2-1.6,4.2-3.5,5.7-5.7v3.5H24V1l0,0c0-0.3,0-0.7,0-1h-4.4c0,10.7-8.7,19.5-19.5,19.5H0l0,0h0
	v4.4h29.7c-2.2,1.6-4.1,3.5-5.7,5.7v-3.6h-4.4v16.3l0,0c0,0.3,0,0.6,0,0.9c0,0,0,0.1,0,0.1H24c0-10.7,8.7-19.5,19.5-19.5h0.2v-0.3
	v-4L43.5,19.5L43.5,19.5z"/>
</svg>
