<?xml version="1.0" standalone="no"?>
<!DOCTYPE svg PUBLIC "-//W3C//DTD SVG 20010904//EN"
 "http://www.w3.org/TR/2001/REC-SVG-20010904/DTD/svg10.dtd">
<svg version="1.0" xmlns="http://www.w3.org/2000/svg"
 width="704.000000pt" height="704.000000pt" viewBox="0 0 704.000000 704.000000"
 preserveAspectRatio="xMidYMid meet">
<metadata>
Created by potrace 1.14, written by Peter Selinger 2001-2017
</metadata>
<g transform="translate(0.000000,704.000000) scale(0.100000,-0.100000)"
fill="#000000" stroke="none">
<path d="M3169 6963 c-1 -106 -17 -305 -33 -413 -12 -75 -16 -97 -32 -173 -8
-39 -17 -80 -19 -90 -2 -10 -14 -52 -25 -95 -12 -42 -23 -84 -25 -92 -5 -23
-63 -185 -96 -268 -63 -157 -241 -495 -285 -540 -7 -6 -16 -21 -19 -32 -3 -11
-11 -20 -16 -20 -5 0 -9 -5 -9 -11 0 -6 -6 -16 -12 -23 -7 -8 -20 -24 -28 -36
-102 -153 -392 -459 -567 -597 -119 -95 -286 -213 -301 -213 -6 0 -12 -3 -14
-8 -12 -28 -474 -261 -546 -276 -10 -1 -30 -9 -47 -16 -16 -7 -34 -14 -40 -16
-5 -1 -32 -10 -60 -19 -27 -10 -54 -18 -60 -19 -5 -1 -35 -10 -65 -19 -70 -20
-262 -64 -315 -71 -22 -3 -60 -8 -85 -11 -25 -3 -52 -7 -60 -10 -29 -8 -235
-21 -382 -24 l-28 -1 0 -350 0 -350 38 0 c20 -1 1098 -1 2395 -1 1416 -1 2357
-4 2357 -10 0 -5 -6 -9 -13 -9 -7 0 -27 -12 -44 -27 -18 -16 -64 -53 -104 -83
-82 -63 -87 -67 -189 -159 -96 -88 -224 -215 -275 -276 -22 -26 -51 -59 -65
-74 -44 -48 -73 -84 -145 -179 -38 -50 -72 -92 -75 -92 -3 0 -4 120 -4 267 1
148 0 275 -2 283 -3 13 -50 15 -351 15 l-348 0 -1 -1398 -1 -1397 348 0 349 0
1 58 c2 138 16 295 35 412 3 19 8 46 10 60 2 14 7 41 10 60 15 94 95 386 124
455 5 11 16 43 26 70 10 28 24 61 31 75 7 14 13 30 13 36 0 13 141 297 150
304 4 3 10 15 14 27 4 13 13 29 19 35 17 18 77 118 77 128 0 5 4 10 8 12 4 2
34 41 67 88 32 47 61 87 65 90 5 5 71 87 100 125 26 34 313 319 360 358 61 50
57 47 125 97 33 25 65 50 72 56 6 6 35 26 65 45 29 18 55 36 58 39 17 20 389
224 433 237 4 2 24 10 45 19 99 42 290 111 327 118 6 1 37 10 70 20 33 10 71
20 85 22 14 3 32 7 40 10 8 3 26 8 40 10 14 3 44 9 67 15 24 5 46 9 50 8 5 -1
11 0 16 1 13 5 22 6 82 14 32 4 67 10 77 11 37 8 166 17 263 20 55 2 109 4
120 4 20 1 20 7 20 351 l0 350 -60 0 c-33 1 -1111 1 -2395 1 l-2335 0 30 22
c74 54 286 228 349 287 114 107 316 315 316 325 0 2 14 19 31 37 17 18 65 78
106 133 42 55 78 101 82 103 3 1 6 -123 6 -275 l0 -278 352 -1 352 0 0 1371
c0 754 1 1375 2 1381 6 34 4 34 -351 34 l-350 0 -1 -47z"/>
</g>
</svg>
