<svg xmlns="http://www.w3.org/2000/svg" width="1137.2354" height="376.74551" overflow="hidden"><defs><clipPath id="a" clipPathUnits="userSpaceOnUse"><path d="M0 0h841.89v1190.551H0Z"/></clipPath><clipPath id="b" clipPathUnits="userSpaceOnUse"><path d="M0 0h841.89v1190.551H0Z"/></clipPath><clipPath id="c" clipPathUnits="userSpaceOnUse"><path d="M0 0h841.89v1190.551H0Z"/></clipPath><clipPath id="d" clipPathUnits="userSpaceOnUse"><path d="M0 0h841.89v1190.551H0Z"/></clipPath></defs><g style="fill:#948a74;fill-opacity:1"><g clip-path="url(#a)" style="fill:#948a74;fill-opacity:1" transform="matrix(11.07573 0 0 -11.07573 -1577.21 816.29)"><g style="fill:#948a74;fill-opacity:1"><path d="M0 0v4.452h1.095c.581 0 1-.09 1.26-.27.26-.18.391-.466.391-.862 0-.298-.063-.527-.19-.689-.126-.161-.33-.277-.607-.343.311-.056.536-.163.677-.323.141-.158.211-.387.211-.689 0-.436-.135-.759-.407-.967C2.159.103 1.735 0 1.161 0Zm.793 2.538h.294c.303 0 .523.056.665.168.142.112.213.287.213.524 0 .251-.066.428-.198.531-.132.104-.358.157-.68.157H.793Zm0-1.966h.27c.37 0 .623.053.761.158.137.105.206.291.206.557 0 .269-.075.461-.222.578-.149.119-.394.179-.737.179H.793Z" style="fill:#948a74;fill-opacity:1;fill-rule:nonzero;stroke:none" transform="translate(182.718 42.085)"/></g><g style="fill:#948a74;fill-opacity:1"><path d="M0 0v2.111h.728V-.032c0-.139.041-.244.124-.314.082-.071.205-.107.367-.107.159 0 .279.036.362.107.082.07.123.175.123.314v2.143h.743V0c0-.329-.098-.568-.292-.715-.194-.147-.507-.219-.936-.219-.43 0-.741.072-.932.219C.095-.568 0-.329 0 0" style="fill:#948a74;fill-opacity:1;fill-rule:nonzero;stroke:none" transform="translate(186.298 42.967)"/></g></g><g style="fill:#948a74;fill-opacity:1"><path d="M0 0h.763l.468-1.962L1.862 0h.728L.978-4.204H.222l.614 1.469z" style="fill:#948a74;fill-opacity:1;fill-rule:nonzero;stroke:none" transform="matrix(11.07573 0 0 -11.07573 519.255 317.02)"/></g><g clip-path="url(#b)" style="fill:#948a74;fill-opacity:1" transform="matrix(11.07573 0 0 -11.07573 -1577.21 816.29)"><g style="fill:#948a74;fill-opacity:1"><path d="M0 0v-.04c0-.315-.106-.563-.318-.744-.212-.181-.502-.271-.868-.271-.449 0-.778.125-.986.374-.209.248-.312.646-.312 1.191 0 .514.103.898.312 1.153.208.253.523.381.945.381.447 0 .771-.116.97-.347.198-.231.298-.609.298-1.133V.39h-1.835V.302c0-.31.048-.537.143-.677.096-.14.25-.211.458-.211.167 0 .294.049.381.146.087.097.134.243.142.436zm-1.794.821h1.132v.076c0 .247-.043.427-.132.538-.088.11-.229.166-.424.166a.502.502 0 0 1-.43-.199c-.098-.131-.146-.326-.146-.581" style="fill:#948a74;fill-opacity:1;fill-rule:nonzero;stroke:none" transform="translate(194.647 43.087)"/></g><g style="fill:#948a74;fill-opacity:1"><path d="M0 0c0 .503.114.887.343 1.15.229.263.561.395.998.395.436 0 .767-.132.997-.395.228-.263.343-.647.343-1.15 0-.507-.115-.893-.343-1.157-.23-.264-.561-.396-.997-.396-.437 0-.769.132-.998.396C.114-.893 0-.507 0 0m.742.01c0-.365.047-.632.144-.802a.487.487 0 0 1 .455-.253c.209 0 .363.084.462.254.099.172.15.438.15.801 0 .361-.051.626-.15.798a.495.495 0 0 1-.462.255.486.486 0 0 1-.455-.254C.789.64.742.374.742.01" style="fill:#948a74;fill-opacity:1;fill-rule:nonzero;stroke:none" transform="translate(195.18 43.585)"/></g></g><g style="fill:#948a74;fill-opacity:1"><path d="M0 0v4.452h.738l1.578-3.093v3.093h.755V0h-.747L.754 3.116V0Z" style="fill:#948a74;fill-opacity:1;fill-rule:nonzero;stroke:none" transform="matrix(11.07573 0 0 -11.07573 640.732 350.17)"/></g><g clip-path="url(#c)" style="fill:#948a74;fill-opacity:1" transform="matrix(11.07573 0 0 -11.07573 -1577.21 816.29)"><g style="fill:#948a74;fill-opacity:1"><path d="M0 0v.291A.928.928 0 0 0-.345.029a1.153 1.153 0 0 0-.447-.082c-.338 0-.594.131-.769.393-.174.261-.261.649-.261 1.161 0 .506.086.892.26 1.153.172.26.429.392.77.392.171 0 .322-.027.452-.082A.908.908 0 0 0 0 2.708v.285h.729V0Zm-1.081 1.501c0-.383.044-.653.129-.811.086-.156.228-.235.424-.235.197 0 .337.079.424.238.086.157.128.427.128.808 0 .383-.042.651-.126.805-.085.155-.227.232-.426.232-.199 0-.34-.077-.426-.232-.084-.154-.127-.422-.127-.805" style="fill:#948a74;fill-opacity:1;fill-rule:nonzero;stroke:none" transform="translate(205.98 42.085)"/></g></g><g style="fill:#948a74;fill-opacity:1"><path d="M0 0v2.59h-.403v.403H0v.82h.729v-.82h.546V2.59H.729V0Z" style="fill:#948a74;fill-opacity:1;fill-rule:nonzero;stroke:none" transform="matrix(11.07573 0 0 -11.07573 722.263 350.17)"/></g><g clip-path="url(#d)" style="fill:#948a74;fill-opacity:1" transform="matrix(11.07573 0 0 -11.07573 -1577.21 816.29)"><g style="fill:#948a74;fill-opacity:1"><path d="M0 0c0 .1.044.182.135.251.09.069.201.104.335.104A.526.526 0 0 0 .801.251C.892.182.937.1.937 0c0-.097-.046-.178-.138-.246A.533.533 0 0 0 .47-.348a.556.556 0 0 0-.335.099A.3.3 0 0 0 0 0m.103-.895h.73v-2.993h-.73z" style="fill:#948a74;fill-opacity:1;fill-rule:nonzero;stroke:none" transform="translate(209.312 45.972)"/></g><g style="fill:#948a74;fill-opacity:1"><path d="M0 0c0 .503.113.887.343 1.15.229.263.561.395.998.395.435 0 .767-.132.996-.395.229-.263.344-.647.344-1.15 0-.507-.115-.893-.344-1.157-.229-.264-.561-.396-.996-.396-.437 0-.769.132-.998.396C.113-.893 0-.507 0 0m.742.01c0-.365.047-.632.144-.802a.486.486 0 0 1 .455-.253c.209 0 .363.084.463.254.098.172.147.438.147.801 0 .361-.049.626-.147.798a.498.498 0 0 1-.463.255.485.485 0 0 1-.455-.254C.789.64.742.374.742.01" style="fill:#948a74;fill-opacity:1;fill-rule:nonzero;stroke:none" transform="translate(210.864 43.585)"/></g><g style="fill:#948a74;fill-opacity:1"><path d="M0 0v2.993h.721v-.306a.918.918 0 0 0 .356.25c.14.055.303.082.488.082.294 0 .513-.061.655-.184.142-.122.214-.311.214-.562V0h-.742v2.003c0 .202-.035.34-.106.412-.07.074-.192.11-.365.11-.164 0-.286-.039-.368-.115-.082-.076-.124-.189-.124-.338V0Z" style="fill:#948a74;fill-opacity:1;fill-rule:nonzero;stroke:none" transform="translate(214.262 42.085)"/></g><g style="fill:#948a74;fill-opacity:1"><path d="M0 0v.291A.947.947 0 0 0-.346.029a1.15 1.15 0 0 0-.447-.082c-.338 0-.594.131-.768.393-.175.261-.261.649-.261 1.161 0 .506.086.892.258 1.153.173.26.431.392.771.392.171 0 .321-.027.451-.082A.923.923 0 0 0 0 2.708v.285h.729V0Zm-1.081 1.501c0-.383.043-.653.129-.811.086-.156.227-.235.424-.235.195 0 .337.079.423.238.086.157.128.427.128.808 0 .383-.042.651-.126.805-.085.155-.227.232-.425.232-.199 0-.341-.077-.426-.232-.084-.154-.127-.422-.127-.805" style="fill:#948a74;fill-opacity:1;fill-rule:nonzero;stroke:none" transform="translate(219.255 42.085)"/></g></g><path d="M832.773 430.31h6.547V387.76h-6.547z" style="fill:#948a74;fill-opacity:1;fill-rule:nonzero;stroke:none;stroke-width:8.98009" transform="translate(-158.112 -180.559) scale(1.23336)"/><g style="fill:#948a74;fill-opacity:1"><path d="m0 0 .509 4.452h.725l.807-3.083.828 3.083h.701L4.087 0h-.741l-.241 3.122L2.311 0h-.542L.974 3.122.733 0Z" style="fill:#948a74;fill-opacity:1;fill-rule:nonzero;stroke:none" transform="matrix(11.07573 0 0 -11.07573 903.413 350.17)"/></g><g style="fill:#948a74;fill-opacity:1"><path d="M0 0v2.111h.729V-.032c0-.139.041-.244.123-.314.083-.071.204-.107.367-.107.159 0 .28.036.362.107.083.07.124.175.124.314v2.143h.742V0c0-.329-.097-.568-.292-.715-.194-.147-.506-.219-.936-.219-.429 0-.74.072-.932.219C.096-.568 0-.329 0 0" style="fill:#948a74;fill-opacity:1;fill-rule:nonzero;stroke:none" transform="matrix(11.07573 0 0 -11.07573 956.618 340.405)"/></g><g style="fill:#948a74;fill-opacity:1"><path d="M0 0c.104-.07.206-.121.308-.156A.93.93 0 0 1 .62-.209c.154 0 .281.035.378.105a.314.314 0 0 1 .148.266c0 .129-.136.29-.407.481a1.62 1.62 0 0 1-.082.06c-.259.185-.433.337-.523.46A.666.666 0 0 0 0 1.566c0 .252.104.458.309.617.207.158.475.238.804.238a1.798 1.798 0 0 0 .63-.12v-.57a.763.763 0 0 1-.259.157.945.945 0 0 1-.324.052.554.554 0 0 1-.337-.098.3.3 0 0 1-.133-.249c0-.134.13-.289.389-.466.053-.035.091-.063.115-.08.241-.168.408-.318.501-.453a.76.76 0 0 0 .14-.448.714.714 0 0 0-.309-.608C1.32-.614 1.044-.69.7-.69a2.553 2.553 0 0 0-.7.11Z" style="fill:#948a74;fill-opacity:1;fill-rule:nonzero;stroke:none" transform="matrix(11.07573 0 0 -11.07573 991.145 343.107)"/></g><g style="fill:#948a74;fill-opacity:1"><path d="M0 0v-.04c0-.315-.106-.563-.318-.744-.212-.181-.501-.271-.868-.271-.45 0-.778.125-.986.374-.209.248-.313.646-.313 1.191 0 .514.104.898.313 1.153.208.253.523.381.945.381.447 0 .772-.116.97-.347.198-.231.297-.609.297-1.133V.39h-1.834V.302c0-.31.047-.537.143-.677.096-.14.249-.211.458-.211.166 0 .294.049.381.146.086.097.134.243.142.436zm-1.794.821h1.132v.076c0 .247-.044.427-.132.538-.088.11-.23.166-.424.166a.503.503 0 0 1-.431-.199c-.097-.131-.145-.326-.145-.581" style="fill:#948a74;fill-opacity:1;fill-rule:nonzero;stroke:none" transform="matrix(11.07573 0 0 -11.07573 1044.008 339.073)"/></g><g style="fill:#948a74;fill-opacity:1"><path d="M0 0v2.111h.729V-.032c0-.139.042-.244.124-.314.083-.071.204-.107.367-.107.159 0 .28.036.362.107.082.07.124.175.124.314v2.143h.742V0c0-.329-.097-.568-.292-.715-.195-.147-.506-.219-.936-.219-.429 0-.741.072-.932.219C.096-.568 0-.329 0 0" style="fill:#948a74;fill-opacity:1;fill-rule:nonzero;stroke:none" transform="matrix(11.07573 0 0 -11.07573 1052.052 340.405)"/></g><g style="fill:#948a74;fill-opacity:1"><path d="M0 0v2.993h.721v-.306a.888.888 0 0 0 .345.25c.137.055.297.082.48.082.182 0 .336-.029.466-.088a.934.934 0 0 0 .348-.279c.108.124.236.215.383.276.147.06.314.091.502.091.293 0 .512-.061.655-.184.143-.122.214-.311.214-.562V0h-.729v2.003c0 .202-.036.34-.108.412-.07.074-.194.11-.372.11-.161 0-.284-.039-.37-.115-.084-.076-.126-.189-.126-.338V0H1.68v2.003c0 .198-.036.334-.107.408-.072.076-.192.114-.361.114-.16 0-.28-.039-.362-.115-.08-.076-.121-.189-.121-.338V0Z" style="fill:#948a74;fill-opacity:1;fill-rule:nonzero;stroke:none" transform="matrix(11.07573 0 0 -11.07573 1089.031 350.17)"/></g></g><g style="fill:#042a34;fill-opacity:1"><g style="fill:#042a34;fill-opacity:1"><path d="M0 0v-1.26h2.099c0-.013-.01-.098-.03-.257a3.609 3.609 0 0 1-.031-.478v-1.91l-.09-.784H.872v2.576h-4.151v.853h2.034V0H-4.56v.858H.783c.081.413.137.805.172 1.175.033.371.049.73.049 1.078h-4.283v.802h5.621a2.172 2.172 0 0 1-.036-.306 5.416 5.416 0 0 1-.024-.477c0-.193-.035-.52-.101-.981A9.91 9.91 0 0 0 1.909.858h1.509V0Z" style="fill:#042a34;fill-opacity:1;fill-rule:nonzero;stroke:none" transform="matrix(11.07573 0 0 -11.07573 494.383 215.823)"/></g><g style="fill:#042a34;fill-opacity:1"><path d="M0 0h-2.454v.397c0 .148.006.272.02.373.014.099.021.156.021.167l-1.156.102v-3.126c0-.115.026-.208.08-.275.054-.068.134-.101.241-.101H.743a.38.38 0 0 1 .267.087c.064.058.096.154.096.289V.485c0 .167.006.317.02.452.013.136.02.211.02.224L0 1.24Zm0-1.68h-2.454v.909H0Zm.101 8.294V5.369H.1l.001-.005V3.103a20.045 20.045 0 0 0-1.966-.28 18.372 18.372 0 0 0-1.704-.096h-.422v.812h2.563v2.327h-3.905v-.782h2.729V4.32h-2.573V2.097c0-.115.038-.202.116-.26a.43.43 0 0 1 .266-.088c.791 0 1.609.059 2.458.174.848.117 1.66.271 2.438.464v-.733h1.085v3.72c0 .258.041.497.12.719.081.224.125.341.132.355z" style="fill:#042a34;fill-opacity:1;fill-rule:nonzero;stroke:none" transform="matrix(11.07573 0 0 -11.07573 611.294 240.333)"/></g><g style="fill:#042a34;fill-opacity:1"><path d="M0 0v-.898h3.463V-3.41h1.095l.092.966v1.546h3.179V0Zm1.694.78h4.522c.115 0 .206.03.277.091.07.061.105.157.105.285v2.648a2.66 2.66 0 0 0 .08.667l-1.246.125V3.331H2.499v.338c0 .148.008.287.024.416l.025.203-1.216.113V1.156c0-.128.033-.224.101-.285A.372.372 0 0 1 1.694.78m.805 1.749h2.934v-.928H2.499Z" style="fill:#042a34;fill-opacity:1;fill-rule:nonzero;stroke:none" transform="matrix(11.07573 0 0 -11.07573 646.876 221.617)"/></g><g style="fill:#042a34;fill-opacity:1"><path d="M0 0v-1.564h-1.89c-.214.213-.472.38-.774.499a2.624 2.624 0 0 1-.964.177 2.514 2.514 0 0 1-1.699-.622c-.483-.416-.724-.932-.724-1.551 0-.625.241-1.142.724-1.552a2.545 2.545 0 0 1 1.699-.612c.334 0 .649.055.943.168.296.112.55.269.765.468H0v-3.74h.945l.14 1.161v5.923c0 .258.041.498.121.72l.131.364zm-2.709-3.951a1.095 1.095 0 0 0-.919-.444c-.39 0-.694.149-.916.444-.221.298-.332.603-.332.919 0 .316.111.618.332.908.222.291.526.435.916.435.387 0 .695-.144.919-.429.224-.288.337-.592.337-.914 0-.316-.113-.621-.337-.919M0-3.766h-1.367a2.175 2.175 0 0 1 .09 1.063c-.019.115-.05.226-.09.328H0Z" style="fill:#042a34;fill-opacity:1;fill-rule:nonzero;stroke:none" transform="matrix(11.07573 0 0 -11.07573 811.67 167.135)"/></g><g style="fill:#042a34;fill-opacity:1"><path d="M0 0v.918c0 .259.041.498.12.72.08.223.124.34.131.354l-1.328.166v-5.289H0v2.31h1.271V0Zm-4.937-4.369h3.741v-2.549h1.025l.09.782v1.845c0 .173.006.337.021.488l.02.236h-4.897zm2.495 1.866c.068.06.102.152.102.28V.705c0 .13.011.27.035.421.023.152.035.233.035.247l-1.197.126V.039h-1.772v.475c0 .147.007.285.024.414l.026.202-1.187.118v-3.471c0-.128.035-.22.106-.28a.393.393 0 0 1 .257-.086h3.3a.4.4 0 0 1 .271.086m-1.025.707H-5.24v1.054h1.773z" style="fill:#042a34;fill-opacity:1;fill-rule:nonzero;stroke:none" transform="matrix(11.07573 0 0 -11.07573 920.499 190.986)"/></g><g style="fill:#042a34;fill-opacity:1"><path d="M0 0v.794h-7.874V0h3.336v-.729h-1.993v-.754h4.072v-.638h-4.072V-3.87c0-.122.031-.217.094-.285a.34.34 0 0 1 .258-.1h5.117v.742h-4.243v.639h4.082v1.478c0 .148.01.294.031.435.02.142.03.218.03.232h-2.07V0Zm-6.19 1.498h4.596c.113 0 .204.036.271.107.067.071.1.158.1.261v1.841c0 .038.009.172.027.4l.024.363h-5.359V1.866c0-.123.029-.214.09-.277a.344.344 0 0 1 .251-.091m.785 2.19h3.037V2.271h-3.037z" style="fill:#042a34;fill-opacity:1;fill-rule:nonzero;stroke:none" transform="matrix(11.07573 0 0 -11.07573 1034.074 220.48)"/></g><g style="fill:#042a34;fill-opacity:1"><path d="M0 0v.803C-.444.747-.901.703-1.373.675A41.687 41.687 0 0 0-2.891.607v1.315c0 .109.008.246.02.409.015.165.025.251.03.257l-1.176.091V.607h-1.577v-.87h1.478c.622 0 1.321.02 2.095.063C-1.3-.161-.63-.093 0 0m-2.021 2.443a10.711 10.711 0 0 0-.165-1.198h1.005c.134.425.243.936.326 1.531.084.596.129 1.101.136 1.512a.15.15 0 0 1-.035.099.125.125 0 0 1-.096.037h-4.303v-.792h3.187c0-.354-.018-.751-.055-1.189m-.395-4.281c0 .148.009.288.03.421.019.131.029.204.029.217l-1.195.101v-2.304c0-.124.038-.212.115-.271a.42.42 0 0 1 .257-.086h4.63v.802h-3.866zm3.627 4.407v1.507c0 .259.04.498.12.72.08.223.124.34.131.354l-1.316.167v-6.856h.974l.091.957v2.329H2.52v.822z" style="fill:#042a34;fill-opacity:1;fill-rule:nonzero;stroke:none" transform="matrix(11.07573 0 0 -11.07573 1109.324 225.963)"/></g></g><g style="fill:#b38e4c;fill-opacity:1"><path d="M0 0a4.233 4.233 0 0 0-.789-1.725l-.34-.383a4.398 4.398 0 0 0-.839-.658l-.373-.202-.301-.155A11.373 11.373 0 0 1-5.95-5.384l-.057-.06a11.34 11.34 0 0 1-3.365-8.091h3.538A7.84 7.84 0 0 0-.831-6.196l.058.023.02.061A5.515 5.515 0 0 0 .619-3.855 6.832 6.832 0 0 1 2.56-.02l.003.02Zm-5.502-13.535h.899a6.645 6.645 0 0 0 3.526 5.871l.06.032.117 1.043-.213-.09a7.574 7.574 0 0 1-4.389-6.856" style="fill:#b38e4c;fill-opacity:1;fill-rule:nonzero;stroke:none" transform="matrix(11.07573 0 0 -11.07573 372.498 0)"/></g><g style="fill:#948a74;fill-opacity:1"><path d="M0 0v-4.018c7.695.007 13.938 6.198 14.033 13.873H10.01C9.914 4.403 5.475.008 0 0" style="fill:#948a74;fill-opacity:1;fill-rule:nonzero;stroke:none" transform="matrix(11.07573 0 0 -11.07573 113.265 259.061)"/></g><g style="fill:#b38e4c;fill-opacity:1"><path d="M0 0a1.434 1.434 0 1 0-2.867-.125A1.434 1.434 0 0 0 0 0" style="fill:#b38e4c;fill-opacity:1;fill-rule:nonzero;stroke:none" transform="matrix(11.07573 0 0 -11.07573 89.964 136.63)"/></g><g style="fill:#042a34;fill-opacity:1"><path d="M0 0a6.445 6.445 0 0 0 6.444 6.444l.006 2.034.006 1.762A10.24 10.24 0 0 1-3.783 0c0-5.656 4.585-10.24 10.239-10.24l-.012 3.795A6.444 6.444 0 0 0 0 0" style="fill:#042a34;fill-opacity:1;fill-rule:nonzero;stroke:none" transform="matrix(11.07573 0 0 -11.07573 41.9 263.33)"/></g><g style="fill:#948a74;fill-opacity:1"><path d="M0 0a4.254 4.254 0 0 1 1.506 5.691A4.227 4.227 0 0 1-.852 7.657c.328.744.519 1.56.519 2.425l-2.651-.002a3.405 3.405 0 0 0-1.831-3.021l-1.553-.858V2.98l3.455 1.91a1.437 1.437 0 0 0 1.391-2.516L-4.756.586A10.195 10.195 0 0 0 .006 1.762z" style="fill:#948a74;fill-opacity:1;fill-rule:nonzero;stroke:none" transform="matrix(11.07573 0 0 -11.07573 113.342 169.424)"/></g></svg>