<?xml version="1.0" encoding="utf-8"?>
<!-- Generator: Adobe Illustrator 27.4.0, SVG Export Plug-In . SVG Version: 6.00 Build 0)  -->
<svg version="1.1" id="레이어_1" xmlns="http://www.w3.org/2000/svg" xmlns:xlink="http://www.w3.org/1999/xlink" x="0px"
	 y="0px" viewBox="0 0 334.3 128.6" style="enable-background:new 0 0 334.3 128.6;" xml:space="preserve">
<style type="text/css">
	.st0{fill:#E92026;}
	.st1{fill:#211D1E;}
	.st2{fill:#221E1F;}
</style>
<g>
	<g>
		<rect x="43.1" y="44.7" class="st0" width="39.1" height="39.6"/>
	</g>
	<path class="st1" d="M86.2,88.4V40.8H44.7h-0.8h-0.7V4.6V0h-4.6H0v4.6h38.6v36.2H0v4v0h38.6V124h-0.1v4.6h47.7V124h-43V88.4H86.2z
		 M43.9,44.7h38.4v39.6H43.1V44.7H43.9z"/>
	<g>
		<path class="st2" d="M110.6,87.6c-0.3,0.2-1,0.3-2,0.3c-2.4,0-3.9-1.5-3.9-3.8c0-2.5,1.7-4,4-4c0.9,0,1.5,0.2,1.8,0.3l-0.3,1.1
			c-0.4-0.2-0.9-0.3-1.5-0.3c-1.5,0-2.6,1-2.6,2.8c0,1.7,1,2.7,2.6,2.7c0.5,0,1.1-0.1,1.5-0.3L110.6,87.6z"/>
		<path class="st2" d="M125.8,80.2v4.4c0,1.5,0.6,2.2,1.5,2.2c1,0,1.6-0.7,1.6-2.2v-4.4h1.4v4.3c0,2.3-1.2,3.4-3,3.4
			c-1.8,0-2.9-1-2.9-3.4v-4.3H125.8z"/>
		<path class="st2" d="M134.4,87.8v-7.6h1.6l2,3.2c0.5,0.8,0.9,1.7,1.3,2.5h0c-0.1-1-0.1-2-0.1-3.1v-2.6h1.3v7.6H139l-2-3.3
			c-0.5-0.8-1-1.7-1.3-2.6l0,0c0.1,1,0.1,2,0.1,3.2v2.7H134.4z"/>
		<path class="st2" d="M150.6,87.4c-0.5,0.2-1.4,0.4-2.4,0.4c-1.3,0-2.3-0.3-3-1c-0.7-0.6-1.1-1.6-1.1-2.8c0-2.4,1.7-3.9,4.2-3.9
			c0.9,0,1.7,0.2,2,0.4l-0.3,1.1c-0.4-0.2-0.9-0.3-1.7-0.3c-1.6,0-2.7,1-2.7,2.7c0,1.7,1.1,2.7,2.6,2.7c0.5,0,0.9-0.1,1-0.1v-1.9
			h-1.3v-1.1h2.7V87.4z"/>
		<path class="st2" d="M154.5,87.8v-7.6h1.6l2,3.2c0.5,0.8,0.9,1.7,1.3,2.5h0c-0.1-1-0.1-2-0.1-3.1v-2.6h1.3v7.6h-1.4l-2-3.3
			c-0.5-0.8-1-1.7-1.3-2.6l0,0c0.1,1,0.1,2,0.1,3.2v2.7H154.5z"/>
		<path class="st2" d="M166.1,85.6l-0.7,2.1h-1.4l2.4-7.6h1.8l2.5,7.6h-1.5l-0.7-2.1H166.1z M168.3,84.6l-0.6-1.9
			c-0.1-0.5-0.3-1-0.4-1.4h0c-0.1,0.4-0.2,1-0.4,1.4l-0.6,1.9H168.3z"/>
		<path class="st2" d="M180.6,84.7c0-1-0.1-2.2-0.1-3.2h0c-0.2,0.9-0.6,1.9-0.9,2.9l-1.1,3.3h-1.1l-1-3.2c-0.3-1-0.6-2-0.8-2.9h0
			c0,1-0.1,2.2-0.1,3.2l-0.2,3h-1.3l0.5-7.6h1.8l1,3c0.3,0.9,0.5,1.8,0.7,2.6h0c0.2-0.8,0.5-1.7,0.8-2.6l1-3h1.8l0.4,7.6h-1.3
			L180.6,84.7z"/>
		<path class="st2" d="M196.3,87.6c-0.3,0.2-1,0.3-2,0.3c-2.4,0-3.9-1.5-3.9-3.8c0-2.5,1.7-4,4-4c0.9,0,1.5,0.2,1.8,0.3l-0.3,1.1
			c-0.4-0.2-0.9-0.3-1.5-0.3c-1.5,0-2.6,1-2.6,2.8c0,1.7,1,2.7,2.6,2.7c0.5,0,1.1-0.1,1.5-0.3L196.3,87.6z"/>
		<path class="st2" d="M206.4,83.9c0,2.5-1.5,4-3.6,4c-2.1,0-3.5-1.6-3.5-3.8c0-2.3,1.5-4,3.6-4C205.1,80.1,206.4,81.7,206.4,83.9z
			 M200.8,84c0,1.5,0.8,2.8,2.1,2.8c1.3,0,2.1-1.2,2.1-2.8c0-1.4-0.7-2.8-2.1-2.8C201.5,81.2,200.8,82.5,200.8,84z"/>
		<path class="st2" d="M210.2,87.8v-7.6h1.6l2,3.2c0.5,0.8,0.9,1.7,1.3,2.5h0c-0.1-1-0.1-2-0.1-3.1v-2.6h1.3v7.6h-1.4l-2-3.3
			c-0.5-0.8-1-1.7-1.3-2.6l0,0c0.1,1,0.1,2,0.1,3.2v2.7H210.2z"/>
		<path class="st2" d="M221.7,81.4h-2.2v-1.2h5.7v1.2h-2.2v6.4h-1.4V81.4z"/>
		<path class="st2" d="M232.9,84.4h-2.8v2.2h3.2v1.1h-4.6v-7.6h4.4v1.1h-3v2h2.8V84.4z"/>
		<path class="st2" d="M237,87.8v-7.6h1.6l2,3.2c0.5,0.8,0.9,1.7,1.3,2.5h0c-0.1-1-0.1-2-0.1-3.1v-2.6h1.3v7.6h-1.4l-2-3.3
			c-0.5-0.8-1-1.7-1.3-2.6l0,0c0.1,1,0.1,2,0.1,3.2v2.7H237z"/>
		<path class="st2" d="M248.6,81.4h-2.2v-1.2h5.7v1.2h-2.2v6.4h-1.4V81.4z"/>
		<path class="st2" d="M260.4,80.2h1.4v3.5h0c0.2-0.3,0.4-0.6,0.5-0.8l2-2.7h1.7l-2.6,3.2l2.8,4.3h-1.6l-2.1-3.5l-0.7,0.8v2.7h-1.4
			V80.2z"/>
		<path class="st2" d="M275.8,83.9c0,2.5-1.5,4-3.6,4c-2.1,0-3.5-1.6-3.5-3.8c0-2.3,1.5-4,3.6-4C274.5,80.1,275.8,81.7,275.8,83.9z
			 M270.2,84c0,1.5,0.8,2.8,2.1,2.8c1.3,0,2.1-1.2,2.1-2.8c0-1.4-0.7-2.8-2.1-2.8C270.9,81.2,270.2,82.5,270.2,84z"/>
		<path class="st2" d="M279.6,80.3c0.5-0.1,1.3-0.2,2.1-0.2c1.1,0,1.8,0.2,2.3,0.6c0.4,0.3,0.7,0.9,0.7,1.5c0,1-0.7,1.6-1.4,1.9v0
			c0.5,0.2,0.9,0.7,1.1,1.5c0.2,0.9,0.4,1.8,0.6,2.1h-1.4c-0.1-0.2-0.3-0.8-0.5-1.8c-0.2-1-0.6-1.3-1.4-1.3h-0.7v3.1h-1.4V80.3z
			 M280.9,83.7h0.8c0.9,0,1.5-0.5,1.5-1.2c0-0.8-0.6-1.2-1.5-1.2c-0.4,0-0.7,0-0.9,0.1V83.7z"/>
		<path class="st2" d="M292.7,84.4h-2.8v2.2h3.2v1.1h-4.6v-7.6h4.4v1.1h-3v2h2.8V84.4z"/>
		<path class="st2" d="M298.3,85.6l-0.7,2.1h-1.4l2.4-7.6h1.8l2.5,7.6h-1.5l-0.7-2.1H298.3z M300.4,84.6l-0.6-1.9
			c-0.1-0.5-0.3-1-0.4-1.4h0c-0.1,0.4-0.2,1-0.4,1.4l-0.6,1.9H300.4z"/>
		<path class="st2" d="M311.3,80.2h1.4v6.4h3.1v1.2h-4.5V80.2z"/>
		<path class="st2" d="M320.9,85.6l-0.7,2.1h-1.4l2.4-7.6h1.8l2.5,7.6H324l-0.7-2.1H320.9z M323.1,84.6l-0.6-1.9
			c-0.1-0.5-0.3-1-0.4-1.4h0c-0.1,0.4-0.2,1-0.4,1.4l-0.6,1.9H323.1z"/>
		<path class="st2" d="M329,80.3c0.4-0.1,1.2-0.2,2-0.2c1,0,1.6,0.1,2.2,0.5c0.5,0.3,0.8,0.8,0.8,1.4c0,0.7-0.4,1.3-1.3,1.6v0
			c0.8,0.2,1.5,0.8,1.5,1.9c0,0.7-0.3,1.2-0.7,1.6c-0.5,0.5-1.4,0.7-2.8,0.7c-0.8,0-1.3-0.1-1.7-0.1V80.3z M330.4,83.3h0.7
			c1,0,1.5-0.4,1.5-1.1c0-0.7-0.5-1-1.4-1c-0.4,0-0.6,0-0.8,0.1V83.3z M330.4,86.8c0.2,0,0.4,0,0.7,0c0.9,0,1.7-0.3,1.7-1.3
			c0-0.9-0.8-1.2-1.7-1.2h-0.7V86.8z"/>
		<path class="st2" d="M115.6,80.1v3.1h3.4v-3.1h1.5v7.6H119v-3.4h-3.4v3.4h-1.4v-7.6H115.6z"/>
	</g>
	<g>
		<path class="st2" d="M112.6,45.7c1.2,0.3,2.4,0.6,3.7,0.8c1.2,0.2,2.7,0.3,3.4,0.3v-2.8c-0.8,0-1.8-0.1-3-0.3
			c-1.2-0.2-2.3-0.4-3.4-0.7c-0.7-0.2-1.2-0.4-1.7-0.6c-0.5-0.2-0.8-0.5-1-0.7l-1.2,2.2c0.2,0.3,0.6,0.6,1.2,0.9
			C111.1,45.1,111.8,45.4,112.6,45.7z"/>
		<path class="st2" d="M106.1,55.1l1.7,2.5c1.3-0.1,2.6-0.4,4.1-0.9c1.5-0.5,2.9-1.1,4.2-1.9c1.4,0.6,2.5,1.1,3.3,1.5
			c0.8,0.4,2,0.8,3.4,1.4l2-2.3l-5.9-2.6c0.8-0.7,1.4-1.4,1.9-2.1c0.5-0.8,0.8-1.5,0.9-2.4h-13.6v2.8h8c-1.2,1-2.6,1.8-4.2,2.5
			C110.4,54.3,108.4,54.8,106.1,55.1z"/>
		<path class="st2" d="M102.9,61H114v1.4c-0.8,0.1-1.5,0.4-2.1,0.6c-0.6,0.3-1.2,0.7-1.7,1.1c-0.5,0.5-0.9,1-1.2,1.6
			c-0.3,0.6-0.4,1.2-0.4,2c0,0.9,0.2,1.7,0.6,2.3c0.4,0.7,0.9,1.3,1.6,1.7c0.7,0.5,1.4,0.8,2.3,1.1c0.8,0.2,1.7,0.4,2.6,0.4
			c0.9,0,1.8-0.1,2.6-0.4c0.9-0.2,1.6-0.6,2.3-1.1c0.7-0.5,1.2-1.1,1.6-1.7c0.4-0.7,0.6-1.5,0.6-2.3c0-0.8-0.2-1.4-0.5-2
			c-0.3-0.6-0.7-1.1-1.2-1.6c-0.5-0.5-1.1-0.8-1.8-1.1c-0.7-0.3-1.4-0.5-2.1-0.6V61h11.2v-2.9h-25.5V61z M115.7,65.1
			c0.4,0,0.9,0,1.3,0.1c0.5,0.1,0.9,0.2,1.3,0.4c0.4,0.2,0.7,0.5,0.9,0.8c0.2,0.3,0.4,0.7,0.4,1.2c0,0.5-0.1,0.9-0.4,1.2
			c-0.2,0.3-0.5,0.6-0.9,0.8c-0.4,0.2-0.8,0.3-1.3,0.4s-0.9,0.1-1.3,0.1c-0.5,0-0.9,0-1.4-0.1c-0.4-0.1-0.9-0.2-1.2-0.4
			c-0.4-0.2-0.7-0.5-0.9-0.8c-0.2-0.3-0.3-0.7-0.3-1.2c0-0.5,0.1-0.9,0.3-1.2c0.2-0.3,0.5-0.6,0.9-0.8c0.4-0.2,0.8-0.3,1.2-0.4
			C114.8,65.1,115.2,65.1,115.7,65.1z"/>
		<polygon class="st2" points="150.5,44.2 147.2,44.2 147.2,60.9 150.5,60.9 150.5,52.9 153.5,52.9 153.5,49.9 150.5,49.9 		"/>
		<polygon class="st2" points="143.8,55.2 133.5,55.2 133.5,51.9 133.5,45.7 130.3,45.7 130.3,58.2 143.8,58.2 		"/>
		<path class="st2" d="M150.1,62h-14.6v10.1h14.6V62z M146.8,69.1h-8.1V65h8.1V69.1z"/>
		<polygon class="st2" points="194,57.1 186.5,57.1 186.5,53.9 193,53.9 193,50.8 186.5,50.8 186.5,47.9 193.3,47.9 193.3,44.7 
			183.1,44.7 183.1,60.3 194,60.3 		"/>
		<polygon class="st2" points="200.6,61.9 200.6,44.3 197.6,44.3 197.6,50.7 195,50.7 195,53.3 197.6,53.3 197.6,61.9 		"/>
		<polygon class="st2" points="193.4,63.5 189.7,63.5 189.7,71.8 205.6,71.8 205.6,68.7 193.4,68.7 		"/>
		<polygon class="st2" points="163.6,64.2 159.8,64.2 159.8,71.8 176.6,71.8 176.6,68.9 163.6,68.9 		"/>
		<path class="st2" d="M263.7,57.1v-1.9h9.2v-9.5h-12.3V49h9.2v3.1h-9.2v7c0,0,0,3,3.2,3h11.3V59h-9.3
			C263.5,59,263.7,57.1,263.7,57.1z"/>
		<path class="st2" d="M323.4,57.2h-7.1c-2.1,0-1.9-1.7-1.9-1.7v-1.7h8.1v-8.3h-10.8v2.9h8v2.7h-8v6.2c0,0,0,2.6,2.8,2.6h8.8V57.2z"
			/>
		<path class="st2" d="M297.1,48c-0.7-0.8-1.5-1.5-2.4-1.9c-0.9-0.5-1.9-0.7-3-0.7c-1.1,0-2.1,0.2-3,0.7c-0.9,0.5-1.7,1.1-2.4,1.9
			c-0.7,0.8-1.2,1.8-1.6,2.9c-0.4,1.1-0.6,2.2-0.6,3.5c0,1.2,0.2,2.4,0.6,3.5c0.4,1.1,0.9,2,1.6,2.8c0.7,0.8,1.5,1.5,2.4,1.9
			c0.9,0.5,2,0.7,3.1,0.7c1.1,0,2.1-0.2,3-0.7c0.9-0.5,1.7-1.1,2.4-1.9c0.7-0.8,1.2-1.7,1.6-2.8c0.4-1.1,0.6-2.2,0.6-3.5
			c0-1.2-0.2-2.4-0.6-3.5C298.3,49.7,297.8,48.8,297.1,48z M294.9,56.4c-0.2,0.7-0.4,1.3-0.7,1.8c-0.3,0.5-0.7,1-1.1,1.3
			c-0.4,0.3-0.9,0.5-1.5,0.5c-0.5,0-1-0.2-1.4-0.5c-0.4-0.3-0.8-0.7-1.1-1.3c-0.3-0.5-0.6-1.2-0.7-1.8c-0.2-0.7-0.2-1.4-0.2-2.1
			c0-0.7,0.1-1.4,0.2-2.1c0.2-0.7,0.4-1.3,0.7-1.8c0.3-0.5,0.7-1,1.1-1.3c0.4-0.3,0.9-0.5,1.5-0.5c0.6,0,1.1,0.2,1.5,0.5
			c0.4,0.3,0.8,0.8,1.1,1.4c0.3,0.5,0.5,1.1,0.7,1.8c0.2,0.7,0.2,1.4,0.2,2.1C295.2,55,295.1,55.7,294.9,56.4z"/>
		<polygon class="st2" points="168.9,55.9 165.7,55.9 165.7,59.6 155.9,59.6 155.9,62.7 179.6,62.7 179.6,59.6 168.9,59.6 		"/>
		<path class="st2" d="M217.8,44.6c1.2,0.3,2.4,0.6,3.6,0.8c1.2,0.2,2.6,0.3,3.4,0.3v-2.8c-0.8,0-1.7-0.1-2.9-0.3
			c-1.2-0.2-2.3-0.4-3.3-0.7c-0.7-0.2-1.2-0.4-1.7-0.6c-0.5-0.2-0.8-0.5-1-0.7l-1.2,2.2c0.2,0.3,0.6,0.6,1.1,0.9
			C216.3,44,217,44.3,217.8,44.6z"/>
		<path class="st2" d="M160.2,50.5v0.2v0.3v2.1v0v0.3h12.5c-0.3,2.2-1.6,3.9-1.6,3.9h3.8c0,0,1.4-1.9,1.5-4.7h0v-2.1v-0.4v-2.4v-2.1
			v-0.5h-16.1v0v0.4v2.1v0.4h12.7v2.4H160.2z"/>
		<rect x="202.4" y="43.6" class="st2" width="3.3" height="19.1"/>
		<polygon class="st2" points="247,58.9 243.9,58.9 243.9,61.8 234.8,61.8 234.8,61.9 234.7,61.9 234.7,64.9 234.8,64.9 234.8,65 
			258.4,65 258.4,64.9 258.4,61.9 258.4,61.8 247,61.8 		"/>
		<rect x="277.5" y="44.5" class="st2" width="3.6" height="24.4"/>
		<polygon class="st2" points="305,44.5 301.3,44.5 301.3,68.9 305,68.9 305,56.7 308.1,56.7 308.1,53.7 305,53.7 		"/>
		<polygon class="st2" points="331.1,44.5 331.1,51.4 328.8,51.4 328.8,45.3 325.7,45.3 325.7,61 328.8,61 328.8,54.2 331.1,54.2 
			331.1,61.4 334.3,61.4 334.3,44.5 		"/>
		<path class="st2" d="M209.6,56.3l1.9,2.2c0,0,4.1-0.1,9.4-3.7l6.7,4l2.6-1.9l-6.7-4.1c1.2-1,2.4-2.2,3.6-3.7v-1.9h-15.2v2.8h9.3
			C221.2,50.1,218.4,55,209.6,56.3z"/>
		<path class="st2" d="M249.3,58.8h3.9c0,0,1.5-2.1,1.5-5.1h0v-2.3v-0.5v-2.5v-2.2v-0.5h-16.9v0v0.4v2.2v0.4h13.3v2.6h-13.3v0.3V52
			v2.2v0v0.3H251C250.6,56.9,249.3,58.8,249.3,58.8z"/>
		<polygon class="st2" points="208.8,61.9 208.8,64.9 208.8,65 231.8,65 231.8,64.9 231.8,61.9 231.8,61.8 208.8,61.8 		"/>
		<path class="st2" d="M331.2,62.6h-0.1V65h-7.8v-2.5h-0.1h-3v10.3h2h1h0.1h7.8h0.1h1.2h1.8l0,0V62.6l0,0H331.2z M331.1,69.7h-7.8
			v-2.3h7.8V69.7z"/>
	</g>
</g>
</svg>
