<svg xmlns="http://www.w3.org/2000/svg" width="658.513" height="159.611" viewBox="0 0 174.232 42.23"><path fill="#211714" d="M43.29 33.994c.337-.346.768-.518 1.29-.518.7 0 1.212.232 1.535.695a1.5 1.5 0 0 1 .287.784h-.872a1.216 1.216 0 0 0-.215-.455c-.157-.179-.389-.27-.696-.27a.86.86 0 0 0-.741.387c-.181.258-.27.622-.27 1.093s.095.825.285 1.06a.89.89 0 0 0 .725.353c.3 0 .53-.101.687-.302.087-.11.16-.272.218-.49h.872c-.076.457-.267.829-.577 1.115-.309.287-.706.43-1.19.43-.598 0-1.067-.193-1.41-.581-.342-.389-.513-.924-.513-1.603 0-.736.194-1.3.584-1.698m3.621 3.764V33.55h.872v1.604h1.642V33.55h.872v4.207h-.872v-1.872h-1.642v1.872zm4.026-4.208h.896v2.584c0 .29.033.502.102.636.107.235.339.353.697.353.357 0 .588-.118.694-.353.07-.134.104-.346.104-.636v-2.583h.894v2.583c0 .448-.069.796-.208 1.044-.26.456-.754.683-1.484.683s-1.225-.227-1.486-.683c-.139-.248-.21-.596-.21-1.044zm4.028 0h.915l1.673 2.925V33.55h.813v4.207h-.872l-1.716-2.984v2.984h-.813zm6.858 1.317a.818.818 0 0 0-.486-.601 1.19 1.19 0 0 0-.482-.095c-.34 0-.618.128-.834.383-.218.255-.327.638-.327 1.152 0 .515.117.88.353 1.094.236.215.504.323.805.323.295 0 .536-.085.725-.254a1.09 1.09 0 0 0 .348-.664h-.974v-.703h1.76v2.256h-.584l-.093-.525a2.01 2.01 0 0 1-.456.419c-.233.14-.518.21-.857.21-.558 0-1.016-.192-1.373-.578-.37-.386-.556-.915-.556-1.588 0-.68.187-1.225.563-1.635.375-.41.873-.615 1.49-.615.536 0 .967.135 1.293.406.325.272.51.61.559 1.015zm1.928-.873c.338-.346.77-.518 1.291-.518.7 0 1.212.232 1.536.695.177.259.274.52.288.784h-.874a1.195 1.195 0 0 0-.215-.455c-.157-.179-.389-.27-.696-.27a.86.86 0 0 0-.741.387c-.18.258-.27.622-.27 1.093s.095.825.285 1.06a.89.89 0 0 0 .725.353c.301 0 .53-.101.687-.302.087-.11.16-.272.218-.49h.872c-.075.457-.267.829-.577 1.115-.309.287-.706.43-1.19.43-.597 0-1.067-.193-1.41-.581-.342-.389-.513-.924-.513-1.603 0-.736.194-1.3.584-1.698m3.62 3.764V33.55h.873v1.604h1.642V33.55h.873v4.207h-.873v-1.872h-1.642v1.872zm7.097-3.454h-2.181v.888h1.995v.732h-1.995v1.079h2.285v.755h-3.144V33.55h3.04zm3.342 2.436c.207-.256.31-.62.31-1.09 0-.468-.103-.83-.31-1.086-.207-.258-.485-.385-.837-.385-.35 0-.63.127-.84.382-.21.256-.313.618-.313 1.09 0 .47.103.833.313 1.088.21.255.49.384.84.384.352 0 .63-.129.837-.384m.544.647c-.32.328-.78.49-1.383.49-.602 0-1.064-.162-1.382-.49-.429-.401-.643-.98-.643-1.735 0-.772.214-1.35.643-1.737.318-.326.78-.49 1.382-.49.603 0 1.064.164 1.383.49.426.386.638.965.638 1.737 0 .755-.212 1.334-.638 1.735m1.101-3.836h.917l1.673 2.925V33.55h.813v4.207h-.874l-1.716-2.984v2.984h-.813zm6.86 1.317a.82.82 0 0 0-.488-.601 1.191 1.191 0 0 0-.482-.095 1.05 1.05 0 0 0-.834.383c-.217.255-.326.638-.326 1.152 0 .515.117.88.354 1.094.236.215.503.323.805.323.295 0 .536-.085.723-.254a1.09 1.09 0 0 0 .349-.664h-.973v-.703h1.76v2.256h-.585l-.092-.525a2.05 2.05 0 0 1-.457.419c-.233.14-.519.21-.858.21-.558 0-1.015-.192-1.37-.578-.373-.386-.559-.915-.559-1.588 0-.68.188-1.225.564-1.635.376-.41.872-.615 1.49-.615.537 0 .967.135 1.292.406.325.272.513.61.56 1.015zm1.52-1.317h.917l1.673 2.925V33.55h.813v4.207h-.873l-1.715-2.984v2.984h-.815zm5.176 2.618h1.082l-.533-1.655zm.06-2.617h.994l1.493 4.207h-.955l-.276-.857H92.77l-.284.857h-.92zm5.637-.001h1.264v4.208h-.813v-2.844c0-.083 0-.198.002-.345l.003-.34-.805 3.529h-.862l-.8-3.53.003.341.003.345v2.844h-.813V33.55h1.278l.773 3.311zm2.716.732v2.744h.81c.415 0 .704-.204.868-.613.09-.226.134-.493.134-.802 0-.427-.067-.757-.201-.985-.134-.23-.401-.344-.8-.344zm1.61-.64c.294.097.533.275.716.536.148.208.247.432.3.676.054.244.08.477.08.699 0 .558-.111 1.032-.336 1.42-.304.523-.776.785-1.412.785h-1.816V33.55h1.816c.26.002.478.033.652.09m4.267 3.1c.207-.256.31-.62.31-1.09 0-.468-.103-.83-.31-1.086-.206-.258-.485-.385-.836-.385-.352 0-.631.127-.84.382-.21.256-.315.618-.315 1.09 0 .47.105.833.314 1.088.21.255.49.384.84.384.352 0 .63-.129.837-.384m.545.647c-.32.328-.782.49-1.384.49-.603 0-1.064-.162-1.383-.49-.428-.401-.641-.98-.641-1.735 0-.772.213-1.35.64-1.737.32-.326.78-.49 1.384-.49.602 0 1.064.164 1.384.49.424.386.638.965.638 1.737 0 .755-.214 1.334-.638 1.735m5.232-.646c.207-.256.309-.62.309-1.09 0-.468-.102-.83-.309-1.086-.207-.258-.485-.385-.836-.385-.352 0-.632.127-.841.382-.21.256-.314.618-.314 1.09 0 .47.105.833.314 1.088.21.255.49.384.84.384.352 0 .63-.129.837-.384m.543.647c-.318.328-.78.49-1.384.49-.602 0-1.063-.162-1.382-.49-.427-.401-.64-.98-.64-1.735 0-.772.213-1.35.64-1.737.319-.326.78-.49 1.382-.49.604 0 1.066.164 1.384.49.426.386.64.965.64 1.737 0 .755-.214 1.334-.64 1.735m1.101-3.828h3.003v.738h-2.13v.969h1.864v.733h-1.863v1.76h-.874zm3.375 0h3.003v.738h-2.13v.969h1.864v.733h-1.863v1.76h-.874zm4.174 4.2h-.872V33.55h.872zm1.03-3.764c.34-.346.77-.518 1.292-.518.7 0 1.211.232 1.535.695.18.259.274.52.287.784h-.873a1.175 1.175 0 0 0-.215-.455c-.155-.179-.388-.27-.695-.27-.313 0-.56.13-.742.387-.18.258-.27.622-.27 1.093s.095.825.285 1.06c.19.235.433.353.725.353.3 0 .53-.101.688-.302.088-.11.16-.272.218-.49h.872c-.075.457-.267.829-.576 1.115-.31.287-.706.43-1.19.43-.599 0-1.069-.193-1.41-.581-.344-.389-.515-.924-.515-1.603 0-.736.196-1.3.585-1.698m6.69.31h-2.183v.888h1.997v.732h-1.997v1.079h2.286v.755h-3.143V33.55h3.04zm5.234 2.436c.207-.256.309-.62.309-1.09 0-.468-.102-.83-.31-1.086-.206-.258-.484-.385-.836-.385-.35 0-.63.127-.84.382-.21.256-.314.618-.314 1.09 0 .47.104.833.314 1.088.21.255.49.384.84.384.352 0 .63-.129.837-.384m.543.647c-.318.328-.78.49-1.382.49-.604 0-1.064-.162-1.384-.49-.427-.401-.64-.98-.64-1.735 0-.772.213-1.35.64-1.737.32-.326.78-.49 1.384-.49.602 0 1.064.164 1.382.49.426.386.64.965.64 1.737 0 .755-.214 1.334-.64 1.735m1.102-3.828h3.003v.738h-2.13v.969h1.864v.733h-1.864v1.76h-.873zm8.336.746h-2.181v.888h1.996v.732h-1.996v1.079h2.284v.755h-3.143V33.55h3.04zm1.492-.022v2.744h.81c.416 0 .705-.204.868-.613.09-.226.135-.493.135-.802 0-.427-.068-.757-.203-.985-.134-.23-.4-.344-.8-.344zm1.61-.64c.295.097.533.275.717.536.147.208.248.432.3.676.052.244.08.477.08.699 0 .558-.113 1.032-.338 1.42-.304.523-.776.785-1.412.785h-1.815V33.55h1.815c.262.002.478.033.653.09m1.559-.09h.895v2.584c0 .29.035.502.102.636.108.235.34.353.699.353.355 0 .587-.118.693-.353.069-.134.103-.346.103-.636v-2.583h.896v2.583c0 .448-.07.796-.21 1.044-.258.456-.753.683-1.482.683-.73 0-1.227-.227-1.487-.683-.14-.248-.21-.596-.21-1.044zm4.433.444c.339-.346.77-.518 1.292-.518.7 0 1.212.232 1.535.695a1.5 1.5 0 0 1 .287.784h-.872a1.195 1.195 0 0 0-.215-.455c-.157-.179-.389-.27-.696-.27-.313 0-.56.13-.74.387-.182.258-.272.622-.272 1.093s.096.825.286 1.06a.889.889 0 0 0 .725.353c.3 0 .53-.101.687-.302.087-.11.16-.272.218-.49h.872c-.074.457-.267.829-.577 1.115-.309.287-.706.43-1.19.43-.598 0-1.067-.193-1.41-.581-.342-.389-.513-.924-.513-1.603 0-.736.194-1.3.583-1.698m4.77 2.174h1.08l-.531-1.655zm.06-2.617h.993l1.494 4.207h-.955l-.277-.857h-1.557l-.284.857h-.92zm5.464-.001v.746h-1.267v3.462h-.886v-3.462h-1.265v-.745zm1.096 4.208h-.873V33.55h.872zm3.331-1.018c.207-.256.31-.62.31-1.09 0-.468-.103-.83-.31-1.086-.205-.258-.483-.385-.836-.385-.35 0-.631.127-.84.382-.209.256-.314.618-.314 1.09 0 .47.105.833.313 1.088.21.255.49.384.84.384.354 0 .632-.129.837-.384m.545.647c-.319.328-.78.49-1.384.49-.603 0-1.064-.162-1.382-.49-.427-.401-.64-.98-.64-1.735 0-.772.213-1.35.64-1.737.318-.326.779-.49 1.382-.49.604 0 1.065.164 1.384.49.425.386.639.965.639 1.737 0 .755-.214 1.334-.64 1.735m1.102-3.836h.916l1.673 2.925V33.55h.813v4.207h-.874l-1.714-2.984v2.984h-.814zm0 0"/><path fill="#e6280f" d="M29.207 1.831C28.358.002 25.665-.549 23.19.599c-2.477 1.147-3.799 3.56-2.953 5.387.85 1.827 3.545 2.38 6.02 1.232 2.476-1.147 3.797-3.56 2.95-5.387"/><path fill="#004799" d="M22.463 37.885c.861-.308-2.149 1.131-2.922 1.539-2.38 1.247-5.239 1.926-7.445 2.399-4.413.941-8.216.273-10.363-2.227-4.293-5.002-.336-15.437 8.837-23.312 4.586-3.936 9.608-6.487 14.02-7.428 2.207-.472 4.261-.539 6.03-.179 0 0 4.96.827 2.542 6.908 0 0-6.302 13.702-24.028 21.26 0 0 11.37-7.976 16.855-17.93 0 0 4.353-7.175-2.307-7.045 0 0-2.831-.02-7.212 2.533-3.863 2.118-8.737 5.986-11.393 12.674 0 0-4.576 10.92 8.102 12.074 0 0 4.583.413 9.284-1.266"/><path fill="#0f9e33" d="M32.521 18.767c-.71 1.058-2.097 3.079-3.493 4.837 1.62.13 3.216.565 2.078 3.73 0 0-1.877 4.86-7.356 9.778 0 0 9.256-5.387 12.577-12.469 0 0 3.871-7.48-3.806-5.876"/><path fill="#211714" d="M76.938 17.404h-3.43v-1.728h3.43zm-10.28-3.31s-.36 3.91-4.641 5.56l1.114 1.427s5.063-1.564 5.861-6.696zm0 0"/><path fill="#211714" d="M69.39 14.094s.362 3.91 4.642 5.56l-1.115 1.427s-5.062-1.564-5.86-6.696zm-.092-.675h-2.59v-1.925h2.59zm0 0"/><path fill="#211714" d="M73.616 13.634a.857.857 0 0 1-.858.857h-9.527a.858.858 0 0 1 0-1.714h9.527c.474 0 .858.381.858.857m4.379 12.544c0 .666-.539.386-1.204.386a1.205 1.205 0 0 1-1.205-1.204V12.693a1.206 1.206 0 0 1 2.409 0zm0 0"/><path fill="#211714" d="M71.01 23.33c-2.404 0-4.352 1.22-4.352 2.726s1.948 2.727 4.352 2.727c2.404 0 4.353-1.221 4.353-2.727 0-1.507-1.949-2.726-4.353-2.726m6.984 2.726c0 2.386-3.127 4.321-6.984 4.321-3.856 0-6.983-1.935-6.983-4.321 0-2.387 3.127-4.322 6.983-4.322 3.857 0 6.984 1.935 6.984 4.322m95.181-8.652h-3.429v-1.728h3.429zm-10.279-3.31s-.361 3.91-4.643 5.56l1.117 1.427s5.061-1.564 5.859-6.696zm0 0"/><path fill="#211714" d="M165.629 14.094s.36 3.91 4.64 5.56l-1.115 1.427s-5.062-1.564-5.86-6.696zm-.094-.675h-2.59v-1.925h2.59zm0 0"/><path fill="#211714" d="M169.852 13.634a.857.857 0 0 1-.857.857h-9.528a.858.858 0 0 1 0-1.714h9.528c.474 0 .857.381.857.857m4.38 12.544c0 .666-.54.386-1.203.386a1.205 1.205 0 0 1-1.206-1.204V12.693a1.204 1.204 0 1 1 2.409 0zm0 0"/><path fill="#211714" d="M167.248 23.33c-2.405 0-4.353 1.22-4.353 2.726s1.948 2.727 4.353 2.727c2.403 0 4.352-1.221 4.352-2.727 0-1.507-1.949-2.726-4.352-2.726m6.982 2.726c0 2.386-3.126 4.321-6.982 4.321-3.857 0-6.984-1.935-6.984-4.321 0-2.387 3.127-4.322 6.984-4.322 3.856 0 6.982 1.935 6.982 4.322m-75.598-9.199h-3.428v-1.73h3.428zm-2.7 12.34a.858.858 0 0 1-.858.859H84.222a.857.857 0 0 1 0-1.714h10.852c.473 0 .858.383.858.855m-3.592-9.593a.858.858 0 0 1-.858.855h-8.406a.857.857 0 1 1 0-1.714h8.406c.473 0 .858.383.858.859"/><path fill="#211714" d="M96.439 21.523v-8.83a1.205 1.205 0 0 0-2.41 0v8.83zm0 8.53v-6.558c0-.495-.54-.897-1.205-.897s-1.204.402-1.204.897v6.558zm-12.622-10.93v-6.005a1.206 1.206 0 0 0-2.41 0v6.005zm0 0"/><path fill="#211714" d="M90.842 18.74h1.689s1.165-.014 1.746-.764l.187 1.422s-1.08 1.137-3.507 1.061m5.486 3.689h-13.78v-1.605h13.78zm-12.11-5.145a1.457 1.457 0 0 1-2.914 0"/><path fill="#211714" d="M84.575 18.727a.762.762 0 0 1-.762-.762l-.623.232.024 1.06 1.269.14zm1.26 9.615a.763.763 0 0 1-.762-.762l-.623.231.022 1.061 1.27.14zm0 0"/><path fill="#211714" d="M85.071 28.694v-6.151h-2.409v6.106zm0 0"/><path fill="#211714" d="M82.664 28.588a1.456 1.456 0 1 0 2.913 0l-1.615-.39zm34.878-3.648a.856.856 0 0 1-.857.856H101.05a.857.857 0 0 1 0-1.712h15.635c.474 0 .857.381.857.855m-1.37-12.159a.857.857 0 0 1-.858.858h-12.44a.857.857 0 1 1 0-1.716h12.44c.474 0 .858.385.858.859m0 6.3c0 .474-.37.859-.827.859H103.37c-.455 0-.826-.385-.826-.859 0-.472.371-.857.826-.857h11.976c.456 0 .827.385.827.857"/><path fill="#211714" d="M110.103 25.146v-2.888c0-.666-.552-1.206-1.233-1.206a1.22 1.22 0 0 0-1.233 1.206v2.888zm-5.202-6.915a.762.762 0 0 1-.763-.762l-.624.231.024 1.063 1.27.14zm0 0"/><path fill="#211714" d="M101.732 18.47a1.457 1.457 0 1 0 2.913 0l-1.614-.39zm0 0"/><path fill="#211714" d="M104.143 18.786V11.93h-2.409v6.59zm32.846 6.207a.856.856 0 0 1-.857.857h-15.53a.857.857 0 1 1 0-1.713h15.53c.472 0 .857.385.857.856"/><path fill="#211714" d="M130.7 24.173v-4.625a1.206 1.206 0 0 0-2.41 0v4.625zm-4.813 0v-4.625a1.205 1.205 0 1 0-2.408 0v4.625zm7.207-4.846v2.508s-.115 1.967-.888 2.586l1.765-.204s1.519-1.072 1.519-4.892zm-.784-5.695c.422 0 .762.342.762.763l.623-.232-.022-1.061-1.27-.14zm0 0"/><path fill="#211714" d="M135.488 13.384a1.457 1.457 0 0 0-2.913 0l1.615.39zm0 0"/><path fill="#211714" d="M133.08 13.44v5.965h2.41v-6.02zm0 0"/><path fill="#211714" d="M134.065 11.922h-12.061a.858.858 0 0 0 0 1.716h12.06zm22.311 9.248a.857.857 0 0 1-.857.857H139.99a.857.857 0 1 1 0-1.714h15.53c.472 0 .856.383.856.857m-8.566-8.377c-2.406 0-4.355 1.15-4.355 2.568 0 1.416 1.95 2.567 4.354 2.567 2.405 0 4.353-1.15 4.353-2.567 0-1.417-1.948-2.568-4.353-2.568m6.985 2.568c0 2.246-3.126 4.069-6.985 4.069-3.858 0-6.985-1.823-6.985-4.07 0-2.246 3.127-4.067 6.985-4.067 3.859 0 6.985 1.821 6.985 4.068"/><path fill="#211714" d="M146.147 24.826v-3.202a1.205 1.205 0 0 0-2.409 0v3.202zm5.969 0v-3.202a1.204 1.204 0 1 0-2.408 0v3.202zm-.176.835c.42 0 .761.342.761.762l.624-.23-.023-1.064-1.27-.137zm0 0"/><path fill="#211714" d="M155.1 25.389c0-.807-.651-1.457-1.456-1.457-.804 0-1.327.65-1.327 1.457l1.485.39zm0 0"/><path fill="#211714" d="M152.696 30.038h2.41v-4.669h-2.41zm0 0"/><path fill="#211714" d="M153.601 23.937H141.27a.857.857 0 0 0 0 1.716h12.332zM52.21 13.419h-2.638v-1.925h2.639zm0 9.623h-2.638v-1.925h2.639zm0 0"/><path fill="#211714" d="M58.34 13.634a.87.87 0 0 1-.882.857H44.35a.87.87 0 0 1-.882-.857c0-.476.396-.857.882-.857h13.108c.487 0 .882.381.882.857m1.243 7.305a.86.86 0 0 1-.857.858H43.09a.858.858 0 0 1 0-1.717h15.635c.473 0 .857.385.857.859"/><path fill="#211714" d="M52.172 13.037s.248 5.946-8.595 5.946l-.671-1.514s7.093.04 6.648-4.67zm0 0"/><path fill="#211714" d="M49.682 13.037s-.247 5.946 8.595 5.946l.672-1.514s-7.094.04-6.649-4.67zm1.247 11.029c-2.472 0-4.475 1.076-4.475 2.403s2.003 2.403 4.475 2.403c2.47 0 4.473-1.076 4.473-2.403s-2.004-2.403-4.473-2.403m7.233 2.406c0 2.107-3.238 3.817-7.233 3.817-3.996 0-7.235-1.71-7.235-3.817 0-2.109 3.239-3.816 7.235-3.816 3.995 0 7.233 1.707 7.233 3.816"/></svg>