<?xml version="1.0" encoding="utf-8"?>
<!-- Generator: Adobe Illustrator 27.5.0, SVG Export Plug-In . SVG Version: 6.00 Build 0)  -->
<svg version="1.1" id="레이어_1" xmlns="http://www.w3.org/2000/svg" xmlns:xlink="http://www.w3.org/1999/xlink" x="0px"
	 y="0px" viewBox="0 0 236.3 229.1" style="enable-background:new 0 0 236.3 229.1;" xml:space="preserve">
<style type="text/css">
	.st0{fill:#2E4018;}
</style>
<g>
	<path class="st0" d="M81.6,79.5c0,22.9,0,45.3,0,67.9c0.9,0.1,1.6,0.2,2.3,0.2c9.7,0,19.3,0,29,0.1c2.2,0,2.9-0.6,2.8-2.9
		c-0.2-3.7-0.1-7.3,0-11c0.1-2.1-0.7-2.7-2.7-2.7c-4.4,0.1-8.8,0.1-13.2,0c-3.7,0-6.1-1.6-6.1-4.2c-0.1-2.6,2.2-4.2,6-4.2
		c4.1,0,8.2-0.1,12.2-0.1c3.9,0,3.9,0,3.8-3.7c0-5,0-10,0-15c0-0.9,0.1-1.8,0.3-2.7c0.5-2,2-3.2,3.8-2.9c1.3,0.2,2.8,1.3,3.6,2.5
		c0.7,0.9,0.7,2.4,0.7,3.6c0,15.2,0,30.5,0,45.7c0,3.8-1.7,5.6-5.6,5.6c-13.3,0-26.7,0-40,0c-4.1,0-5.3-1.2-5.3-5.4
		c0-14.2,0-28.3,0-42.5c0-8.6-0.1-17.2,0-25.7c0-1.9-0.5-2.6-2.5-2.6c-8.2,0.1-16.5,0.1-24.7,0c-2,0-3.8-0.6-4.4-2.6
		c-0.3-1.2-0.1-3.1,0.6-3.9c1-1,2.7-1.6,4.2-1.6c9.8-0.1,19.7-0.1,29.5-0.1c7.7,0,15.3,0,23-0.1c0.8,0,1.6-0.1,2.8-0.2
		c-0.6-1.2-0.9-2-1.3-2.7C92.9,56.1,85.3,44,77.8,31.8c-2.2-3.5-2.2-3.5-5.8-1.8C51.6,39.4,35.6,53.6,24,72.7
		C15.3,87,10.3,102.6,8.8,119.3c-1.7,18.8,0.7,37,8.5,54.2c3.4,7.5,8.1,14.3,12.2,21.4c0.8,1.4,2,1.8,3.5,1.8
		c15.9,0,31.8,0.1,47.7,0.1c18.8,0,37.7,0,56.5,0c3.4,0,3.4,0,3.4-3.4c0-3.2-0.1-6.5,0-9.7c0-1.7-0.6-2.3-2.3-2.3
		c-5.3,0.1-10.7,0-16,0c-1.2,0-2.5-0.2-3.7-0.6c-1.9-0.7-2.9-2.3-2.6-4.3c0.3-2,1.7-3.2,3.7-3.4c1.3-0.1,2.7,0,4,0
		c14.5,0,29,0,43.5,0c0.5,0,1,0,1.5,0c2.7,0.2,4.4,1.6,4.5,3.8c0.2,2.2-1.2,4.1-3.9,4.4c-3.2,0.3-6.5,0.2-9.7,0.2
		c-2.9,0-5.8,0.1-8.7,0c-1.6,0-2.3,0.5-2.2,2.2c0.1,3.6,0.1,7.2,0,10.7c-0.1,2,0.7,2.6,2.6,2.6c5.6-0.1,11.2-0.1,16.7,0
		c1.3,0,3,0.4,3.9,1.3c0.8,0.8,1.5,2.8,1.1,3.7c-0.6,1.3-2.1,2.7-3.4,3c-2.3,0.5-4.8,0.2-7.2,0.3c-1.1,0-2.3,0.1-3.7,0.2
		c0,4.7-0.1,9.2,0.1,13.7c0,0.5,1.1,1.4,1.7,1.4c6.3,0.1,12.7,0.1,19,0c0.9,0,1.9-0.5,2.7-1.1c11.3-8,20.6-17.8,28.1-29.4
		c9.8-15.1,15.5-31.6,17.2-49.5c2-21.4-1.8-41.7-11.7-60.9c-11-21.4-27.3-37.6-48.8-48.3c-7.7-3.8-5.7-4.5-10.2,2.9
		c-7.1,11.3-14,22.6-21,34c-1.8,2.9-1.6,3.2,1.9,3.2c17.4,0,34.8,0,52.2,0.1c1.5,0,3.4,1.1,4.2,2.3c0.6,0.9,0.3,3.1-0.5,4
		c-0.9,1-2.7,1.6-4.1,1.7c-8,0.2-16,0.2-24,0c-2.4,0-2.9,0.8-2.9,3c0.1,6.8,0.1,13.7,0,20.5c0,3.3-1.6,5.3-4,5.3
		c-2.3,0-4.1-2.3-4.1-5.4c0-6.9-0.1-13.8,0-20.7c0-2.1-0.7-2.7-2.7-2.7c-7.9,0.1-15.8,0-23.7,0.1c-2.2,0-4-0.5-5.1-2.5
		c-1.1-1.9-0.1-3.5,0.8-5.1c9.9-16,19.8-32,29.8-47.9c0.3-0.5,0.6-1,0.9-1.5c1.7-3.1,3.7-3.9,7-2.5c14.3,5.7,27,13.8,38,24.5
		c19.1,18.5,31.1,40.9,35.3,67.3c4.3,26.8-0.6,52.1-13.6,75.7c-8.9,16.2-21.2,29.6-36.7,39.9c-1.5,1-3.5,1.6-5.3,1.6
		c-18.8,0.1-37.7,0.1-56.5,0.1c-1,0-2,0-3-0.2c-2.3-0.3-3.7-1.6-3.7-4c0-2.4,1.5-3.7,3.7-4.1c2.1-0.3,4.3-0.2,6.5-0.2
		c4.9-0.1,4.6,0.8,4.6-4.5c0-3.5,0-7,0-10.7c-1.3-0.1-2.5-0.2-3.6-0.2c-31.6,0-63.2,0-94.7,0.1c-3.7,0-6.1-1.2-8.4-4.2
		c-13-17.3-20.9-36.7-23.2-58.2c-2.3-21.3,1-41.8,9.7-61.4C17,66.7,26.3,53.9,38.1,43c10.8-9.9,23-17.5,36.6-23
		c3.2-1.3,4.7-0.7,6.8,2.7c6.6,10.6,13.2,21.2,19.7,31.8c3.6,5.7,7.1,11.5,10.7,17.2c1,1.6,2.1,3.2,1,5.3c-1.2,2.2-3.1,2.5-5.3,2.5
		c-7.4,0-14.8,0-22.2,0C84.2,79.5,83.1,79.5,81.6,79.5z M150.2,212.8c0-2,0.1-4-0.1-6c-0.1-0.6-1-1.5-1.5-1.6
		c-2.6-0.2-5.2-0.2-7.7,0c-0.6,0.1-1.7,1.1-1.7,1.7c-0.2,3.8-0.1,7.6-0.1,11.5c0,1.5,0.5,2.1,2.1,2.1c2.2-0.1,4.5-0.1,6.7,0
		c1.9,0.1,2.5-0.7,2.4-2.5C150.1,216.3,150.2,214.6,150.2,212.8z"/>
	<path class="st0" d="M55.4,190.9c-5.7,0-11.5-0.2-17.2,0.1c-3.7,0.2-6-1.3-8-4.3c-6.3-9.4-10-19.9-12.6-30.8
		c-2.8-11.9-4.2-24-3.4-36.2c1.3-19.6,7.8-37.4,19.6-53.2c9.7-13,21.8-23.1,36.8-29.3c0.4-0.2,0.8-0.3,1.2-0.5
		c1.6-0.6,3.1-0.1,3.3,1.5c0.2,0.9-0.6,2.4-1.4,2.9c-2.6,1.6-5.6,2.6-8.3,4.1c-11.7,6.3-21.1,15.2-28.7,26.1
		c-8.2,11.6-13.5,24.4-16,38.4c-2,11.2-1.7,22.4-0.1,33.6c1.7,12.4,4.9,24.3,10.7,35.5c2.2,4.4,4.7,7,10.4,6.7
		c10.9-0.6,21.8-0.2,32.7-0.2c2.1,0,4.2,0,4.7,2.6c0.3,1.8-1.6,2.9-4.6,2.9C68.1,190.9,61.7,190.9,55.4,190.9z"/>
	<path class="st0" d="M146.1,138.6c2-3.2,4.1-6.4,6.1-9.6c2.6-4.4,5.9-4.5,8.5-0.2c7.7,12.5,15.4,24.9,23.1,37.4
		c1.8,2.9,1.9,4.4,0.2,6.1c-2.1,2.1-4.5,1.9-6.3-0.8c-2.7-4.2-5.3-8.5-7.9-12.7c-4.1-6.6-8.2-13.1-12.3-19.7c-0.2-0.3-0.5-0.6-1-1.3
		c-1,1.5-2,2.7-2.8,4c-2.9,4.6-5.8,9.3-8.7,14c-1.1,1.8-2.5,3.6-5,2.9c-2.5-0.7-3.3-2.8-3.3-5.3c0-16.4,0-32.8,0-49.2
		c0-0.2,0-0.5,0-0.7c0.2-3.2,1.9-5.2,4.3-5.1c2.5,0.1,4.1,2,4.1,5.3c0,10.7,0,21.5,0,32.2c0,0.9,0.1,1.7,0.2,2.6
		C145.6,138.4,145.8,138.5,146.1,138.6z"/>
	<path class="st0" d="M117.7,0c8.6,0.1,15.6,7.2,15.4,15.7C133,23.8,125.6,31,117.4,31c-8,0-15.4-7.7-15.2-15.9
		C102.3,6.9,109.5-0.1,117.7,0z M124.6,15.4c0-3.9-3-6.9-6.9-6.9c-3.9,0-7.1,3-7.1,6.8c0,3.8,3.3,7.2,7.1,7.1
		C121.5,22.4,124.6,19.2,124.6,15.4z"/>
</g>
</svg>
