<?xml version="1.0" encoding="utf-8"?>
<!-- Generator: Adobe Illustrator 27.0.1, SVG Export Plug-In . SVG Version: 6.00 Build 0)  -->
<svg version="1.1" id="레이어_1" xmlns="http://www.w3.org/2000/svg" xmlns:xlink="http://www.w3.org/1999/xlink" x="0px"
	 y="0px" viewBox="0 0 241.4 65" style="enable-background:new 0 0 241.4 65;" xml:space="preserve">
<style type="text/css">
	.st0{fill:#3E6870;}
	.st1{fill:#385B62;}
	.st2{fill:#386FAE;}
	.st3{fill:#31629A;}
	.st4{fill:#B18B67;}
	.st5{fill:#7B6249;}
	.st6{fill:#BF661B;}
	.st7{fill:#854919;}
	.st8{fill:#C78140;}
	.st9{fill:#8B5A2E;}
	.st10{fill:#9F591C;}
	.st11{fill:#704019;}
	.st12{fill:#87592F;}
	.st13{fill:#604023;}
	.st14{fill:#604434;}
	.st15{fill:#070203;}
	.st16{fill:#DB9E00;}
	.st17{enable-background:new    ;}
	.st18{fill:#ABABAB;}
	.st19{fill:#1A1311;}
</style>
<g id="logo" transform="translate(-330.072 -331.235)">
	<g id="사각형_4259">
		<rect x="330.1" y="362.8" class="st0" width="38.7" height="7.9"/>
	</g>
	<g id="사각형_4260">
		<rect x="330.1" y="362.8" class="st1" width="38.7" height="1.6"/>
	</g>
	<g id="사각형_4261">
		<rect x="373.6" y="362.8" class="st2" width="38.7" height="7.9"/>
	</g>
	<g id="사각형_4262">
		<rect x="373.6" y="362.8" class="st3" width="38.7" height="1.6"/>
	</g>
	<g id="사각형_4263">
		<rect x="335.3" y="375.6" class="st4" width="8" height="20.7"/>
	</g>
	<g id="사각형_4264">
		<rect x="335.3" y="394.6" class="st5" width="8" height="1.6"/>
	</g>
	<g id="사각형_4265">
		<rect x="348" y="375.6" class="st6" width="8" height="20.7"/>
	</g>
	<g id="사각형_4266">
		<rect x="348" y="394.6" class="st7" width="8" height="1.6"/>
	</g>
	<g id="사각형_4267">
		<rect x="360.7" y="375.6" class="st8" width="8" height="20.7"/>
	</g>
	<g id="사각형_4268">
		<rect x="360.7" y="394.6" class="st9" width="8" height="1.6"/>
	</g>
	<g id="사각형_4269">
		<rect x="373.4" y="375.6" class="st10" width="8" height="20.7"/>
	</g>
	<g id="사각형_4270">
		<rect x="373.4" y="394.6" class="st11" width="8" height="1.6"/>
	</g>
	<g id="사각형_4271">
		<rect x="386.1" y="375.6" class="st12" width="8" height="20.7"/>
	</g>
	<g id="사각형_4272">
		<rect x="386.1" y="394.6" class="st13" width="8" height="1.6"/>
	</g>
	<g id="사각형_4273">
		<rect x="398.8" y="375.6" class="st14" width="8" height="20.7"/>
	</g>
	<g id="사각형_4274">
		<rect x="398.8" y="394.6" class="st15" width="8" height="1.6"/>
	</g>
	<g id="패스_24537">
		<path class="st16" d="M383.6,349.4c0,9.2-6.4,9.9-12.3,9.9s-12.3-0.7-12.3-9.9c0-5,5.2-11,8.5-14.1c1.4-1.2,2.7-2.6,3.8-4.1
			c1.1,1.5,2.3,2.9,3.8,4.1C378.4,338.4,383.6,344.4,383.6,349.4z"/>
	</g>
	<g class="st17">
		<path class="st18" d="M439.7,350.1C439.6,350,439.6,350,439.7,350.1c-0.1-0.1-0.1,0-0.1,0.1v3.4h-1.2v-8.1h1.2v3
			c0,0.1,0,0.1,0,0.1c0,0,0,0,0,0l3.5-3.3l0.7,0.8l-3.3,3c-0.1,0-0.1,0.1-0.1,0.1c0,0,0,0.1,0.1,0.1l3.5,3.5l-0.8,0.8L439.7,350.1z"
			/>
		<path class="st18" d="M445.8,352.3c-0.6-0.8-0.9-1.7-0.9-2.8s0.3-2,0.9-2.8c0.6-0.8,1.5-1.3,2.6-1.3c1.1,0,2,0.4,2.6,1.3
			c0.6,0.8,0.9,1.7,0.9,2.8s-0.3,2-0.9,2.8c-0.7,0.9-1.5,1.3-2.6,1.3C447.3,353.6,446.5,353.2,445.8,352.3z M446.7,347.4
			c-0.3,0.5-0.5,1.2-0.5,2.1s0.2,1.5,0.5,2.1c0.4,0.6,1,1,1.7,1c0.8,0,1.3-0.3,1.7-1c0.3-0.5,0.5-1.2,0.5-2.1c0-0.8-0.2-1.5-0.5-2.1
			c-0.4-0.6-1-1-1.7-1C447.7,346.5,447.1,346.8,446.7,347.4z"/>
		<path class="st18" d="M458.6,353.5c-0.1-0.1-0.2-0.2-0.4-0.4l-3.7-5.4v5.9h-1.2v-7.5c0-0.2,0-0.4,0.1-0.5c0.1-0.1,0.2-0.2,0.4-0.2
			c0.2,0,0.3,0,0.4,0.1c0.1,0.1,0.2,0.2,0.4,0.4l3.7,5.4v-5.9h1.2v7.4c0,0.2,0,0.4-0.1,0.5c-0.1,0.1-0.2,0.2-0.4,0.2
			C458.9,353.6,458.7,353.5,458.6,353.5z"/>
		<path class="st18" d="M461.8,352.3c-0.6-0.8-0.9-1.7-0.9-2.8c0-1.1,0.3-2.1,0.9-2.8c0.7-0.8,1.6-1.3,2.8-1.3
			c0.6,0,1.1,0.1,1.6,0.3c0.4,0.2,0.8,0.4,1.1,0.8l-0.8,0.8l-0.2-0.1c-0.1-0.1-0.2-0.2-0.3-0.2c-0.1-0.1-0.2-0.1-0.3-0.2
			c-0.2-0.1-0.4-0.2-0.6-0.2c-0.2-0.1-0.5-0.1-0.7-0.1c-0.8,0-1.4,0.3-1.8,1c-0.4,0.6-0.6,1.2-0.6,2.1c0,0.8,0.2,1.5,0.5,2.1
			c0.4,0.6,1,1,1.8,1c0.7,0,1.2-0.2,1.6-0.8c0.4-0.4,0.5-0.9,0.5-1.5v-0.4H465v-1.1h2.1c0.3,0,0.5,0.1,0.6,0.2
			c0.1,0.1,0.2,0.4,0.2,0.7c0,1.1-0.2,2-0.7,2.6c-0.6,0.8-1.5,1.2-2.7,1.2C463.4,353.6,462.5,353.2,461.8,352.3z"/>
		<path class="st18" d="M469.1,353.4c-0.4-0.2-0.6-0.4-0.9-0.8l0.7-0.7l0.1,0.1c0.2,0.2,0.3,0.3,0.4,0.3c0.2,0.1,0.4,0.1,0.6,0.1
			c0.2,0,0.4-0.1,0.6-0.3c0.1-0.2,0.2-0.4,0.2-0.7v-6.1h1.2v5.9c0,0.7-0.2,1.2-0.5,1.6c-0.3,0.4-0.8,0.6-1.5,0.6
			C469.7,353.6,469.4,353.5,469.1,353.4z"/>
		<path class="st18" d="M474.7,353c-0.7-0.5-1-1.4-1-2.6v-4.8h1.2v5.2c0,0.6,0.2,1,0.5,1.3c0.4,0.3,0.8,0.5,1.4,0.5
			c0.6,0,1-0.2,1.4-0.5c0.4-0.3,0.5-0.8,0.5-1.3v-5.2h1.2v4.8c0,1.2-0.4,2.1-1.1,2.6c-0.5,0.4-1.2,0.6-2.1,0.6
			C475.9,353.6,475.2,353.4,474.7,353z"/>
		<path class="st18" d="M486.6,350h-3.8v3.6h-1.2v-8.1h1.2v3.5h3.8v-3.5h1.2v8.1h-1.2V350z"/>
		<path class="st18" d="M494.1,352.1c-0.1-0.1-0.1-0.2-0.2-0.3c0,0-0.1,0-0.2,0h-2.9c-0.1,0-0.2,0-0.2,0c0,0-0.1,0.1-0.1,0.3
			l-0.5,1.4h-1.2l2.8-7.4c0.1-0.2,0.2-0.4,0.3-0.5c0.1-0.1,0.3-0.2,0.5-0.2c0.2,0,0.4,0.1,0.5,0.2c0.1,0.1,0.2,0.3,0.3,0.5l2.8,7.4
			h-1.2L494.1,352.1z M491,350.5c0,0.1,0,0.1,0,0.2c0,0,0.1,0,0.1,0h2.3c0.1,0,0.1,0,0.1,0c0,0,0-0.1,0-0.2l-1.3-3.6L491,350.5z"/>
		<path class="st18" d="M498,350.1C498,350,497.9,350,498,350.1c-0.1-0.1-0.1,0-0.1,0.1v3.4h-1.2v-8.1h1.2v3c0,0.1,0,0.1,0,0.1
			c0,0,0,0,0,0l3.5-3.3l0.7,0.8l-3.3,3c-0.1,0-0.1,0.1-0.1,0.1c0,0,0,0.1,0.1,0.1l3.5,3.5l-0.8,0.8L498,350.1z"/>
		<path class="st18" d="M512.2,352.1c-0.1-0.1-0.1-0.2-0.2-0.3c0,0-0.1,0-0.2,0h-2.9c-0.1,0-0.2,0-0.2,0c0,0-0.1,0.1-0.1,0.3
			l-0.5,1.4h-1.2l2.8-7.4c0.1-0.2,0.2-0.4,0.3-0.5c0.1-0.1,0.3-0.2,0.5-0.2c0.2,0,0.4,0.1,0.5,0.2c0.1,0.1,0.2,0.3,0.3,0.5l2.8,7.4
			h-1.2L512.2,352.1z M509.1,350.5c0,0.1,0,0.1,0,0.2c0,0,0.1,0,0.1,0h2.3c0.1,0,0.1,0,0.1,0c0,0,0-0.1,0-0.2l-1.3-3.6L509.1,350.5z
			"/>
		<path class="st18" d="M516.2,350.4c-0.1-0.1-0.1-0.1-0.2-0.1c0,0,0,0,0,0.1v3.2h-1.2v-7.4c0-0.2,0-0.4,0.1-0.5
			c0.1-0.1,0.3-0.2,0.5-0.2h1.8c0.6,0,1.2,0.2,1.7,0.6c0.5,0.4,0.8,1,0.8,1.6c0,0.8-0.2,1.4-0.7,1.8c-0.4,0.4-0.9,0.5-1.5,0.6
			c-0.1,0-0.1,0-0.1,0c0,0,0,0.1,0,0.1l2.5,2.8l-0.8,0.7L516.2,350.4z M516.3,346.5c-0.2,0-0.2,0-0.3,0c0,0,0,0.1,0,0.3v1.9
			c0,0.2,0,0.2,0,0.3c0,0,0.1,0,0.3,0h0.9c0.5,0,0.8-0.1,1-0.3s0.3-0.5,0.3-1c0-0.4-0.1-0.6-0.4-0.9c-0.2-0.2-0.6-0.4-1-0.4H516.3z"
			/>
		<path class="st18" d="M521.5,352.3c-0.6-0.8-0.9-1.7-0.9-2.8s0.3-2,0.9-2.8c0.7-0.8,1.5-1.3,2.7-1.3c0.6,0,1.1,0.1,1.5,0.3
			c0.4,0.2,0.7,0.5,0.9,0.8l-0.8,0.6l-0.2-0.2c-0.1-0.1-0.2-0.1-0.2-0.2c-0.1-0.1-0.2-0.1-0.2-0.2c-0.1-0.1-0.3-0.1-0.4-0.2
			c-0.2,0-0.4-0.1-0.6-0.1c-0.8,0-1.3,0.3-1.8,1c-0.4,0.6-0.5,1.2-0.5,2.1c0,0.8,0.2,1.5,0.5,2.1c0.4,0.6,1,1,1.7,1
			c0.4,0,0.7-0.1,1.1-0.2c0.2-0.1,0.6-0.3,0.9-0.6l0.5,0.9c-0.3,0.3-0.6,0.5-1.1,0.7c-0.5,0.2-0.9,0.3-1.5,0.3
			C523.1,353.6,522.2,353.2,521.5,352.3z"/>
		<path class="st18" d="M533.1,350h-3.8v3.6H528v-8.1h1.2v3.5h3.8v-3.5h1.2v8.1h-1.2V350z"/>
		<path class="st18" d="M535.9,353.6v-8.1h1.2v8.1H535.9z"/>
		<path class="st18" d="M541.6,353.4c-0.1,0.1-0.3,0.2-0.4,0.2c-0.2,0-0.3-0.1-0.4-0.2c-0.1-0.1-0.2-0.2-0.2-0.4l-2.6-7.3l1.1-0.4
			l2.1,6.2l2.1-6.2l1.1,0.4l-2.6,7.3C541.8,353.2,541.7,353.3,541.6,353.4z"/>
		<path class="st18" d="M545.4,353.3c-0.1-0.1-0.1-0.3-0.1-0.4v-6.8c0-0.2,0-0.4,0.1-0.5c0.1-0.1,0.3-0.2,0.5-0.2h3.2v1.1h-2.3
			c-0.2,0-0.3,0-0.3,0c0,0,0,0.1,0,0.3v1.7c0,0.2,0,0.3,0,0.3s0.1,0,0.3,0h2.1v1.1h-2.1c-0.1,0-0.2,0-0.3,0s0,0.1,0,0.3v1.7
			c0,0.1,0,0.2,0,0.3s0.1,0,0.3,0h2.3v1.1h-3.2C545.7,353.5,545.5,353.5,545.4,353.3z"/>
	</g>
	<g class="st17">
		<path class="st19" d="M430,369.4c-0.5,0-0.8-0.3-0.8-0.9s0.3-0.9,0.8-0.9h11c0.7,0,1.1,0.4,1.1,1.3c0,1.5-0.1,3-0.3,4.7
			c-0.2,1.5-0.4,2.8-0.7,3.8h4c0.6,0,0.9,0.3,0.9,0.9c0,0.6-0.3,0.9-0.9,0.9h-18.3c-0.5,0-0.8-0.3-0.8-0.9c0-0.6,0.3-0.9,0.8-0.9
			h7.2V375c0-0.4,0-0.7-0.1-0.9c-0.1-0.1-0.3-0.3-0.6-0.4c-0.3-0.1-0.6-0.2-0.8-0.3s-0.3-0.3-0.3-0.5c0-0.4,0.3-0.6,0.9-0.6h1.9
			c0.7,0,1.1,0.4,1.1,1.2v3.9h3.2c0.2-1.7,0.3-2.9,0.3-3.5c0-0.6,0-2.1,0-4.5H430z M430.5,386c0-1.4,0.5-2.5,1.6-3.5
			c1.1-1,2.4-1.4,3.9-1.4c1.5,0,2.8,0.5,3.9,1.4c1.1,1,1.6,2.1,1.6,3.5c0,1.4-0.5,2.5-1.6,3.5s-2.4,1.4-3.9,1.4
			c-1.5,0-2.8-0.5-3.9-1.4S430.5,387.4,430.5,386z M432.7,386c0,0.8,0.3,1.5,0.9,2.1c0.6,0.6,1.4,0.9,2.3,0.9s1.7-0.3,2.3-0.9
			c0.6-0.6,0.9-1.3,0.9-2.1s-0.3-1.5-0.9-2.1c-0.6-0.6-1.4-0.9-2.3-0.9s-1.7,0.3-2.3,0.9C433,384.5,432.7,385.2,432.7,386z"/>
		<path class="st19" d="M457.9,381.4v6.5c0,1.7-0.5,2.5-1.6,2.5h-0.6v-9h-8.1c-0.5,0-0.8-0.3-0.8-0.9c0-0.6,0.3-0.9,0.8-0.9h18.3
			c0.6,0,0.9,0.3,0.9,0.9c0,0.6-0.3,0.9-0.9,0.9H457.9z M451.2,369.8c-0.5,0-0.8-0.3-0.8-0.9c0-0.6,0.3-0.9,0.8-0.9h9.1
			c0.7,0,1.2,0.2,1.4,0.7c0.2,0.4,0.2,0.9-0.1,1.5c-0.5,1-1.4,2-2.7,3.1l4.8,2.1c0.3,0.1,0.6,0.3,0.8,0.6c0.2,0.2,0.2,0.5,0.1,0.8
			c-0.1,0.3-0.3,0.5-0.7,0.6c-0.3,0.1-0.7,0-1-0.1l-5.6-2.8c-2,1.3-4.3,2.3-6.8,3c-0.6,0.2-1,0-1.1-0.4c-0.2-0.4,0-0.7,0.4-0.9
			c2.2-0.9,4.2-1.9,5.8-3s2.8-2.2,3.4-3.3H451.2z"/>
		<path class="st19" d="M474.8,374.2c-0.3-0.1-0.4-0.2-0.5-0.3s-0.1-0.3,0-0.5c0.1-0.2,0.2-0.3,0.4-0.4c0.2,0,0.4,0,0.6,0
			c1,0.1,1.8,0.5,2.4,1.2c0.6,0.7,0.9,1.4,0.9,2.4c0,1.2-0.5,2.2-1.5,3.1c-1,0.8-2.2,1.3-3.5,1.3c-1.4,0-2.6-0.4-3.5-1.3
			c-1-0.9-1.5-2-1.5-3.3c0-0.8,0.2-1.6,0.7-2.4c0.4-0.7,0.9-1.3,1.4-1.5h-2.5c-0.5,0-0.7-0.3-0.7-0.9c0-0.6,0.3-0.9,0.8-0.9h10.3
			c0.6,0,0.8,0.3,0.8,0.9c0,0.6-0.3,0.9-0.8,0.9h-3.6c-1.2,0-2.1,0.4-3,1.2c-0.8,0.8-1.2,1.7-1.2,2.7c0,0.8,0.3,1.4,0.8,2
			c0.5,0.5,1.2,0.8,2,0.8c0.7,0,1.4-0.3,1.9-0.8c0.5-0.5,0.8-1.1,0.8-1.8c0-0.6-0.1-1.1-0.4-1.5
			C475.7,374.6,475.3,374.4,474.8,374.2z M470.7,368.3l-0.7-0.6c-0.2-0.2-0.3-0.3-0.3-0.5c0-0.2,0-0.4,0.2-0.6
			c0.2-0.2,0.4-0.3,0.6-0.2c0.2,0,0.4,0,0.5,0.1c0.8,0.4,1.5,0.7,2.2,0.8c0.7,0.1,1.5,0.2,2.3,0.2c0.6,0,0.9,0.3,0.9,0.9
			c0,0.3-0.1,0.5-0.3,0.7c-0.2,0.2-0.4,0.2-0.7,0.2l-2.3,0C472.2,369.2,471.4,368.9,470.7,368.3z M472.3,384.4
			c-0.5,0-0.7-0.3-0.7-0.9c0-0.6,0.2-0.9,0.7-0.9H483c0.6,0,1,0.4,1,1.1v4.9c0,1.7-0.5,2.5-1.6,2.5h-0.6v-6.7H472.3z M482,368.9
			c0-0.5-0.1-0.8-0.2-1s-0.4-0.3-0.7-0.4c-0.3-0.1-0.6-0.2-0.8-0.3c-0.2-0.1-0.3-0.3-0.3-0.5c0-0.5,0.3-0.7,0.9-0.7h2.3
			c0.7,0,1.1,0.4,1.1,1.1v6.4h3.2c0.6,0,0.8,0.3,0.8,1c0,0.6-0.3,0.9-0.8,0.9h-3.2v3.5c0,1.6-0.6,2.3-1.7,2.3H482V368.9z"/>
		<path class="st19" d="M488.9,376c0-1.7,0.5-3.1,1.6-4.2c1.1-1.1,2.4-1.7,4-1.7c1.6,0,2.9,0.5,4,1.7c1.1,1.1,1.7,2.5,1.7,4.2
			c0,1.7-0.6,3.1-1.7,4.2s-2.4,1.7-4,1.7c-1.6,0-2.9-0.5-4-1.7S488.9,377.7,488.9,376z M491.1,376c0,1.2,0.3,2.1,1,2.8
			c0.7,0.7,1.5,1.1,2.4,1.1c1,0,1.8-0.4,2.4-1.1c0.7-0.7,1-1.7,1-2.8c0-1.2-0.3-2.1-1-2.8c-0.7-0.7-1.5-1.1-2.4-1.1
			c-0.9,0-1.7,0.4-2.4,1.1C491.5,373.9,491.1,374.9,491.1,376z M503.1,368.9c0-0.5-0.1-0.8-0.2-1c-0.1-0.1-0.4-0.3-0.7-0.4
			c-0.3-0.1-0.6-0.2-0.8-0.3c-0.2-0.1-0.3-0.3-0.3-0.5c0-0.5,0.3-0.7,0.9-0.7h2.3c0.7,0,1.1,0.4,1.1,1.1v7.8h3.2
			c0.6,0,0.8,0.3,0.8,1c0,0.6-0.3,0.9-0.8,0.9h-3.2v11.2c0,1.6-0.6,2.3-1.7,2.3h-0.5V368.9z"/>
		<path class="st19" d="M511.6,371.9c-0.5,0-0.8-0.3-0.8-0.9c0-0.6,0.3-0.9,0.8-0.9h8.2c0.4,0,0.6,0.1,0.8,0.4
			c0.2,0.3,0.2,0.6,0.2,0.9c-0.4,2.7-1.5,5.3-3.2,7.6c-1.7,2.4-3.7,4.2-6.1,5.5c-0.6,0.3-1,0.3-1.3,0c-0.3-0.4-0.1-0.7,0.3-1.1
			c2-1.4,3.7-3.1,5-5.3c0.1-0.2,0.3-0.4,0.4-0.6h-4.5c-0.6,0-0.8-0.3-0.8-0.9c0-0.6,0.3-0.9,0.8-0.9h5.5c0.6-1.3,1-2.6,1.2-3.9
			H511.6z M524.2,368.9c0-0.5-0.1-0.8-0.2-1s-0.4-0.3-0.7-0.4c-0.3-0.1-0.6-0.2-0.8-0.3c-0.2-0.1-0.3-0.3-0.3-0.5
			c0-0.5,0.3-0.7,0.9-0.7h2.3c0.7,0,1.1,0.4,1.1,1.1v7.8h3.2c0.6,0,0.8,0.3,0.8,1c0,0.6-0.3,0.9-0.8,0.9h-3.2v11.2
			c0,1.6-0.6,2.3-1.7,2.3h-0.5V368.9z"/>
		<path class="st19" d="M531.1,376c0-1.7,0.5-3.1,1.6-4.2c1.1-1.1,2.4-1.7,4-1.7c1.6,0,3,0.5,4.1,1.7c1.1,1.1,1.7,2.5,1.7,4.2
			c0,1.7-0.6,3.1-1.7,4.2s-2.5,1.7-4.1,1.7c-1.6,0-2.9-0.5-4-1.7S531.1,377.7,531.1,376z M533.4,376c0,1.2,0.3,2.1,1,2.8
			c0.7,0.7,1.5,1.1,2.4,1.1c1,0,1.8-0.4,2.5-1.1c0.7-0.7,1-1.7,1-2.8c0-1.2-0.3-2.1-1-2.8c-0.7-0.7-1.5-1.1-2.5-1.1
			c-1,0-1.8,0.4-2.4,1.1C533.7,373.9,533.4,374.9,533.4,376z M545.8,368.9c0-0.5-0.1-0.8-0.2-1s-0.4-0.3-0.7-0.4
			c-0.3-0.1-0.6-0.2-0.8-0.3c-0.2-0.1-0.3-0.3-0.3-0.5c0-0.5,0.3-0.7,0.9-0.7h2.3c0.7,0,1.1,0.4,1.1,1.1v20.9c0,1.6-0.6,2.4-1.7,2.4
			h-0.5V368.9z"/>
		<path class="st19" d="M569.9,386.5h-18.3c-0.5,0-0.8-0.3-0.8-0.9s0.3-0.9,0.8-0.9h18.3c0.6,0,0.9,0.3,0.9,0.9
			S570.4,386.5,569.9,386.5z M557.1,372.9h7.3v-2.1c0-0.4,0-0.7-0.1-0.8c-0.1-0.1-0.2-0.2-0.3-0.2c-0.3-0.1-0.5-0.2-0.6-0.3
			s-0.2-0.2-0.2-0.5c0-0.5,0.3-0.7,0.9-0.7h1.5c0.7,0,1.1,0.4,1.1,1.1v7.6c0,0.7-0.1,1.3-0.4,1.7c0.5,0,0.7,0.3,0.7,0.9
			c0,0.6-0.3,0.9-0.8,0.9h-9.4c-0.3,0.5-0.7,0.7-1.2,0.7h-0.5v-9.7c0-0.5,0-0.7-0.1-0.9c-0.1-0.1-0.1-0.2-0.3-0.3
			c-0.2-0.1-0.4-0.1-0.6-0.2c-0.2-0.1-0.3-0.2-0.3-0.5c0-0.5,0.3-0.7,0.9-0.7h1.5c0.7,0,1,0.4,1,1.1V372.9z M564.4,374.7h-7.3v3.3
			c0,0.3,0,0.5,0,0.7h7.3V374.7z"/>
	</g>
</g>
</svg>
