<?xml version="1.0" encoding="utf-8"?>
<!-- Generator: Adobe Illustrator 27.4.0, SVG Export Plug-In . SVG Version: 6.00 Build 0)  -->
<svg version="1.1" id="_레이어_1" xmlns="http://www.w3.org/2000/svg" xmlns:xlink="http://www.w3.org/1999/xlink" x="0px"
	 y="0px" viewBox="0 0 303.1 100.5" style="enable-background:new 0 0 303.1 100.5;" xml:space="preserve">
<style type="text/css">
	.st0{fill:#F6AB00;}
	.st1{fill:#EF7E00;}
	.st2{fill:#82A9DA;}
	.st3{fill:#C85912;}
	.st4{fill:#5C410C;}
</style>
<g>
	<g>
		<g>
			<polygon class="st0" points="80.1,89.1 92.7,99.4 92.7,55 80.1,55 			"/>
			<path class="st0" d="M13.6,51.7v24.2l18.5,1.9V51.7c0-3,0.4-5.9,1.2-8.7l-17.8-5.2C14.3,42.2,13.6,46.8,13.6,51.7z"/>
			<path class="st0" d="M65.3,18.5c7.6,0,14.6,2.6,20.2,6.9L97.1,11C88.3,4.1,77.3,0,65.3,0c-4.8,0-9.5,0.7-13.9,1.9l5.2,17.8
				C59.4,18.9,62.3,18.5,65.3,18.5z"/>
		</g>
		<g>
			<path class="st1" d="M70.2,37.7c1.4,0.5,2.6,1.2,3.8,2l7.9-9.8c-2.4-1.8-5.1-3.3-8.1-4.2L70.2,37.7z"/>
			<polygon class="st1" points="37.9,99.4 50.5,89.1 50.5,61.7 37.9,61.7 			"/>
			<path class="st1" d="M17,33.1l17.4,6.4c0.9-2.4,2.2-4.6,3.6-6.7L23,21.9C20.6,25.4,18.6,29.1,17,33.1z"/>
			<path class="st1" d="M117,75.9V51.7c0-4.8-0.7-9.5-1.9-14L97.3,43c0.8,2.8,1.2,5.7,1.2,8.7v26.2L117,75.9z"/>
		</g>
		<g>
			<path class="st2" d="M65.3,36.9c0.9,0,1.8,0.1,2.6,0.2l2.8-12.3c-1.8-0.4-3.6-0.5-5.4-0.5c-8.2,0-15.6,3.6-20.6,9.3l9.7,8.1
				C57.1,38.8,61,36.9,65.3,36.9z"/>
			<path class="st2" d="M100.8,14.1L88.2,27.8c3.4,3.3,6.1,7.3,7.9,11.8l17.4-6.4C110.7,25.8,106.3,19.4,100.8,14.1z"/>
			<polygon class="st2" points="3.8,87.7 32.1,87.7 32.1,81.2 3.8,80 			"/>
			<polygon class="st2" points="98.4,87.7 126.8,87.7 126.8,80 98.4,81.2 			"/>
		</g>
		<g>
			<path class="st3" d="M80.1,51.7L80.1,51.7l0,0.9l12.6-0.8v0h0c0-7.7-3.2-14.7-8.3-19.7l-8.5,9.3C78.4,44,80.1,47.6,80.1,51.7z"/>
			<path class="st3" d="M50.5,51.7c0-3,0.9-5.8,2.4-8.1l-10.2-7.4c-3,4.4-4.8,9.7-4.8,15.5v6.8l12.6,0.8V51.7z"/>
			<path class="st3" d="M53.1,20.8L46.7,3.4C38.6,6.6,31.6,11.6,26,18.1l14.2,11.9C43.7,25.9,48.1,22.8,53.1,20.8z"/>
			<rect y="91.1" class="st3" width="32.1" height="9.4"/>
			<rect x="98.4" y="91.1" class="st3" width="32.1" height="9.4"/>
		</g>
	</g>
	<g>
		<g>
			<path class="st4" d="M301.7,37.7L301.7,37.7l-7.6,0c-0.3,0-0.5,0.3-0.5,0.6c0,0.3,0.2,0.5,0.5,0.6c0,0,0.1,0,0.2,0.1
				c0.5,0.1,1.4,0.5,1.4,2c0,0.2,0,47.3,0,47.3s0.6,0.1,1.1,0.1c3.4,0,5.8-1.3,6.3-3.1V39.2C303.1,38.3,302.6,37.8,301.7,37.7z"/>
			<path class="st4" d="M277.9,57.2c2.1-4.1,3.3-8.8,3.3-16c0-0.3-0.2-0.8-0.5-1.1c-0.3-0.3-0.8-0.5-1.2-0.5c-0.1,0-7.2,0-7.2,0
				c-0.3,0-0.5,0.2-0.5,0.6c0,0.3,0.2,0.5,0.5,0.6c0,0,0.1,0,0.2,0.1c0.5,0.2,1.4,0.5,1.4,2h0c0,7.8-4.7,21.7-17.1,30.6
				c-0.3,0.2-0.4,0.4-0.4,0.6c0,0.2,0.1,0.4,0.3,0.5l2.4,1.6c0.1,0.1,0.3,0.1,0.4,0.1c0.1,0,0.3-0.1,0.4-0.1
				c6.3-3.9,11.8-9.2,15.4-14.5c4.1,4,8.7,11.6,9.9,13.9c0.2,0.4,0.4,0.6,0.7,0.7c0,0,0.1,0,0.1,0c0.2,0,0.5-0.1,0.7-0.2l4.6-2.3
				c0.4-0.2,0.6-0.4,0.6-0.7c0.1-0.3-0.1-0.6-0.3-0.9C289.6,68.8,284.2,63.2,277.9,57.2z"/>
		</g>
		<g>
			<g>
				<path class="st4" d="M211.7,60.4c0.1,0.2,0.2,0.3,0.5,0.3c0.1,0,0.2,0,0.3,0c1.5-0.3,10.1-2.6,18.1-7.1
					c4.5,1.5,10.3,4.5,14.3,6.4c0.6,0.3,1.2,0.6,1.8,0.9c0.2,0.1,0.4,0.2,0.6,0.2c0.4,0,0.7-0.3,0.9-0.7l2.2-3.9
					c0.2-0.4,0.3-0.7,0.1-1c-0.1-0.3-0.3-0.5-0.7-0.7c-2.9-1.2-9.1-3.1-14.3-4.3c6.1-4.5,9.3-9.4,9.6-10c0.3-0.7,0.3-1.3,0-1.8
					c-0.4-0.6-0.9-0.8-2.1-0.8h-29.9c-0.2,0.7-0.1,1.6,0.2,2.4c0.4,1,1.2,2.2,2,2.4v0l19.8,0c-3.4,5.1-15.2,11.1-25.3,13.9
					c-0.5,0.1-0.7,0.6-0.3,1C209.9,58,211.7,60.4,211.7,60.4z"/>
				<path class="st4" d="M255.8,63.7h-51.6c-0.2,0.7-0.1,1.6,0.2,2.4c0.4,1.1,1.2,2.2,2,2.4h19.9v19.7c0,0,0.6,0.1,1.1,0.1
					c3.4,0,5.8-1.3,6.3-3.1V68.5h20c0.8-0.3,1.7-1.5,2.1-2.5C256,64.9,256.1,64.2,255.8,63.7z"/>
			</g>
			<g>
				<path class="st4" d="M175.2,66.8c-8.8,0-16.7,4.1-16.7,11.8c0,7.7,7.9,11.8,16.7,11.8c8.8,0,16.8-4.1,16.8-11.8
					C191.9,71,183.9,66.8,175.2,66.8z M175.2,85.5c-5,0-9.4-2.7-9.4-6.9c0-4.2,4.4-6.9,9.4-6.9c5,0,9.5,2.7,9.5,6.9
					C184.6,82.8,180.2,85.5,175.2,85.5z"/>
				<path class="st4" d="M201.5,59.3h-11.6c1-2.9,2.7-10,2.7-15.4V40c0-1.6-0.7-2.3-2.5-2.3h-32.4c-0.2,0.7-0.1,1.6,0.2,2.4
					c0.4,1,1.2,2.2,2,2.4l24.1,0c1,0,1,0,1,0.9V45c0,4.1-1.4,12.6-1.6,14.3h-8V49c0-0.8-0.4-1.3-1.3-1.3h-7.7
					c-0.3,0-0.5,0.2-0.5,0.6c0,0.3,0.2,0.5,0.5,0.6c0,0,0.1,0,0.2,0.1c0.5,0.1,1.4,0.5,1.4,2h0v8.3h-18.3c-0.2,0.7-0.1,1.6,0.2,2.4
					c0.4,1,1.2,2.2,2,2.4h47.2c0.8-0.3,1.7-1.5,2.1-2.5C201.7,60.5,201.8,59.8,201.5,59.3z"/>
			</g>
		</g>
	</g>
</g>
</svg>
