<?xml version="1.0" encoding="utf-8"?>
<!-- Generator: Adobe Illustrator 27.4.0, SVG Export Plug-In . SVG Version: 6.00 Build 0)  -->
<svg version="1.1" id="레이어_1" xmlns="http://www.w3.org/2000/svg" xmlns:xlink="http://www.w3.org/1999/xlink" x="0px"
	 y="0px" viewBox="0 0 290.9 46" style="enable-background:new 0 0 290.9 46;" xml:space="preserve">
<style type="text/css">
	.st0{fill:#3E3A39;}
	.st1{fill:#ECA617;}
	.st2{fill:#96BE24;}
	.st3{fill:#7EA2CF;}
	.st4{fill:#C0591D;}
	.st5{fill:#E27B1E;}
</style>
<g>
	<g>
		<g>
			<path class="st0" d="M79.6,20.6h-2.8c0.9-1.7,1.1-3.6,1.2-3.8v-6.1c0-0.8-0.7-1.5-1.5-1.5H63.7c-0.8,0-1.5,0.7-1.5,1.5
				c0,0.8,0.7,1.5,1.5,1.5h11.2l0,4.4c0,0-0.4,3.3-2.3,3.9c0,0,0,0-0.1,0h-2.7v-4.1c0-0.8-0.7-1.5-1.5-1.5c-0.8,0-1.5,0.7-1.5,1.5
				v4.1h-5.7c-0.8,0-1.5,0.7-1.5,1.5c0,0.8,0.7,1.5,1.5,1.5h18.5c0.8,0,1.5-0.7,1.5-1.5C81.1,21.3,80.4,20.6,79.6,20.6z"/>
			<path class="st0" d="M70.3,37.3c-3.4,0-6.1-2.7-6.1-6.1c0-3.4,2.7-6.1,6.1-6.1c3.3,0,6.1,2.7,6.1,6.1
				C76.4,34.6,73.7,37.3,70.3,37.3z M70.3,28.2c-1.7,0-3.1,1.4-3.1,3.1c0,1.7,1.4,3.1,3.1,3.1c1.7,0,3.1-1.4,3.1-3.1
				C73.4,29.5,72,28.2,70.3,28.2z"/>
		</g>
		<g>
			<path class="st0" d="M102.9,18.2c-0.1,0-7.5-0.4-7.5-3.9v-2h6c0.8,0,1.5-0.7,1.5-1.5c0-0.8-0.7-1.5-1.5-1.5h-15
				c-0.8,0-1.5,0.7-1.5,1.5c0,0.8,0.7,1.5,1.5,1.5h6v2c0,3.4-7.4,3.9-7.5,3.9c-0.8,0-1.5,0.7-1.4,1.6c0,0.8,0.7,1.4,1.5,1.4
				c0,0,0,0,0.1,0c2.7-0.1,6.7-1,8.9-3.2c2.2,2.3,6.1,3.1,8.9,3.2c0,0,0,0,0.1,0c0.8,0,1.5-0.6,1.5-1.4
				C104.4,19,103.8,18.3,102.9,18.2z"/>
			<path class="st0" d="M103.3,24.4H84.6c-0.8,0-1.5,0.7-1.5,1.5c0,0.8,0.7,1.5,1.5,1.5h7.8v7.2c0,0.8,0.7,1.5,1.5,1.5
				c0.8,0,1.5-0.7,1.5-1.5v-7.2h7.8c0.8,0,1.5-0.7,1.5-1.5C104.8,25.1,104.1,24.4,103.3,24.4z"/>
		</g>
		<g>
			<path class="st0" d="M120.6,22.9c-0.2,0-4.9-0.3-4.9-3.9v-8.5c0-0.8-0.7-1.5-1.5-1.5c-0.8,0-1.5,0.7-1.5,1.5V19
				c0,3.6-4.7,3.9-4.9,3.9c-0.8,0.1-1.5,0.8-1.4,1.6c0,0.8,0.7,1.4,1.5,1.4c0,0,0.1,0,0.1,0c1.8-0.1,4.5-0.8,6.2-2.8
				c1.7,2,4.5,2.7,6.2,2.8c0,0,0.1,0,0.1,0c0.8,0,1.5-0.6,1.5-1.4C122.1,23.7,121.4,23,120.6,22.9z"/>
			<path class="st0" d="M125.8,8.9c-0.8,0-1.5,0.7-1.5,1.5v24.2c0,0.8,0.7,1.5,1.5,1.5c0.8,0,1.5-0.7,1.5-1.5V10.4
				C127.3,9.5,126.6,8.9,125.8,8.9z"/>
		</g>
		<g>
			<path class="st0" d="M144.8,16.7c0,0.8,0.7,1.5,1.5,1.5h3.4v4.5c0,0.8,0.7,1.5,1.5,1.5c0.8,0,1.5-0.7,1.5-1.5V10.4
				c0-0.8-0.7-1.5-1.5-1.5c-0.8,0-1.5,0.7-1.5,1.5v4.8h-3.4C145.4,15.2,144.8,15.9,144.8,16.7z M144.9,23.4c0.8,0,1.5-0.6,1.5-1.4
				c0-0.8-0.6-1.5-1.4-1.6c-0.2,0-4.9-0.3-4.9-3.9v-3.8h3.9c0.8,0,1.5-0.7,1.5-1.5s-0.7-1.5-1.5-1.5h-3.9V8.1c0-0.8-0.7-1.5-1.5-1.5
				c-0.8,0-1.5,0.7-1.5,1.5v1.5h-3.9c-0.8,0-1.5,0.7-1.5,1.5s0.7,1.5,1.5,1.5h3.9v3.8c0,3.6-4.7,3.9-4.9,3.9
				c-0.8,0.1-1.5,0.8-1.4,1.6c0,0.8,0.7,1.4,1.5,1.4h0.1c1.8-0.1,4.5-0.8,6.2-2.8C140.3,22.5,143.1,23.3,144.9,23.4L144.9,23.4z
				 M146.7,25.2c-3.3,0-6.1,2.7-6.1,6.1c0,3.3,2.7,6,6.1,6c3.3,0,6.1-2.7,6.1-6C152.8,27.9,150,25.2,146.7,25.2z M146.7,34.2
				c-1.7,0-3.1-1.3-3.1-3c0-1.7,1.4-3.1,3.1-3.1c1.7,0,3.1,1.4,3.1,3.1C149.8,32.9,148.4,34.2,146.7,34.2z"/>
		</g>
		<g>
			<path class="st0" d="M157.7,20.9h1.6c1.8-0.1,4.5-0.8,6.2-2.8c1.7,2,4.5,2.7,6.3,2.8h1.8c0.8,0,1.5-0.7,1.5-1.5
				c0-0.8-0.7-1.5-1.5-1.5H172c-0.2,0-4.9-0.3-4.9-3.9v-3.6c0-0.8-0.7-1.5-1.5-1.5c-0.8,0-1.5,0.7-1.5,1.5V14c0,3.6-4.7,3.9-4.8,3.9
				h-1.6c-0.8,0-1.5,0.7-1.5,1.5C156.2,20.2,156.9,20.9,157.7,20.9z"/>
			<path class="st0" d="M174.3,27.4H167v-3.9c0-0.8-0.7-1.5-1.5-1.5c-0.8,0-1.5,0.7-1.5,1.5v3.9h-7.3c-0.8,0-1.5,0.7-1.5,1.5
				c0,0.8,0.7,1.5,1.5,1.5h17.6c0.8,0,1.5-0.7,1.5-1.5C175.8,28,175.1,27.4,174.3,27.4z"/>
		</g>
		<g>
			<path class="st0" d="M195.6,33.1h-7.8c-0.9,0-1.6-0.2-2.1-0.7c-0.7-0.7-0.6-1.7-0.6-1.8v-2.5c0-0.8-0.7-1.5-1.5-1.5
				c-0.8,0-1.5,0.7-1.5,1.5l0,2.4c0,0.2-0.1,2.3,1.4,3.9c1,1.1,2.4,1.6,4.3,1.6h7.8c0.8,0,1.5-0.7,1.5-1.5
				C197.1,33.8,196.4,33.1,195.6,33.1z M189.8,23.9c0.8,0,1.5-0.7,1.5-1.5c0-0.8-0.7-1.5-1.5-1.5h-6.3c-2.4,0-2.7-1.9-2.7-2.4v-8.1
				c0-0.8-0.7-1.5-1.5-1.5c-0.8,0-1.5,0.7-1.5,1.5v8.1c0,2.2,1.6,5.4,5.7,5.4H189.8z M195.6,8.9c-0.8,0-1.5,0.7-1.5,1.5v1.2h-4.9
				c-0.8,0-1.5,0.7-1.5,1.5c0,0.8,0.7,1.5,1.5,1.5h4.9v1.6h-5.1c-0.8,0-1.5,0.7-1.5,1.5c0,0.8,0.7,1.5,1.5,1.5h5.1v8.7
				c0,0.8,0.7,1.5,1.5,1.5c0.8,0,1.5-0.7,1.5-1.5V10.4C197.1,9.5,196.4,8.9,195.6,8.9z"/>
		</g>
		<g>
			<path class="st0" d="M204.9,19.8h11.4c0.8,0,1.5-0.7,1.5-1.5v-7.7c0-0.8-0.7-1.5-1.5-1.5h-11.4c-0.8,0-1.5,0.7-1.5,1.5v7.7
				C203.4,19.1,204.1,19.8,204.9,19.8z M206.4,12.1h8.4v4.7h-8.4V12.1z M216.9,33.1h-8.4c-1,0-1.7-0.2-2.1-0.7
				c-0.6-0.7-0.6-1.7-0.6-1.8v-2.5c0-0.8-0.7-1.5-1.5-1.5c-0.8,0-1.5,0.7-1.5,1.5l0,2.4c0,0.2-0.1,2.3,1.4,3.9
				c1,1.1,2.5,1.6,4.3,1.6h8.4c0.8,0,1.5-0.7,1.5-1.5C218.4,33.8,217.7,33.1,216.9,33.1z M219.8,22.5h-18.3c-0.8,0-1.5,0.7-1.5,1.5
				c0,0.8,0.7,1.5,1.5,1.5h7.6v3.6c0,0.8,0.7,1.5,1.5,1.5c0.8,0,1.5-0.7,1.5-1.5v-3.6h7.6c0.8,0,1.5-0.7,1.5-1.5
				C221.3,23.2,220.6,22.5,219.8,22.5z"/>
		</g>
		<g>
			<path class="st0" d="M244.9,13.1h-2.9v-2.7c0-0.8-0.7-1.5-1.5-1.5c-0.8,0-1.5,0.7-1.5,1.5v16.3h-7.6v-4.2c2.6-0.7,4.5-3,4.5-5.8
				c0-1.7-0.7-3.2-1.8-4.3h1.8c0.8,0,1.5-0.7,1.5-1.5c0-0.8-0.7-1.5-1.5-1.5h-4.5V8.1c0-0.8-0.7-1.5-1.5-1.5c-0.8,0-1.5,0.7-1.5,1.5
				v1.2H224c-0.8,0-1.5,0.7-1.5,1.5c0,0.8,0.7,1.5,1.5,1.5h1.8c-1.1,1.1-1.8,2.6-1.8,4.3c0,2.8,1.9,5.2,4.5,5.8v4.2H224
				c-0.8,0-1.5,0.7-1.5,1.5c0,0.8,0.7,1.5,1.5,1.5h15.1v4.9c0,0.8,0.7,1.5,1.5,1.5c0.8,0,1.5-0.7,1.5-1.5V16.1h2.9
				c0.8,0,1.5-0.7,1.5-1.5C246.5,13.8,245.8,13.1,244.9,13.1z M226.9,16.6c0-1.7,1.4-3,3-3c1.7,0,3,1.4,3,3c0,1.7-1.3,3-3,3
				C228.3,19.7,226.9,18.3,226.9,16.6z"/>
		</g>
		<g>
			<path class="st0" d="M257.4,20.5c-0.2,0-3.8-0.4-3.8-4.1v-6.1c0-0.8-0.7-1.5-1.5-1.5c-0.8,0-1.5,0.7-1.5,1.5v6.1
				c0,3.6-3.6,4-4,4.1c-0.8,0.1-1.4,0.8-1.4,1.6c0.1,0.8,0.7,1.4,1.5,1.4c0.1,0,0.1,0,0.1,0c1.5-0.1,3.7-0.9,5.2-2.6
				c1.5,1.8,3.7,2.5,5.1,2.6c0.1,0,0.1,0,0.2,0c0.8,0,1.4-0.6,1.5-1.4C258.9,21.4,258.3,20.6,257.4,20.5z"/>
			<path class="st0" d="M265.5,33.1h-8.1c-1,0-1.7-0.2-2.1-0.7c-0.6-0.6-0.6-1.7-0.6-1.7v-2.5c0-0.8-0.7-1.5-1.5-1.5
				c-0.8,0-1.5,0.7-1.5,1.5l0,2.4c0,0.2-0.1,2.3,1.4,3.9c1,1.1,2.5,1.6,4.3,1.6h8.1c0.8,0,1.5-0.7,1.5-1.5
				C267,33.8,266.3,33.1,265.5,33.1z"/>
			<g>
				<path class="st0" d="M261.2,8.9c-0.8,0-1.5,0.7-1.5,1.5v3.8h-2.5c-0.8,0-1.5,0.7-1.5,1.5c0,0.8,0.7,1.5,1.5,1.5h2.5v9.6
					c0,0.8,0.7,1.5,1.5,1.5c0.8,0,1.5-0.7,1.5-1.5V10.4C262.7,9.5,262,8.9,261.2,8.9z"/>
				<path class="st0" d="M265.5,8.9c-0.8,0-1.5,0.7-1.5,1.5v16.5c0,0.8,0.7,1.5,1.5,1.5c0.8,0,1.5-0.7,1.5-1.5V10.4
					C267,9.5,266.3,8.9,265.5,8.9z"/>
			</g>
		</g>
		<g>
			<path class="st0" d="M282.7,23.2h-6.5c-0.9,0-1.6-0.2-2-0.7c-0.7-0.8-0.7-2-0.7-2.1v-1.9h6c0.8,0,1.5-0.7,1.5-1.5
				c0-0.8-0.7-1.5-1.5-1.5h-6v-3.2h7.9c0.8,0,1.5-0.7,1.5-1.5c0-0.8-0.7-1.5-1.5-1.5h-9.4c-0.8,0-1.5,0.7-1.5,1.5l0,9.6
				c0,0.3-0.1,2.5,1.5,4.2c0.7,0.7,2,1.6,4.2,1.6h6.5c0.8,0,1.5-0.7,1.5-1.5C284.2,23.9,283.5,23.2,282.7,23.2z"/>
			<path class="st0" d="M289.4,8.9c-0.8,0-1.5,0.7-1.5,1.5v5.2h-3.6c-0.8,0-1.5,0.7-1.5,1.5c0,0.8,0.7,1.5,1.5,1.5h3.6v16.1
				c0,0.8,0.7,1.5,1.5,1.5c0.8,0,1.5-0.7,1.5-1.5V10.4C290.9,9.5,290.2,8.9,289.4,8.9z"/>
		</g>
	</g>
	<g>
		<g>
			<path class="st1" d="M20.7,4c0,2.2-1.8,4-4,4c-2.2,0-4-1.8-4-4c0-2.2,1.8-4,4-4C18.9,0,20.7,1.8,20.7,4z"/>
			<g>
				<path class="st2" d="M12.2,20.7c-0.9-0.1-1.9-0.3-2.9-0.7C6.1,19,2.1,16.3,0.1,9.8c0,0-0.6-2,1.3-2.5L5,6.6
					c1.3-0.2,1.6,1.1,1.6,1.1c1,3.1,2.6,5.1,4.9,5.9c0.9,0.3,1.8,0.4,2.5,0.4c0,0,1,0,0.6,0.9c-0.5,1.3-1.1,3.1-1.4,5.2
					C13.2,20,13,20.8,12.2,20.7z"/>
			</g>
		</g>
		<g>
			<path class="st3" d="M10.3,46H6.8c-1.7,0-1.6-2-1.6-2c0.6-11,6.4-16.5,11.7-18.8c0.3,2.4,1.2,4.6,2.4,6.5
				c-2.9,1.4-6.7,4.7-7.2,12.7C12.1,44.5,12.2,46,10.3,46z"/>
			<path class="st1" d="M18.1,21.7h4.4c1.3,0,1.4-1.1,1.4-1.1c0.9-3.7,4-6.5,7.8-7c0,0,1.3-0.1,1.3-1.4V7.7c0-1.3-1.2-1.1-1.2-1.1
				c-7.5,0.6-13.7,6.2-14.9,13.6C16.9,20.1,16.6,21.7,18.1,21.7z"/>
			<path class="st4" d="M31.8,38.3v-4.9c0-1.1,0.9-1,0.9-1c0.1,0,0.2,0,0.3,0c1.9,0,3.3-0.2,4.8-0.8c0,0,0.8-0.4,0.2-1.2l-2.3-3.3
				c0,0-0.8-0.9,0.2-1.8l3.7-2.6c1.1-0.6,1.6,0.2,1.6,0.2l6,8.6c0.8,1.1-0.2,2.1-0.2,2.1l-0.8,0.8c-5.1,4.2-8.7,5-13.2,5
				C33.1,39.3,31.8,39.4,31.8,38.3z"/>
			<path class="st5" d="M28.2,37.7v-5.5c0-1.1-0.7-1.5-0.7-1.5c-1.5-1.1-2.8-2.5-3.3-4.3c-0.3-1.1-1.4-1-1.4-1h-5.9c0,0,0,0,0,0
				c0.3,2.4,1.2,4.6,2.4,6.5c1.9,2.9,4.6,5.1,7.8,6.4C27.1,38.2,28.2,38.8,28.2,37.7z"/>
		</g>
	</g>
</g>
</svg>
