<?xml version="1.0" encoding="utf-8"?>
<!-- Generator: Adobe Illustrator 27.4.0, SVG Export Plug-In . SVG Version: 6.00 Build 0)  -->
<svg version="1.1" id="레이어_1" xmlns="http://www.w3.org/2000/svg" xmlns:xlink="http://www.w3.org/1999/xlink" x="0px"
	 y="0px" viewBox="0 0 2072.2 493.5" style="enable-background:new 0 0 2072.2 493.5;" xml:space="preserve">
<style type="text/css">
	.st0{fill-rule:evenodd;clip-rule:evenodd;fill:#E4032E;}
	.st1{fill-rule:evenodd;clip-rule:evenodd;fill:#003764;}
	.st2{fill:#58595B;}
</style>
<g>
	<g>
		<g transform="scale(.7488)">
			<path class="st0" d="M665,239.6C645.2,173,552.1,42,385.2,42C227.6,42,118,160.7,118,267.2c0,19.7,1.2,28.6,6.1,47.2
				c-2-7.9-3-16.1-3-24.2c0-111,111.2-187.9,225.7-187.9c154.9,0,280.4,125.4,280.4,280c0,121.2-69.8,226.2-171.3,276.6v0.1
				C586.6,611.6,680,486.5,680,339.5C680,304.7,675.3,274,665,239.6"/>
			<path class="st1" d="M509.4,314.6c-57.3-38.9-130.8-23.1-169.3,35.5c-32.1,48.9-80.7,55-99.5,55c-61.3,0-103.3-43.1-115.7-87.7
				c-0.2-0.4-0.3-0.8-0.4-1.3c-0.1-0.5-0.2-1.1-0.4-1.6c-4.9-18.6-6.1-27.5-6.1-47.2c0-106.6,109.5-225.3,267.1-225.3
				c161.5,0,253.9,122.8,277.8,191.1c-0.5-1.3-0.9-2.4-1.2-3.6C615.9,96,489.2,0,339.9,0C152.2,0,0,152.1,0,339.7
				C0,507.4,121.1,651,289,651c133.9,0,224-75.1,265.2-178.5C576.8,416,560.8,349.5,509.4,314.6"/>
		</g>
	</g>
	<g>
		<path class="st2" d="M801.5,77.3v61.8h-24.6V100H648.4V77.3L801.5,77.3z M712.9,208.7v-30.3h-78.6v-22.7h182.3v22.7h-78.8v30.3
			H802v72.5h-24.6v-49.9H646.6v-22.7L712.9,208.7z M956.5,185.1H849.4v-63.4h80.2v-20.8h-80.2V79h104.8v63.7h-80.4v21h82.7V185.1z
			 M991.4,73h24.6v115.9h-24.6V73z M991.8,234.3H884.7v21h107.1V234.3z M860.6,196.1h24.2v17.2h107.1v-17.2h24.2v80.6H860.6
			L860.6,196.1z M1192.6,146.5V99.7h-128.5V77.3h153.1v69.2H1192.6z M1232.2,160.3v22.4h-182.3v-22.4h70.4v-33.9h24.6v33.9
			L1232.2,160.3z M1167.7,239.7c0-7.6-2.6-14.2-7.7-19.6c-5.2-5.4-11.4-8.1-18.7-8.1c-7.4,0-13.8,2.7-19.1,8.1
			c-5.2,5.4-7.7,11.9-7.7,19.6c0,7.6,2.6,14.2,7.7,19.6c5.3,5.6,11.7,8.3,19.1,8.3c7.3,0,13.5-2.8,18.7-8.3
			C1165.2,253.9,1167.7,247.4,1167.7,239.7L1167.7,239.7z M1192.3,239.7c0,6.8-1.4,13.3-4.1,19.3c-2.7,6.2-6.4,11.5-10.9,16
			c-4.9,4.6-10.3,8.3-16.4,11c-6.1,2.7-12.6,4.1-19.6,4.1c-7.1,0-13.8-1.4-20.1-4.1c-6.1-2.7-11.5-6.4-16.2-11
			c-4.7-4.5-8.4-9.8-11.2-16c-2.7-6-4.1-12.5-4.1-19.3c0-7,1.4-13.4,4.1-19.3c2.7-6,6.5-11.4,11.2-16c4.7-4.5,10.1-8,16.2-10.7
			c6.2-2.7,12.9-4.1,20.1-4.1c7,0,13.5,1.4,19.6,4.1c6.1,2.7,11.5,6.3,16.4,10.7c4.6,4.6,8.2,9.9,10.9,16
			C1191,226.3,1192.3,232.7,1192.3,239.7L1192.3,239.7z M1270.5,101.6V79h156.8v22.7h-68.1l74.3,63.9l-16.4,16.9l-68.1-58.7
			l-68.1,58.7l-16.4-16.9l74.3-63.9H1270.5z M1257.7,225.4v-22.9H1440v22.9h-78.8v55.3h-24.8v-55.3H1257.7z M1545.8,128.3h-54.9
			v32.2h54.9V128.3z M1466.5,77.5h24.4v28.6h54.9V77.5h23.9v104.7h-103.2L1466.5,77.5z M1626.4,189.7h-24.6V73h24.6v43.7h28.5v25.5
			h-28.5V189.7z M1470.1,202.1h156.3v76.8h-24.6V225h-131.7V202.1z M1688,75.6h153.1v65.8H1688L1688,75.6z M1816.7,96.6h-104.4v24.1
			h104.4V96.6z M1752,190.8v-14.3h-78.6v-21.2h182.3v21.2h-78.8v14.3h64.3v52.7h-128.7v12.6h131.5v21H1688v-53.9h128.8v-11.9H1688
			v-20.5H1752z M1971.5,155.1V99.7h-84.5V77.3h108.9v77.8L1971.5,155.1z M2006.8,174.9v22.7H1878v-22.7h40.3v-46.5h24.4v46.5
			L2006.8,174.9z M2046.6,209.4H2022V73h24.6v55.8h25.5v23.6h-25.5V209.4z M1892.2,277.2v-62.3h24.6v39.6h133.5v22.7H1892.2z"/>
	</g>
	<g>
		<path class="st2" d="M639.5,385.7c0,7,2.4,12.9,7.1,17.7c4.7,4.6,10.4,6.9,17,6.9c3.7,0,7-0.6,10.1-1.8c3.1-1.3,5.3-2.6,6.5-4
			v-12.8h-20.8v-9.1h32.3v25.1c-2.7,3.5-6.5,6.3-11.5,8.6c-4.9,2.2-10.5,3.4-16.6,3.4c-10,0-18.4-3.2-25.3-9.7
			c-6.9-6.5-10.4-14.6-10.4-24.1c0-9.6,3.5-17.7,10.4-24.1c6.9-6.5,15.4-9.8,25.3-9.8c10.8,0,19.2,2.6,25.1,7.9l-4.7,8
			c-5.8-4.4-12.6-6.6-20.4-6.6c-6.6,0-12.2,2.3-17,6.9C641.9,372.8,639.5,378.7,639.5,385.7L639.5,385.7z M728.2,419.5
			c-7.3,0-13.5-2.4-18.6-7.1c-5.2-4.7-7.7-10.6-7.7-17.5c0-7,2.6-12.8,7.7-17.6c5.2-4.7,11.4-7.1,18.6-7.1c7.3,0,13.5,2.4,18.6,7.1
			c5.2,4.7,7.7,10.6,7.7,17.6c0,6.9-2.6,12.8-7.7,17.5C741.7,417.2,735.5,419.5,728.2,419.5L728.2,419.5z M728.2,410.7
			c4.1,0,7.7-1.5,10.6-4.4c2.9-3,4.4-6.8,4.4-11.3c0-4.5-1.5-8.3-4.4-11.3c-2.9-3-6.4-4.5-10.6-4.5c-4.1,0-7.6,1.5-10.6,4.5
			c-2.9,3-4.4,6.8-4.4,11.3c0,4.5,1.5,8.3,4.4,11.3C720.6,409.2,724.2,410.7,728.2,410.7L728.2,410.7z M776.3,394.7v23.6H765v-47
			h10.9v6.2c1.3-2.2,3.2-3.9,5.7-5.3c2.6-1.4,5.3-2.1,8.2-2.1c5.8,0,10.5,1.9,14,5.7c3.6,3.8,5.4,8.8,5.4,15.2v27.3H798v-24.6
			c0-5-0.9-8.7-2.6-11.1c-1.7-2.4-4.3-3.7-7.9-3.7c-1.8,0-3.6,0.6-5.4,1.7c-1.8,1.2-3.1,2.7-4.1,4.7
			C776.9,387.8,776.3,390.9,776.3,394.7L776.3,394.7z M859.2,398c0.2-2.1,0.2-4.2,0-6.2c-0.4-3.5-1.8-6.5-4.2-8.8
			c-2.6-2.6-5.9-3.9-9.9-3.9c-4.3,0-7.8,1.5-10.4,4.6c-2.5,3-3.8,6.8-3.8,11.3c0,4.5,1.3,8.3,3.8,11.3c2.6,3,6,4.5,10.4,4.5
			c3.9,0,7.2-1.3,9.9-3.9C857.4,404.5,858.8,401.5,859.2,398L859.2,398z M843.5,437.1c-7.7,0-14.2-1.8-19.6-5.5l3.4-8.5
			c5.1,3.5,10.5,5.2,16.3,5.2c5,0,8.9-1.3,11.8-4c2.9-2.7,4.4-5.7,4.4-9v-2.9c-4.1,4.7-9.4,7.1-15.7,7.1c-7.3,0-13.2-2.4-17.7-7.3
			c-4.5-4.9-6.7-10.7-6.7-17.3c0-6.7,2.2-12.4,6.7-17.3c4.5-4.9,10.4-7.4,17.7-7.4c5.9,0,11,2.2,15.3,6.7v-5.6h11.3v39
			c0,8.9-2.4,15.6-7.1,20C858.8,434.9,852.1,437.1,843.5,437.1L843.5,437.1z M899.1,423.1c0,4.4-1.3,7.8-4,10.3
			c-2.3,2.2-6.1,3.3-11.5,3.3h-5.1V428h3.3c1.9,0,3.4-0.5,4.5-1.6c0.9-1,1.4-2.4,1.4-4.3v-50.6h11.4L899.1,423.1z M900.5,356.7
			c0,1.8-0.7,3.4-2.1,4.7c-1.4,1.3-3.1,2-5.1,2c-2,0-3.7-0.7-5.1-2c-1.4-1.3-2.1-2.9-2.1-4.7c0-1.9,0.7-3.5,2.1-4.8
			c1.4-1.3,3.1-2,5.1-2c2,0,3.7,0.7,5.1,2C899.8,353.2,900.5,354.8,900.5,356.7z M946.4,395v-23.6h11.3v47h-10.9v-6.2
			c-1.4,2.3-3.2,4.1-5.5,5.3c-2.7,1.4-5.5,2.1-8.4,2.1c-5.8,0-10.5-1.9-14.1-5.7c-3.5-3.8-5.3-8.8-5.3-15.2v-27.3h11.3V396
			c0,5,0.8,8.7,2.5,11.1c1.8,2.4,4.4,3.6,8,3.6c1.8,0,3.6-0.6,5.4-1.7c1.8-1.2,3.1-2.7,4.1-4.7C945.9,401.9,946.4,398.9,946.4,395
			L946.4,395z M1040.1,418.4l-26-53.3v53.3h-11.6v-65.4h17.1l26.1,53.5v-53.5h11.5v65.4H1040.1z M1092.9,388h11.8
			c0-3-1.3-5.3-3.9-6.8c-2.5-1.5-6.1-2.3-10.9-2.3h-0.3c-4.5,0-9.3,1-14.3,3l-2.8-8.4c5.2-2.1,11-3.2,17.3-3.3h0.2
			c8.3,0,14.7,1.5,19.2,4.6c4.5,3,6.7,7.8,6.7,14.4v29.1h-10.8v-5.2c-2.1,2-4.7,3.6-7.8,4.7c-3.1,1.1-6.2,1.6-9.4,1.6
			c-5.9,0-10.7-1.5-14.4-4.4c-3.7-3-5.5-6.7-5.5-11.1c0-4.8,2.3-8.8,6.9-11.9C1079.1,389.4,1085.1,388,1092.9,388L1092.9,388z
			 M1089.8,411.1c2.9,0,5.8-0.7,8.6-2c2.8-1.3,4.9-2.9,6.2-4.7v-8h-10.1c-5.7,0-9.7,0.7-11.9,2.1c-2.2,1.5-3.4,3.4-3.4,5.6
			c0,2.1,0.9,3.7,2.7,5.1C1084,410.4,1086.6,411.1,1089.8,411.1L1089.8,411.1z M1144.2,356.2v15.2h10.8v8.6h-10.8v23.9
			c0,2.3,0.6,3.9,1.7,4.7c1.2,0.8,2.8,1.2,4.9,1.2h4.2v8.6h-6.8c-5.4,0-9.3-1.1-11.7-3.4c-2.4-2.3-3.7-5.7-3.7-10.1v-25h-8.5v-8.6
			h8.5v-15.2L1144.2,356.2z M1165.6,418.4v-47h11.4v47H1165.6z M1178.4,356.7c0,1.8-0.7,3.4-2.1,4.7c-1.4,1.3-3.1,2-5.1,2
			c-2,0-3.7-0.7-5.1-2c-1.4-1.3-2.1-2.9-2.1-4.7c0-1.9,0.7-3.5,2.1-4.8c1.4-1.3,3.1-2,5.1-2s3.7,0.7,5.1,2
			C1177.7,353.2,1178.4,354.8,1178.4,356.7L1178.4,356.7z M1214.4,419.5c-7.3,0-13.5-2.4-18.6-7.1c-5.2-4.7-7.7-10.6-7.7-17.5
			c0-7,2.6-12.8,7.7-17.6c5.2-4.7,11.4-7.1,18.6-7.1c7.3,0,13.5,2.4,18.6,7.1c5.2,4.7,7.7,10.6,7.7,17.6c0,6.9-2.6,12.8-7.7,17.5
			C1227.9,417.2,1221.7,419.5,1214.4,419.5z M1214.4,410.7c4.1,0,7.7-1.5,10.6-4.4c2.9-3,4.4-6.8,4.4-11.3c0-4.5-1.5-8.3-4.4-11.3
			c-2.9-3-6.4-4.5-10.6-4.5c-4.1,0-7.6,1.5-10.6,4.5c-2.9,3-4.4,6.8-4.4,11.3c0,4.5,1.5,8.3,4.4,11.3
			C1206.8,409.2,1210.3,410.7,1214.4,410.7L1214.4,410.7z M1262.5,394.7v23.6h-11.3v-47h10.9v6.2c1.3-2.2,3.2-3.9,5.7-5.3
			c2.6-1.4,5.3-2.1,8.2-2.1c5.8,0,10.5,1.9,14,5.7c3.6,3.8,5.4,8.8,5.4,15.2v27.3h-11.3v-24.6c0-5-0.9-8.7-2.6-11.1
			c-1.7-2.4-4.3-3.7-7.9-3.7c-1.8,0-3.6,0.6-5.4,1.7c-1.8,1.2-3.1,2.7-4.1,4.7C1263,387.8,1262.5,390.9,1262.5,394.7L1262.5,394.7z
			 M1330.7,388h11.8c0-3-1.3-5.3-3.9-6.8c-2.5-1.5-6.1-2.3-10.9-2.3h-0.3c-4.5,0-9.3,1-14.3,3l-2.8-8.4c5.2-2.1,11-3.2,17.3-3.3h0.2
			c8.3,0,14.7,1.5,19.2,4.6c4.5,3,6.7,7.8,6.7,14.4v29.1h-10.8v-5.2c-2.1,2-4.7,3.6-7.8,4.7c-3.1,1.1-6.2,1.6-9.4,1.6
			c-5.9,0-10.7-1.5-14.4-4.4c-3.7-3-5.5-6.7-5.5-11.1c0-4.8,2.3-8.8,6.9-11.9C1316.9,389.4,1322.9,388,1330.7,388L1330.7,388z
			 M1327.7,411.1c2.9,0,5.8-0.7,8.6-2c2.8-1.3,4.9-2.9,6.2-4.7v-8h-10.1c-5.7,0-9.7,0.7-11.9,2.1c-2.2,1.5-3.4,3.4-3.4,5.6
			c0,2.1,0.9,3.7,2.7,5.1C1321.8,410.4,1324.4,411.1,1327.7,411.1L1327.7,411.1z M1367.5,418.4v-69.8h11.3v69.8H1367.5z M1493,352.9
			v65.4h-11.1v-52.7l-18.1,52.7H1453l-18-52.7v52.7h-11.2v-65.4h17.1l17.5,50.9l17.5-50.9H1493z M1540.2,395v-23.6h11.3v47h-10.9
			v-6.2c-1.4,2.3-3.2,4.1-5.5,5.3c-2.7,1.4-5.5,2.1-8.4,2.1c-5.8,0-10.5-1.9-14.1-5.7c-3.5-3.8-5.3-8.8-5.3-15.2v-27.3h11.3V396
			c0,5,0.8,8.7,2.5,11.1c1.8,2.4,4.4,3.6,8,3.6c1.8,0,3.6-0.6,5.4-1.7c1.8-1.2,3.1-2.7,4.1-4.7
			C1539.7,401.9,1540.2,398.9,1540.2,395L1540.2,395z M1560.7,409.6l7.1-6.8c2,2.6,4.1,4.5,6.5,6c2.3,1.3,4.8,2,7.4,2
			c2.6,0,4.7-0.5,6.4-1.4c1.8-1,2.6-2.3,2.6-3.9c0-1.6-0.8-2.9-2.5-3.7c-1.6-1-3.6-1.8-6-2.6c-2.7-0.8-5.5-1.8-8.3-2.8
			c-3.8-1.3-6.6-2.9-8.4-5c-1.8-2.1-2.6-4.5-2.6-7.1c0-3.8,1.9-7.1,5.7-9.8c3.9-2.8,8.4-4.1,13.6-4.1c5.6,0,10.1,1.2,13.6,3.7
			c1.8,1.3,3.3,2.9,4.3,4.9l-6.9,6.3c-0.9-1.5-2-2.7-3.3-3.7c-2.2-1.8-5-2.7-8.2-2.7c-2,0-3.7,0.4-5.1,1.3c-1.4,0.9-2.1,2-2.1,3.3
			c0,1.3,0.8,2.5,2.3,3.5c1.6,0.9,4,1.8,7.1,2.7c1.2,0.3,2.4,0.7,3.9,1.2c4.8,1.5,8.5,3.4,11,5.8c2.5,2.4,3.8,5.2,3.8,8.6
			c0,3.9-2,7.3-6,10.2c-4,2.8-9.1,4.2-15.2,4.2c-5.2,0-9.8-1.2-13.7-3.5C1565,414.6,1562.7,412.4,1560.7,409.6L1560.7,409.6z
			 M1620.3,391.2h27.7c-0.1-3.1-1.5-5.9-4.1-8.4c-2.6-2.6-5.9-3.8-9.9-3.8c-4.1,0-7.4,1.4-10.1,4.1
			C1622,385.1,1620.8,387.8,1620.3,391.2L1620.3,391.2z M1620.5,399.5c0.7,2.9,2.1,5.3,4.3,7.1c3.2,2.8,7.4,4.1,12.6,4.1
			c5.5,0,10.6-1.9,15.5-5.8l3.4,7.9c-5.4,4.4-11.7,6.6-19.1,6.6c-8.4,0-15.3-2.2-20.5-6.7c-5.2-4.5-7.8-10.5-7.8-17.8
			c0-7.2,2.3-13.2,7-17.8c4.7-4.7,10.8-7,18.3-7c7.5,0,13.5,2.3,18.2,6.9c4.7,4.6,7.1,10.3,7.1,17.2c0,1.9-0.2,3.6-0.5,5.2
			L1620.5,399.5z M1702.7,395v-23.6h11.3v47h-10.9v-6.2c-1.4,2.3-3.2,4.1-5.5,5.3c-2.7,1.4-5.5,2.1-8.4,2.1
			c-5.8,0-10.5-1.9-14.1-5.7c-3.5-3.8-5.3-8.8-5.3-15.2v-27.3h11.3V396c0,5,0.8,8.7,2.5,11.1c1.8,2.4,4.4,3.6,8,3.6
			c1.8,0,3.6-0.6,5.4-1.7s3.1-2.7,4.1-4.7C1702.1,401.9,1702.7,398.9,1702.7,395L1702.7,395z M1780.7,370.2c5.8,0,10.4,1.9,13.6,5.7
			c3.3,3.8,4.9,8.8,4.9,15.2v27.3H1788v-24.6c0-5-0.7-8.7-2.1-11.1c-1.4-2.4-3.8-3.7-7-3.7c-1.9,0-3.6,0.5-5,1.5
			c-1.4,1-2.6,2.5-3.5,4.5c-0.9,2.1-1.3,4.9-1.3,8.6v24.6h-11.2v-24.6c0-5-0.7-8.7-2.2-11.1c-1.4-2.4-3.7-3.7-6.9-3.7
			c-1.9,0-3.5,0.5-4.9,1.5c-1.4,1-2.5,2.5-3.5,4.5c-0.9,2.3-1.4,5.4-1.4,9.2v-0.1v24.1h-11.2v-47h10.6v6.2c2.8-4.9,7.1-7.4,12.9-7.4
			c6.2,0,10.8,2.9,13.7,8.6c1.7-2.8,3.7-4.9,6.1-6.3C1773.6,371,1776.8,370.2,1780.7,370.2L1780.7,370.2z"/>
	</g>
</g>
</svg>
