<?xml version="1.0" encoding="utf-8"?>
<!-- Generator: Adobe Illustrator 27.4.0, SVG Export Plug-In . SVG Version: 6.00 Build 0)  -->
<svg version="1.1" id="레이어_1" xmlns="http://www.w3.org/2000/svg" xmlns:xlink="http://www.w3.org/1999/xlink" x="0px"
	 y="0px" viewBox="0 0 1723.3 355.6" style="enable-background:new 0 0 1723.3 355.6;" xml:space="preserve">
<style type="text/css">
	.st0{fill:#080404;}
	.st1{fill:#231815;}
</style>
<g>
	<g>
		<path class="st0" d="M1183.2,246.5c-2.4-1.5-4.8-2.9-7.5-4.5c0-2.1-0.1-4.3-0.1-6.4c0-5.7-0.7-11.4-2-17c-1-4.3-1.6-8.8-2.1-13.2
			c-1.5-14.3-1.5-28.6-1.5-42.9c0-6.4,0.2-12.9,0.4-19.3c0.1-3.2,0.6-6.4,0.8-9.6c0.2-2.2,1-4.1,2.4-5.9c4.8-2.3,8.7-0.6,11.9,3.1
			c1.7,1.9,3.1,4,4.6,5.9c2.4,3.1,4.6,6.4,7.2,9.3c6.9,7.7,14.4,14.9,22.4,21.5c2,1.7,4.3,3.2,6.3,4.7c2.4-0.4,3.9-1.8,5.2-3.2
			c11.4-10.8,22.4-22.1,31.8-34.8c2.7-3.6,5.6-6.9,8.5-10.4c1.5-1.8,3.5-2.5,5.7-2.7c5.1-0.5,8.2,1.6,9.5,6.6
			c0.4,1.5,0.5,3.2,0.5,4.8c-1.9,34.3-0.6,68.7-0.9,103.1c0,0.7-0.1,1.4,0,2.1c0.2,3.4-0.8,6.3-3.2,8.8c-2.1,0-4.3,0-6.4,0
			c-1.4-2.1-3.8-3-5.7-4.6c-3.1-2.7-4.3-6-3.7-10c0.1-0.7,0.3-1.4,0.5-2.1c1.4-8.7,1.5-17.4-0.4-26.1c-0.8-3.8-1.2-7.8-1.3-11.7
			c-0.2-9.1-0.1-18.2-0.2-27.3c0-1,0.5-2.1-1.1-3.1c-1.9,1.9-3.7,4.1-5.6,6.2c-7.3,8.1-14.5,16.2-21.8,24.4c-0.5,0.5-1,1.1-1.5,1.5
			c-1.9,1.7-3.9,2.2-6.4,1.6c-2-0.5-3.7-1.4-5.2-2.7c-3.4-2.9-6.7-5.9-10.1-8.8c-6.6-5.7-13.2-11.5-19.9-17.2
			c-1.3-1.1-2.6-2.5-4.8-2.6c-0.3,1-0.7,1.9-0.7,2.9c0.1,9.1-0.3,18.3,0.5,27.3c1.2,14.2,3,28.4,4.6,42.6c0.4,3.6-0.2,6.8-3.5,8.9
			c-0.3,0.2-0.4,0.5-0.6,0.8C1187.5,246.5,1185.3,246.5,1183.2,246.5z"/>
		<path class="st0" d="M1635.3,246.5c-1.6-1.9-3.2-3.7-5.1-5.9c-0.1-1.3-0.2-2.9-0.2-4.5c-0.2-10.2-0.3-20.4-0.5-30.6
			c-0.1-6.1-0.7-12.1,0.1-18.2c0.1-0.9,0.1-1.8,0-2.7c-1.8-13.2-1.6-26.4-1.8-39.6c-0.1-6.4-0.2-12.9-0.2-19.3c0-1.4,0.1-3,0.8-4.1
			c1.3-1.9,3-3.6,5.3-4.3c0.9-0.3,2.2-0.2,3.1,0.3c1.1,0.5,2.1,1.4,2.9,2.3c2.7,3,6.1,4.8,9.9,6.2c15.1,5.7,30.5,10.1,46.1,14
			c4.2,1,8.4,1.8,12.5,3c1.5,0.4,3.1,1.2,4.1,2.4c1.9,2.3,3.7,4.8,5.1,7.5c1.5,2.8,1,5.6-1.5,7.7c-3.1,2.7-6.2,5.5-9.5,7.9
			c-10.7,7.8-21.7,15.1-33.8,20.7c-2.9,1.4-5.9,2.6-9.1,3.2c-1,0.2-2,0.7-2.9,1.2c-0.7,0.4-0.7,2,0,2.3c1.8,0.9,3.5,1.7,5.4,2.4
			c10.9,3.7,20.9,9.2,30.9,14.8c1.7,1,3.2,2.3,4.9,3.3c2.9,1.8,5.7,3.7,8.8,5c5.3,2.1,9.6,5.3,12.7,10c0,1.8,0,3.6,0,5.4
			c-1.8,2.9-4.4,3.8-7.8,3.4c-3.4-0.3-6.8-0.9-9.8-2.5c-4.9-2.6-9.8-5.1-14.3-8.3c-4.8-3.5-9.9-6.4-15.4-8.7
			c-8.2-3.4-16.5-6.8-24.7-10.2c-1.4-0.6-3-0.9-5-1.5c0,1.9,0,3.3,0,4.6c0.1,8.9,0.3,17.9,0.4,26.8c0,2.2-0.3,4.3-1.9,6
			C1641.7,246.5,1638.5,246.5,1635.3,246.5z M1689.2,158.6c-0.4-0.6-0.6-1-0.8-1.1c-2-0.8-4-1.5-6-2.2c-5.9-1.9-11.9-3.9-17.8-5.8
			c-2.7-0.9-5.4-1.9-8.2-2.5c-3.6-0.7-7.2-1.9-11.1-1.5c-0.1,1-0.3,1.7-0.3,2.4c0.4,9.3,0.7,18.6,1.1,27.9c0,0.4,0,0.7,0.1,1.1
			c0.2,1.4,1.1,2.4,2.5,2.2c2.1-0.3,4.3-0.6,6.2-1.4c11.3-4.5,21.8-10.6,32.1-17.1C1687.8,160.1,1688.5,159.3,1689.2,158.6z"/>
		<path class="st0" d="M732.2,246.5c-1-0.7-2-1.5-3.1-1.9c-4.8-2-9.1-4.9-13-8.4c-3.9-3.5-7.5-7.1-11.4-10.6
			c-4.9-4.5-9.8-8.9-14.8-13.2c-7.8-6.8-15.8-13.5-23.5-20.4c-2.6-2.4-4.8-5.2-7.2-7.9c-1.3-1.5-2.4-3.1-4.3-3.6
			c-1.7,0.4-2,1.7-2,2.9c0,2.7,0,5.4,0.2,8c1.2,12.5,2.5,24.9,3.8,37.4c0.2,2.3,0.8,4.6,1.2,6.9c0.5,3-0.2,5.7-2.5,7.8
			c-1.7,1.6-3.6,2.3-5.9,1.8c-5-1-8.4-3.9-9.8-8.8c-0.7-2.4-1-4.9-1.1-7.4c-0.1-4-0.8-7.8-1.5-11.7c-0.8-4.2-1.3-8.5-1.6-12.8
			c-0.6-8.4-1.1-16.8-1.6-25.2c-0.3-6.6-0.5-13.2-0.7-19.8c-0.2-5-0.2-10-1.4-14.9c-1-3.9,0.7-7,2.9-9.9c1-1.3,2.5-1.9,4.2-2
			c4.2-0.2,7.7,1.2,10.3,4.6c0.7,0.8,1.3,1.7,1.8,2.7c2.2,4.7,5.3,8.9,8.4,13.1c1,1.3,1.9,2.6,2.6,4.1c3.8,8,9,15,14.4,21.9
			c1.2,1.5,2.7,2.9,4.2,4.1c9.7,7.9,19.5,15.7,29.3,23.5c2.3,1.8,4.4,3.6,6,6c1.7,2.5,3.7,4.9,6.9,5.5c1.6-2.1,1.3-4.5,1.3-6.8
			c0-9.8,0-19.7-0.3-29.5c-0.3-9.8-1-19.7-1.6-29.5c-0.1-2.1-0.6-4.2-0.9-6.3c-0.4-2.8-1-5.7-1.1-8.5c-0.1-2.1,0.3-4.3,0.8-6.3
			c0.7-2.8,2.7-4.6,5.4-5.5c3.1-1.1,5.7-0.4,7.5,2.4c1.5,2.4,2.9,5,3.8,7.6c2.1,6.5,3.4,13.2,3.7,20c1.1,25.8,1,51.5,0.2,77.3
			c0,0.7-0.1,1.4-0.1,2.1c0.2,4.8-1.5,8.7-5.4,11.5C735,246.5,733.6,246.5,732.2,246.5z"/>
		<path class="st0" d="M522.8,246.5c-1.6-1.1-3.3-2.1-4.9-3.2c-3.6-2.7-4.7-6.1-3.5-10.4c0.6-2.2,2.3-3.2,4.3-3.4
			c4.3-0.5,8.5-0.8,12.8-1.2c4.3-0.4,8.5-0.7,12.8-1.1c1-0.1,1.9-0.7,3.2-1.2c-0.5-1.2-0.7-2.2-1.2-3.1c-3.7-7.1-7.4-14.3-11.2-21.4
			c-3.4-6.3-6.9-12.5-10.5-18.7c-4.9-8.3-10.2-16.4-14.9-24.8c-2.9-5.3-4.9-11.1-7.5-16.6c-1-2.2-0.7-4.1,0.6-6
			c1.5-2.1,3.1-3.9,5.9-4.1c3.5-0.3,6.3,1,8.7,3.3c2,1.9,3.2,4.2,4.2,6.8c3.6,9.4,8.4,18.2,13.6,26.7c1.4,2.3,2.9,4.5,4.3,6.8
			c3.9,6.2,7.7,12.5,11.5,18.7c2.9,4.7,5.6,9.6,7.4,14.8c0.4,1.2,1,2.3,1.6,3.4c1.1,2,2.8,2.1,4.2,0.3c0.7-0.8,1.1-1.8,1.6-2.8
			c3.7-8.3,7.6-16.6,12.7-24.2c0.9-1.3,1.4-2.9,2-4.3c0.9-2.3,1.6-4.8,2.7-7c2-4,4.1-7.9,6.4-11.8c5.5-9.4,11-18.8,16.7-28.1
			c1.6-2.6,3.5-4.9,5.4-7.4c2.7-3.5,9.8-3.2,12.7-0.5c1.5,1.4,2.5,3,2.9,5c0.5,2.9,0.2,5.8-1.2,8.3c-1.4,2.7-2.9,5.4-4.7,7.8
			c-4.1,5.2-7.6,10.8-10.8,16.6c-4.2,7.7-8.4,15.4-12.5,23.1c-6,11.4-11.8,22.9-17.7,34.3c-0.6,1.2-1.2,2.5-1.8,3.9
			c2,1.7,4.1,1.8,6.2,1.8c3.9,0.2,7.9,0.2,11.8,0.3c3.6,0.1,7.1,0.3,10.7,0.4c1.5,0.1,2.8,0.5,3.7,1.8c1,1.5,2.2,2.8,3.1,4.3
			c0.7,1.2,1.4,2.6,1.5,4c0.4,4.4-0.9,7.2-5.5,7.4c-2,0.1-3.9,0.2-5.9,0.2c-13.2,0.1-26.5,0.2-39.7,0.4c-2.1,0-4.2,0.4-6.4,0.6
			C546.4,246.5,534.6,246.5,522.8,246.5z"/>
		<path class="st0" d="M1401.2,246.5c-0.2-0.3-0.4-0.7-0.6-0.8c-5.1-2.2-6.4-6.3-5.8-11.4c0.4-3.2,0.8-6.4,1-9.6
			c0.2-5.7,0.4-11.4,0.4-17.2c0-14.9-0.3-29.7-0.2-44.6c0.1-9.3,0.6-18.6,1.2-27.9c0.3-4.1,1.1-8.2,2.1-12.1c1-4.2,2.8-5.1,7.1-4.5
			c2.9,0.4,5.4,1.6,7.6,3.6c2.1,2,3,4.3,2.8,7.2c-0.3,4.3-0.7,8.6-0.9,12.8c-0.3,7.9-0.6,15.7-0.8,23.6c0,0.5,0.2,1,0.2,1.5
			c1.1,0.7,1.7,0,2.3-0.6c3.7-3.7,7.9-6.7,12.3-9.5c2.5-1.7,5-3.4,7.5-5.2c9.8-7.5,20.2-14.1,30.8-20.5c3.1-1.8,5.9-4,8.8-6.1
			c6-4.4,8.3-3.8,12.9,0.9c0.8,0.8,1.5,1.6,2.1,2.4c3,4,2.7,6-1.1,9c-1.3,1-2.7,1.8-4,2.6c-4.8,3.1-9.8,6-14.5,9.2
			c-11.6,8-23.2,16.1-34.8,24.3c-2.9,2.1-5.6,4.5-8.3,6.8c-1.3,1.1-1.2,2.7,0.3,3.5c2.2,1.2,4.5,2.2,6.6,3.6
			c6.1,4,12.2,8.1,18.3,12.2c3.2,2.2,6.3,4.7,9.5,7c8.1,6,16.7,11.1,25.9,15.2c2.3,1,4.6,2.1,6.7,3.4c2.8,1.7,4.9,4.1,6.2,7.2
			c1.1,2.7,0.4,4.9-1.5,6.9c-1.8,1.9-3.9,3.2-6.7,2.1c-0.7-0.3-1.4-0.4-2-0.6c-15.1-6.2-30-12.8-42.2-24c-9-8.3-19.6-13.6-30.6-18.6
			c-1.1-0.5-2.3-0.8-3.3-1.1c-1.4,0.9-1.1,2.1-1.2,3.1c-0.1,3.9-0.1,7.9-0.1,11.8c0,8.2-0.8,16.4-1.9,24.6c-0.5,3.8-1.5,7-5.1,8.9
			c-0.2,0.1-0.3,0.6-0.5,0.9C1405.5,246.5,1403.3,246.5,1401.2,246.5z"/>
		<path class="st0" d="M1298.1,246.5c-0.8-1.8-2.8-2.1-4.1-3.2c-2.5-2.1-3.2-4-2-7.1c0.9-2.3,2-4.6,3.1-6.8
			c2.9-5.8,5.2-11.7,6.5-18.1c1-4.7,2.4-9.4,5-13.5c0.3-0.5,0.6-0.9,0.7-1.5c1.7-7.7,5.4-14.7,8.1-22.1c2-5.5,4.2-11,6.4-16.5
			c1.5-3.6,3.2-7.2,4.9-10.7c2.1-4.3,4.6-8.4,6.2-13c1.2-3.5,3.6-6.6,5.7-9.7c1.6-2.3,3.9-3.6,6.8-3.8c2.3-0.1,4.2,0.5,5.4,2.7
			c1.6,3.2,3.3,6.3,4.9,9.5c4.8,9.6,8.1,19.8,11.1,30.1c1.9,6.5,3.8,13,5.8,19.5c1.3,4.1,3,8,5.4,11.6c2.5,3.8,3.9,7.9,4.2,12.5
			c0.3,4.1,1.6,8,2.3,12.1c1.1,6,2.6,11.8,5.2,17.4c1.7,3.7,0.7,7.3-1.4,10.6c-2.5,0-5,0-7.5,0c-0.6-0.6-1.1-1.3-1.8-1.8
			c-1.7-1.3-3.4-2.6-5.1-3.9c-1.4-1.2-2.1-2.8-2.6-4.6c-1.8-6.5-3.6-13.1-5.6-19.6c-0.7-2.4-1.5-4.8-3.6-6.4
			c-9.5-1.1-34.5-0.5-40.3,1.1c-2.2,3.8-3.8,7.9-4.9,12.3c-0.7,2.8-1.5,5.5-2.4,8.2c-3.2,8.8-3.2,8.8-10,14.6
			C1302.4,246.5,1300.2,246.5,1298.1,246.5z M1344.9,153.9c-1.9,0.3-2.5,1.6-2.8,3.1c-0.7,3.6-2.5,6.7-3.9,9.9
			c-3,6.5-6.3,12.9-8.3,19.8c-0.3,1.1-0.3,2.3-0.4,3.4c4.9,1.8,7.4,2,21,1.2c1.9-0.1,3.9,0,5.5-1.4c0.5-2.4-0.7-4.3-1.2-6.3
			c-2.3-8.2-4.8-16.5-7.2-24.7c-0.4-1.2-0.7-2.4-1.3-3.5C1345.9,154.8,1345.2,154.3,1344.9,153.9z"/>
		<path class="st0" d="M788,246.5c-0.1-0.1-0.2-0.3-0.4-0.4c-11.6-2.9-20.3-10.2-28.2-18.6c-3-3.2-5.5-7-8.2-10.6
			c-3.5-4.8-4.8-10.4-4.4-16.3c0.3-3.9,0.8-7.8,1.6-11.7c1.2-5.9,2.6-11.9,4.2-17.7c2.2-8,5.5-15.5,10.6-22.1c1.5-2,3-4,4.3-6.2
			c3.7-6.7,9.4-11.2,16.1-14.5c3.8-1.9,7.8-3.6,11.7-5.4c6.3-2.9,12.9-4,19.8-3.7c3.8,0.1,7.5,0.3,11.3,0.5c1.2,0.1,2.5,0.3,3.7,0.6
			c2.2,0.6,2.9,1.5,3,3.8c0.2,2.8-0.6,3.7-3.6,4.2c-4.8,0.7-9.6,1.2-14.3,2c-10.4,1.6-19.3,5.9-26.8,13.4
			c-5.7,5.7-11.1,11.7-15.4,18.5c-1.9,3-3.3,6.4-4.3,9.8c-3.1,10-4.1,20.3-4.3,30.7c-0.1,2.8,0.7,5.3,2.3,7.5
			c1.9,2.6,3.7,5.3,5.8,7.7c7.3,8.2,16.5,11.7,27.3,10.7c4.3-0.4,8.5-1,12.8-1.6c4.1-0.6,7.9-2.1,11.3-4.5c4.8-3.4,9.1-7.4,13.1-12
			c-2.9-3.1-6-5.8-9.5-7.8c-4.6-2.7-9.3-5.3-13.8-8.2c-2.4-1.5-4.5-3.5-5.9-6.1c-1.5-2.9-1.1-5.2,1.6-7c4.6-3,9.5-3.2,14.2-0.5
			c2.8,1.6,5.3,3.7,7.9,5.5c4,2.7,8,5.5,12.2,7.8c3.1,1.7,6.5,3,9.9,3.9c3.7,1,5.8,2.8,6.6,6.7c0.9,4.1,0.3,7.4-2.6,10.3
			c-3.7,3.9-7.4,7.8-10,12.6c-0.2,0.5-0.6,0.9-1,1.2c-9,8.1-19,14.5-31.3,16.5c-0.6,0.1-1.2,0.6-1.8,1
			C805.2,246.5,796.6,246.5,788,246.5z"/>
		<path class="st0" d="M1080.1,246.5c-6.2-2.7-11.9-6.4-17.7-10c-3.2-2-6.6-3.5-9.9-5.3c-6.3-3.4-12.7-6.6-18.8-10.3
			c-4.3-2.5-8.3-5.5-12.4-8.4c-6.1-4.4-12.2-8.6-18.9-12.1c-4.4-2.3-8.5-5.3-12.7-8c-1-0.7-1.9-1.6-2.7-2.6c-2.5-3.4-1.9-7.3,1.3-10
			c2.8-2.3,5.4-4.7,8.2-6.8c1.8-1.4,3.9-2.6,5.8-3.9c3.9-2.6,7.7-5.2,11.6-7.7c3.3-2.2,6.5-4.4,9.8-6.6c3.4-2.4,6.8-4.6,9.9-7.3
			c6.8-5.9,13.9-11.2,21.4-16.1c3.3-2.2,6.6-4.3,9.8-6.6c2.3-1.7,4.3-3.6,5.4-6.4c1.6-4.1,6.3-5.5,10.2-3.1c1.1,0.6,2.1,1.5,2.9,2.4
			c4.6,5.4,9.3,10.9,13.8,16.4c1.2,1.5,2.2,3.3,3.1,5c0.6,1.1,1,2.3,1.3,3.5c0.6,2.7-0.2,5-2.5,6.6c-2.1,1.5-4.4,1.4-6.6,0.1
			c-1.7-1-3.3-2.2-4.6-3.6c-2.3-2.3-4.3-4.8-6.5-7.1c-1.6-1.7-3.2-3.3-4.7-4.9c-3,0.7-5.2,2.4-7.3,4c-4.1,3.2-8.2,6.4-12.1,9.8
			c-4.3,3.7-8.5,7.6-13.6,10.4c-0.5,0.3-0.9,0.6-1.3,0.9c-5.5,4.9-11.6,9-18.1,12.3c-0.4,0.2-0.6,0.7-1,1.2c1.4,1.3,3.1,1,4.6,1
			c8.4,0.1,16.8,0.1,25.2,0.3c3.7,0.1,7.5,0.3,11.2,0.7c6.1,0.6,10.5,5,11.4,11c0.2,1.7-0.4,3.4-2,4c-1.6,0.6-3.4,1.1-5.2,1.1
			c-3.9,0.1-7.9-0.1-11.8-0.1c-9.7,0.1-19.3,0.2-29,0.3c-2.8,0-5.6,0.4-8.9,1.4c0.8,1,1.3,1.7,1.9,2.2c2.6,1.6,5.2,3.2,7.9,4.5
			c3.6,1.7,7,3.8,9.8,6.4c4.8,4.5,10.5,7.4,16.3,10.2c2.6,1.2,5.2,2.3,7.9,3.3c7.6,2.9,14.1,7.7,20.6,12.4c1.4,1,2.7,2.4,3.8,3.8
			c3,3.8,3,6.1,0.4,10.2c-0.3,0.4-0.5,0.9-0.8,1.4C1084.4,246.5,1082.2,246.5,1080.1,246.5z"/>
		<path class="st0" d="M1602,246.5c-6.1-2.6-11.7-6.1-17.3-9.7c-3-1.9-6.3-3.4-9.4-5.1c-6.1-3.3-12.4-6.4-18.4-9.9
			c-4.5-2.6-8.7-5.6-12.9-8.6c-6.5-4.7-13.1-9.3-20.3-13c-4.3-2.2-8.2-5.1-12.2-7.8c-1.2-0.8-2.2-1.9-3-3c-2.2-3.3-1.5-7,1.5-9.5
			c2.7-2.3,5.4-4.6,8.2-6.8c1.5-1.2,3.2-2.2,4.9-3.3c4.6-3.1,9.2-6.2,13.8-9.2c2.7-1.8,5.4-3.6,8-5.4c3.4-2.4,6.9-4.5,10-7.2
			c7.5-6.6,15.7-12.5,24.1-17.9c2.7-1.8,5.4-3.5,8-5.4c2.2-1.6,4-3.4,5-6.1c1.6-4.1,6.3-5.5,10.2-3.2c0.9,0.5,1.7,1.3,2.5,2
			c5.5,5.6,10.7,11.5,15.1,18.1c1.3,1.9,2.3,4,3.1,6.2c0.5,1.3,0.6,2.9,0.3,4.2c-0.8,3.8-4.9,5.7-8.4,3.9c-1.6-0.8-3.1-1.9-4.3-3.1
			c-2.4-2.4-4.6-4.9-7-7.4c-1.7-1.8-3.4-3.6-5-5.4c-2.9,0.6-4.9,2.1-6.9,3.6c-4.4,3.4-8.7,6.9-12.9,10.5c-4.2,3.6-8.3,7.4-13.2,10.1
			c-0.5,0.3-0.9,0.6-1.3,0.9c-5.6,4.8-11.5,9-18.1,12.3c-0.4,0.2-0.7,0.7-1.4,1.5c1.1,0.3,1.9,0.7,2.6,0.7c2.9,0.1,5.7,0.2,8.6,0.2
			c6.6,0.1,13.2,0,19.8,0.2c3.6,0.1,7.1,0.5,10.7,0.7c4.2,0.2,7,2.4,8.9,5.9c0.8,1.4,1.4,2.9,1.8,4.4c0.7,2.4-0.3,4.2-2.7,5.1
			c-1.3,0.5-2.8,0.7-4.2,0.7c-3.4,0.1-6.8-0.1-10.2,0c-10,0.1-20,0.1-30,0.2c-3,0-6,0.3-9.3,1.5c0.7,0.9,1.1,1.7,1.7,2.1
			c2.6,1.6,5.2,3.2,7.9,4.5c3.8,1.7,7.3,4,10.3,6.8c3.5,3.2,7.4,5.6,11.6,7.7c2.4,1.2,4.8,2.5,7.3,3.4c7.3,2.6,14,6.3,20.3,10.7
			c2.9,2,5.8,4.2,8.3,6.7c3.8,3.9,3.8,6.7,0.8,11.5c-0.2,0.3-0.3,0.6-0.4,1C1606.3,246.5,1604.1,246.5,1602,246.5z"/>
		<path class="st0" d="M871.8,246.5c-2.1-1.9-4.2-3.8-6.5-6c0.1-1.6,0.2-3.4,0.3-5.2c0.3-5,0.7-10,0.9-15
			c0.8-20.6,1.4-41.1,2.2-61.7c0.1-2.3,0.5-4.6,0.7-6.9c0.4-4.5,0.8-8.9,1.1-13.4c0.2-3.2,0.4-6.4,1.5-9.5c0.4-1.2,1-2.3,1.7-3.3
			c2.2-3,6.2-3.5,8.9-1c2.6,2.4,4.9,5.2,7.3,7.9c1.1,1.2,1.3,2.5,1.1,4c-0.9,7.5-1.9,14.9-2.6,22.4c-0.6,5.9-1.1,11.8-1.2,17.7
			c-0.3,15.4-0.4,30.8-0.5,46.2c0,0.9,0.1,1.8,0.2,2.9c1,0.2,2,0.5,3.1,0.5c5.4-0.1,10.7-0.4,16.1-0.5c9.3-0.2,18.6-0.4,27.9-0.3
			c4.5,0,8.9,0.7,13.4,1c1.9,0.1,3.9,0.3,5.5-0.3c0.7-1.3,0.1-2-0.5-2.7c-0.4-0.6-0.8-1.2-1.4-1.6c-5.2-4.5-5.9-10.3-5.3-16.8
			c0.8-0.5,1.7-1.1,2.6-1.6c3.9-2.3,7.4-1.9,10.5,1.6c1.2,1.3,2.6,2.5,3.8,3.8c5.8,6.4,10.9,13.2,15.5,20.5c0.9,1.5,1.8,3.1,2.5,4.7
			c1.7,4.2-0.1,7.6-4.5,8.3c-1.9,0.3-3.9,0.3-5.9,0.5c-4.4,0.6-8.8,1.3-13.2,2.1c-2.1,0.4-4.2,0.3-6.4-0.1
			c-14.5-2.7-29.1-3.3-43.8-1.6c-6.7,0.8-13.5,1.6-20.2,2.5c-1,0.1-2,0.7-2.9,1C879.6,246.5,875.7,246.5,871.8,246.5z"/>
		<path class="st0" d="M458.3,246.5c-0.6-0.6-1.2-1.3-1.9-1.7c-6.2-3.9-12.5-7.7-18.6-11.7c-2.8-1.9-5.4-4.2-7.9-6.4
			c-5.1-4.5-10.1-9.1-16-12.6c-1.5-0.9-2.8-2.2-4-3.5c-2-2-2.1-4.5-1-7c2-4.4,6.4-6.1,10.6-3.9c1.6,0.8,3.1,1.8,4.5,2.9
			c5.1,4.2,10.3,8.4,15,12.9c2.9,2.8,6.2,4.5,10,6.2c1.3-3.2,1.5-6.1,1.7-9.1c0.3-7.1,0.6-14.3,1-21.4c0.2-3.7,0.7-7.5,1.2-11.2
			c1.2-8.7,1-17.5,0.8-26.2c-0.1-3.4-0.3-6.7-0.5-10.2c-2.8-1.2-5.5-0.8-8.1-1.1c-3.2-0.4-6.4-0.6-9.5-1.4c-3.2-0.8-4.8-3.1-5-6.2
			c-0.1-2.3,0.9-4,3.2-4.2c3-0.4,6-0.4,9.1-0.5c2.7-0.1,5.4,0,8-0.2c2-0.1,3.3-1.3,3.5-3.4c0.2-2,0.4-3.9,0.7-5.9
			c0.5-2.8,1-5.7,1.9-8.3c1.4-4,5.1-5.1,8.6-2.7c1.9,1.3,3.5,3.1,5.2,4.7c1.5,1.5,2,3.3,1.8,5.4c-0.2,1.8-0.6,3.5-0.9,5.3
			c-0.2,1.2-0.4,2.4-0.6,3.7c2.2,1.6,4.5,1.4,6.8,1.3c2.7-0.1,5.3-0.4,8-0.5c3.2-0.1,5.9,1.1,8.4,3c1.6,1.2,2.9,2.7,2.6,5
			c-0.4,2.2-2,3.3-4,3.8c-1.9,0.5-3.8,0.9-5.8,1.1c-4.4,0.5-8.9,0.7-13.4,1.1c-0.9,0.1-1.7,0.2-2.9,0.4c-0.2,1.2-0.5,2.4-0.5,3.6
			c-0.1,6.6-0.3,13.2-0.3,19.8c0,12-0.8,23.9-1.4,35.9c-0.4,8.7-0.1,17.5,0,26.3c0,2.7,0.2,5.4,0.6,8c0.5,3.7-0.6,6.7-3.3,9.1
			C463.3,246.5,460.8,246.5,458.3,246.5z"/>
		<path class="st0" d="M795.1,60.1c0.8,0,1.7-0.1,1.8,1.1l0,0c-0.3-0.1-0.7-0.2-0.9-0.4C795.7,60.6,795.4,60.3,795.1,60.1
			C795.1,60,795.1,60.1,795.1,60.1z"/>
		<polygon class="st0" points="1129.7,26.5 1129.4,26.3 1129.7,26.2 		"/>
		<g>
			<g>
				<path class="st1" d="M147.9,0c0.6,0.1,1.1,0.3,1.7,0.3c8.9,0.4,17.8,1.5,26.5,3.5c0.8,0.2,1.7,0.2,2.6,0.2
					c5.3-0.1,10.6,0,15.9,0.4c14.5,1,28.7,3.7,42.5,8.3c26.3,8.8,49.2,23.1,68.3,43.3c18.9,19.9,31.9,43.2,39,69.8
					c1.6,6.1,2.8,12.3,3.7,18.5c1.2,8.6,1.7,17.2,1.6,25.9c0,4.4,0,8.9-0.3,13.3c-0.3,4.8-0.7,9.6-1.4,14.3
					c-1,7.7-2.6,15.3-4.7,22.8c-4,14.3-9.8,27.7-17.3,40.5c-0.7,1.2-1.4,2.4-2.1,3.7c-15.4,29.1-37.6,51.4-66.5,67.1
					c-6.3,3.4-12.5,6.8-19.1,9.6c-11.8,5.1-23.9,8.9-36.5,11.3c-5.5,1.1-11.1,1.8-16.7,2.3c-6.6,0.6-13.3,0.8-20,0.5
					c-5.1-0.2-10.3-0.6-15.4-1.3c-19.7-2.5-38.3-8.3-55.8-17.5c-33.4-17.6-58.1-43.5-74.2-77.7c-3.9-8.3-7-16.8-9.5-25.6
					c-0.8-2.9-1.9-5.7-2.8-8.5c-2.6-8.1-4.5-16.4-5.8-24.9c-0.8-5.1-1.3-10.2-1.6-15.3C0,180.6-0.1,176.3,0,172
					c0.1-5.6,0.6-11.2,1.3-16.8c2-15.9,6.2-31.3,12.7-45.9C27.5,78.7,48.1,54,76.1,35.6C90.9,25.9,107,18.9,124,14
					c6-1.7,12-3.4,18-5c3-0.8,6-1.4,9-2c0.5-0.1,1.1-0.3,1.6-0.5c-12.8-1.5-25.6-2-38.4-1.9c-0.2-0.5,0.1-0.6,0.3-0.7
					c3.1-0.9,6.3-1.6,9.6-2.1c4.8-0.8,9.7-1.3,14.6-1.5c0.6,0,1.1-0.2,1.7-0.3C143,0,145.5,0,147.9,0z M124.9,332.3
					c0.1,0,0.2,0,0.3,0C125.1,332.3,125,332.3,124.9,332.3c-0.1-0.5-0.5-0.5-0.8-0.5c-0.5-0.6-1.3-0.7-2-1
					c-12.7-5-24.6-11.5-35.8-19.4c-0.9-0.6-1.7-1.2-2.6-1.7c-6.9-4-13.4-8.5-19.6-13.5c-3.5-2.9-6.9-5.9-10.2-9.1
					c-0.4-0.3-0.6-0.8-1.2-0.9c-0.1,0.1-0.1,0.2-0.1,0.2c0.3,0.4,0.6,0.9,0.9,1.3c6.2,7.1,12.9,13.5,20.3,19.3
					c7.5,5.9,15.5,11.1,24.1,15.2c7.9,3.8,16.1,6.9,24.5,9.4c0.6,0.2,1.1,0.4,1.7,0.2c0.1,0.1,0.2,0.3,0.4,0.4
					C124.6,332.2,124.8,332.2,124.9,332.3z M336.1,209.8c0.4-0.1,0.4-0.5,0.5-0.8c1.7-8.4,2.4-17,2.3-25.6c0-1.3-0.2-2.5-0.3-3.8
					c-0.2,0.6-0.2,1.2-0.2,1.8c-0.1,5.4-0.7,10.7-1.4,16c-0.3,2-0.5,4.1-0.6,6.1C336.2,205.7,336.1,207.8,336.1,209.8
					c0,0.2,0,0.3,0,0.5c0,0,0,0,0,0C336.1,210.2,336.1,210,336.1,209.8z M18,122.1c0.2,0,0.4,0,0.5-0.1c0.3-0.4,0.5-0.9,0.7-1.4
					C25,107.8,32.3,96,41,85c0.6-0.8,1.2-1.6,1.7-2.4c4.3-7,9.1-13.6,14.4-19.8c6-7.2,12.6-13.8,19.7-19.9c0.3-0.3,0.6-0.6,1.1-1.1
					c-0.8,0.1-1.2,0.5-1.6,0.8c-10.9,7.9-20.8,17-29.4,27.4c-12.7,15.2-22.1,32.2-28.4,51C18.4,121.3,18.2,121.7,18,122.1
					c0,0.1,0,0.2,0,0.3c0,0,0.1,0.1,0.1,0.1c0-0.1,0-0.1,0-0.2C18.1,122.3,18.1,122.2,18,122.1z M44.6,268.2
					c-0.2,0.4-0.1,0.6,0.4,0.8C44.9,268.6,44.7,268.4,44.6,268.2c-0.3-0.4-0.5-0.8-0.8-1.2c-11.3-17.2-19.2-35.9-23.7-56
					c-1.3-5.6-2.2-11.3-2.9-17.1c-0.5-4-0.7-8-0.9-12.1c-0.2-4.2-0.2-8.4,0-12.6c0.1-2.5,0.3-5,0.4-7.5c0-0.5,0.2-1-0.2-1.6
					c-0.2,0.9-0.3,1.7-0.4,2.5c-0.7,4.9-1.2,9.7-1.4,14.6c-0.3,8.1-0.2,16.2,0.7,24.3c0.7,6.3,1.7,12.5,3.1,18.6
					c0.6,2.4,1.1,4.9,2,7.2c5.6,14.4,13.4,27.6,22.8,39.8c0.2,0.3,0.4,0.6,0.7,0.8C44.3,268.2,44.5,268.2,44.6,268.2z M227.5,331.1
					c0.9,0.2,1.6-0.2,2.4-0.5c26.5-8.2,49.5-22.2,69.2-41.7c1.8-1.8,3.4-3.7,4.8-5.8c5.6-8.3,10.3-17.1,14-26.4
					c0.3-0.7,0.6-1.3,0.7-2.4c-0.4,0.6-0.6,0.9-0.8,1.2c-3.1,5.5-6.6,10.6-10.3,15.7c-10,13.7-21.9,25.5-35.6,35.5
					c-10.1,7.3-21,13.3-32.2,18.8c-3.5,1.7-7,3.1-10.6,4.7C228.5,330.4,227.8,330.4,227.5,331.1c-0.1,0-0.2,0-0.3,0
					c0,0-0.1,0.1-0.1,0.1c0,0,0.1,0.1,0.1,0.1C227.3,331.2,227.4,331.1,227.5,331.1z M341.6,207.8c0.5-0.1,0.5-0.4,0.5-0.8
					c0.6-3.7,1.3-7.4,1.9-11.1c0.6-4.1,1-8.2,1.2-12.4c0.3-5.9,0.4-11.8,0.1-17.7c-0.2-4.6-0.6-9.1-1.2-13.6
					c-0.9-6.4-2.1-12.7-3.7-18.9c-5.2-19.7-14.1-37.6-27-53.4c-4.8-5.9-10.1-11.3-15.8-16.3c-0.3-0.3-0.6-0.6-1.4-0.8
					c0.6,0.7,1,1.3,1.5,1.8c15,17.6,25.9,37.5,32.9,59.6c0.8,2.6,1.5,5.3,2.4,7.9c4.5,12.7,7.5,25.8,8.8,39.2
					c0.6,5.8,0.9,11.6,0.9,17.5C342.8,195.1,342.3,201.5,341.6,207.8c0,0.3,0,0.6,0,1c0.1,0,0.1,0,0.2,0
					C341.7,208.4,341.7,208.1,341.6,207.8z M303,96.6c0.1,0,0.1-0.1,0.2-0.1c-0.1-0.2-0.2-0.4-0.3-0.6c-0.7-1-1.3-2.1-2-3.1
					c-8.8-12.7-19.7-23.4-32.3-32.4c-11.1-8-23.2-14.5-35.8-19.8c-15.7-6.7-32.1-11.5-48.8-15.1c-0.7-0.2-1.5-0.3-2.2-0.3
					c-9.4-0.3-18.8,0-28.1,1.3c-7.6,1.1-15.2,2.6-22.6,4.7c-1.1,0.3-2.1,0.7-3.1,1.2c-4.5,2.2-8.8,4.7-13,7.3
					C102.4,47.6,90.8,56.9,80,67.1c-6.8,6.4-13.2,13.1-19.3,20.1c-0.4,0.4-0.8,0.8-1.1,1.2c0-0.8,0.3-1.4,0.6-2
					c3.3-7.2,7.6-13.8,12.6-20c3.4-4.2,7.2-8.2,11.1-11.9c0.4-0.4,0.9-0.8,1.2-1.4c-0.6,0.2-1.1,0.6-1.6,0.9
					c-4.8,3.3-9.4,6.9-13.8,10.8c-14.2,12.3-25.9,26.6-35,43c-0.5,0.9-0.9,1.8-1.3,2.7c-5.6,13.7-9.1,28-10.7,42.7
					c-0.6,5.1-0.8,10.2-0.9,15.4c-0.1,6.5,0.2,13,0.9,19.4c0.6,5.6,1.5,11.1,2.7,16.6c2.5,11.6,6.1,22.8,11,33.5
					c18.1,39.3,52.2,70,93.2,83.8c1.2,0.4,2.3,0.8,3.5,1c9,1.9,18.1,3,27.3,3.2c9.8,0.2,19.5-0.5,29.1-2.1c8.5-1.4,16.8-3.4,25-6
					c7-2.2,13.9-4.8,20.7-7.7c0.6-0.2,1.1-0.6,2-0.6c-4.8,3.2-9.5,5.8-14.4,8.3c-4.9,2.5-9.9,4.6-15.1,6.5
					c-5.1,1.9-10.3,3.3-15.6,4.7c0.4,0.1,0.8,0.1,1.2,0.1c4-0.5,8-1,12-1.6c9.4-1.5,18.6-4,27.6-7.3c17.3-6.4,32.8-15.8,46.7-27.8
					c2.7-2.4,5.5-4.8,7.9-7.4c9.3-10.1,16.8-21.4,22.7-33.7c5.3-11.1,9.1-22.8,11.1-34.9c0.7-4,1.3-8.1,1.8-12.1
					c0.5-4.2,1-8.4,1.3-12.6c0.3-4,0.4-7.9,0.5-11.9c0.2-7.7-0.1-15.3-0.9-22.9c-0.6-5.7-1.5-11.4-2.7-16.9c-0.6-2.5-1-5-2-7.4
					c-5.8-14.9-14.2-28.1-25-39.8c-9.3-10-19.9-18.4-31.5-25.5c-12.7-7.8-26.3-13.9-40.4-18.9c-10.4-3.6-20.9-6.6-31.6-9.1
					c-0.5-0.1-1.1-0.2-1.7-0.7c1.3-0.1,2.3-0.3,3.4-0.3c8.5-0.4,16.8,0.4,25.1,2.2c9.4,2,18.4,5.1,27.1,9.2
					c20.8,9.7,38.5,23.4,53.4,40.7C299.6,92.5,301.3,94.6,303,96.6z M41.2,285.2c-0.1,0.1-0.2,0.2-0.2,0.3c0.3,0.5,0.6,0.9,1,1.4
					c3.2,4.2,6.5,8.2,10.1,12.1c17,18.1,37,31.7,60,41c17.6,7.1,35.9,10.9,54.9,11.4c7.1,0.2,14.2-0.2,21.3-1
					c6.6-0.7,13.1-1.9,19.5-3.4c17.6-4.1,34.2-10.7,49.6-20.1c4.4-2.7,8.7-5.5,12.7-8.7c0.1-0.1,0.3-0.2,0.4-0.3
					c0.1-0.1,0.1-0.2,0.3-0.6c-1,0.6-1.7,1-2.4,1.4c-20.3,12-42.1,19.5-65.5,22.3c-1.6,0.2-3.2,0.5-4.8,0.9
					c-8.2,2-16.5,3.2-24.9,3.6c-7.8,0.3-15.6,0-23.4-1.1c-5.5-0.7-10.9-1.7-16.3-3.1c-16.6-4.1-32.3-10.3-47-19.1
					c-4.3-2.5-8.3-5.4-12.5-8.2c-11.7-7.9-22.2-17-31.6-27.6C42,286,41.6,285.6,41.2,285.2z M194.1,13.7c-3.1-0.8-6.3-1.1-9.5-1.4
					c-3.2-0.2-6.4-0.4-9.6-0.5c-5-0.2-9.9,0-14.9,0.3c-4.1,0.3-8.1,0.8-12.2,1.3c-2.7,0.3-5.4,0.7-8.1,1.5c-3.2,1-6.5,1.9-9.7,3
					c-23.7,8-44,21.3-61.6,38.9c-0.3,0.3-0.5,0.6-0.8,0.9c0.6,0.1,0.9-0.3,1.1-0.5c14.6-11.5,30.8-20,48.2-26.2c1-0.4,2-0.7,2.9-1.2
					c7.9-3.8,16-7,24.4-9.5c10.7-3.2,21.5-5.2,32.6-6.1c4.9-0.4,9.8-0.5,14.7-0.5C192.6,13.7,193.3,13.7,194.1,13.7z M297.7,73.2
					c0.1-0.1,0.1-0.2,0.2-0.2c-0.3-0.4-0.5-0.7-0.8-1.1c-1.7-2-3.3-4-5-5.9c-10.4-11.7-22.1-21.8-35.5-30c-1.1-0.7-2.2-1.3-3.3-1.9
					c-9-4.5-18.3-8.3-27.9-11.1c-10.5-3.1-21.3-4.9-32.2-5.3c-5.6-0.2-11.2,0-16.8,0.5c-5.9,0.6-11.8,1.6-17.6,3
					c-0.8,0.2-1.6,0.5-2.5,0.7c3.5-0.2,7-0.5,10.5-0.7c9.5-0.4,18.9-0.2,28.3,0.9c7.1,0.8,14.1,2,21,3.7c31.3,7.7,58.2,23,80.5,46.4
					C297,72.5,297.3,72.8,297.7,73.2z M334.2,169.2c0.1,0,0.1,0,0.2,0c0-0.6,0.1-1.2,0-1.7c-0.3-3.8-0.4-7.6-0.8-11.4
					c-0.5-4.7-1.3-9.4-2.3-14c-0.7-3-1.3-5.9-2.3-8.8c-3.8-10.1-8.5-19.7-14.1-28.9c-5.6-9.2-12-17.8-19.2-25.8
					c-0.4-0.5-0.8-0.9-1.3-1.3c-0.1,0.2-0.1,0.2-0.1,0.3c0.3,0.4,0.6,0.9,0.9,1.3c14.2,17.2,24.4,36.5,30.5,58
					c0.4,1.2,0.7,2.5,1.1,3.7c3.1,8.7,5.4,17.6,7,26.7C333.9,167.9,334.1,168.6,334.2,169.2z M196.9,9.2c0,0.1,0,0.1,0,0.2
					c1.8,0.3,3.7,0.6,5.5,0.9c12,2.2,23.6,5.6,34.8,10.4c0.8,0.3,1.5,0.6,2.3,0.8c7.9,2.6,15.7,5.7,23.2,9.4
					c5.3,2.6,10.6,5.5,15.6,8.6c0.5,0.3,0.9,0.7,1.9,0.9c-0.6-0.6-0.9-0.9-1.3-1.2c-3-2.5-6.2-4.8-9.4-7
					c-13.1-8.7-27.4-14.7-42.6-18.5c-7.7-2-15.5-3.3-23.4-4.1c-1.7-0.2-3.5-0.3-5.2-0.4C197.8,9.1,197.4,9.1,196.9,9.2z
					 M158.7,334.7c1.4,0.5,2.8,0.8,4.2,1c3.5,0.5,6.9,1,10.4,1.3c3,0.2,5.9,0.6,8.9,0.2c5.7-0.6,11.3-1.5,17-2.6
					c0.5-0.1,1-0.3,1.5-0.4c-4.7,0.3-9.3,0.8-14,1c-4.7,0.2-9.3,0.3-14,0.2C168,335.2,163.4,334.9,158.7,334.7z M78.9,40.8
					c-0.3,0.2-0.4,0.2-0.5,0.3c0,0-0.1,0.1-0.1,0.1c0.1,0,0.2,0.1,0.3,0.1C78.7,41.2,78.7,41.1,78.9,40.8z M39.9,284
					c0.3,0.4,0.4,0.5,0.6,0.7c0-0.2,0.1-0.3,0-0.4C40.4,284.3,40.3,284.2,39.9,284z M202.1,333.7c0,0-0.1,0-0.1,0.1
					c0,0,0.1,0.1,0.1,0.1c0,0,0.1,0,0.1-0.1C202.2,333.7,202.1,333.7,202.1,333.7z M271.6,316.9l0-0.1l-0.1,0L271.6,316.9z
					 M303.8,97.4c0,0-0.1-0.1-0.1-0.1c0,0.1,0,0.2,0,0.3C303.8,97.5,303.8,97.5,303.8,97.4z"/>
				<path class="st1" d="M44.6,268.2c0.1,0.2,0.2,0.4,0.4,0.7C44.5,268.8,44.4,268.5,44.6,268.2C44.7,268.2,44.6,268.2,44.6,268.2z"
					/>
				<path class="st1" d="M341.6,207.8c0,0.3,0.1,0.6,0.1,1c-0.1,0-0.1,0-0.2,0C341.6,208.4,341.6,208.1,341.6,207.8
					C341.6,207.8,341.6,207.8,341.6,207.8z"/>
				<path class="st1" d="M78.9,40.8c-0.2,0.3-0.3,0.4-0.4,0.5c0,0-0.2,0-0.3-0.1c0,0,0.1-0.1,0.1-0.1C78.5,41,78.6,40.9,78.9,40.8z"
					/>
				<path class="st1" d="M39.9,284c0.4,0.2,0.5,0.3,0.6,0.4c0,0,0,0.2,0,0.4C40.3,284.5,40.2,284.4,39.9,284z"/>
				<path class="st1" d="M336.1,209.8c0,0.2,0,0.3,0,0.5c0,0,0,0,0,0C336.1,210.2,336.1,210,336.1,209.8
					C336,209.9,336.1,209.8,336.1,209.8z"/>
				<path class="st1" d="M18,122.1c0,0.1,0.1,0.2,0.1,0.3c0,0,0,0.1,0,0.2c0,0-0.1-0.1-0.1-0.1C18,122.4,18,122.3,18,122.1
					C18,122.1,18,122.1,18,122.1z"/>
				<path class="st1" d="M303.8,97.4c0,0-0.1,0.1-0.1,0.1c0-0.1,0-0.2,0-0.3C303.8,97.3,303.8,97.4,303.8,97.4z"/>
				<path class="st1" d="M179.7,220.2c-1,0.9-1.9,1.7-2.8,2.4c-0.5,0.4-1.1,0.6-1.8,0.6c-0.6,0-1.2-0.1-1.8,0.3
					c-0.4,0.7-0.4,1.5-0.6,2.4c1-0.1,1.9-0.2,2.8-0.2c0.9,0,1.7,0.3,2.4,0.4c0.4,0.5,0.1,0.8,0.1,1.1c-0.3,1.2-0.6,2.4-1,3.5
					c-0.1,0.5-0.3,1-0.4,1.5c-0.2,0.9,0.2,1.3,1.2,1.1c0.7-0.2,1.4-0.5,2-1c1.6-1.7,3.2-3.4,4.9-5c0.9-0.9,1.3-2.1,1.3-3.3
					c0.1-2.1-0.2-4.1-0.8-6.1c-0.4-1.3-0.8-2.6-1.4-3.8c-1.1-2.3-2.2-4.6-3.5-6.9c-1.4-2.6-3.4-4.8-5.8-6.7c-1.5-1.1-3-1.4-4.8-0.9
					c-7,1.9-13,5.4-18.1,10.6c-3.5,3.6-6.5,7.5-8.9,11.9c-2.1,3.7-2.8,7.6-2.4,11.8c0.3,3.8,1.2,7.5,1.9,11.2c0.6,3.1,1.3,6.3,2,9.4
					c1,5.1,3.3,9.6,6.6,13.6c0.7,0.9,1.4,1.7,2.2,2.5c3.7,3.7,7.6,7.3,11.7,10.6c2,1.6,4.1,2.9,6.4,4c1.3,0.6,2.7,1.2,3.9,2
					c0.9,0.5,1.6,0.4,2.4-0.1c0.6-0.4,1.3-0.7,2-1.1c4.1-2.2,8.3-4.3,12.7-6c1.4-0.5,2.7-1.2,3.9-2c2.4-1.4,4.1-3.5,5-6.1
					c2.2-6.3,5.1-12.4,7.7-18.6c2.3-5.5,4.3-11.1,6.5-16.7c1.4-3.6,2.7-7.2,4-10.9c1.2-3.4,2.1-6.9,2.8-10.5
					c0.6-3.3,1.4-6.5,1.8-9.8c0.5-3.4,0.5-6.9,0.2-10.3c0-0.5-0.2-0.9-0.3-1.4c-0.4-1.4-0.5-2.8-0.5-4.2c0-1,0-2-0.2-3
					c-0.4-1.9-0.5-3.9-0.7-5.9c0.6-0.2,1-0.4,1.5-0.5c0-0.2,0.1-0.4,0.1-0.5c-1.3-6.2-2.7-12.3-4.1-18.5c-0.1-0.6-0.3-1.1-0.5-1.7
					c-0.6,0-1.1-0.1-1.6-0.1c-5,0-10,0-15.1,0c-3,0-6,0-8.9-0.2c-3.1-0.3-6.1,0.1-8.9,1.3c-1.6,0.6-3.2,1.4-4.8,2
					c-3.1,1.3-6.1,2.6-9.2,3.9c-0.8,0.3-1.6,0.5-2.4,0.3c-0.2,0-0.3-0.2-0.5-0.3c0.3-1,1-1.7,1.8-2.3c1.4-0.9,2.8-1.7,4.2-2.6
					c1.2-0.8,2.5-1.5,3.7-2.3c0.3-0.2,0.5-0.4,0.9-0.7c-0.6-0.3-1-0.2-1.5-0.2c-6.1,0.1-12.2,0.1-18.2,0.2c-3.7,0-7.5,0.1-11.2,0.2
					c-4,0.1-7.9-0.2-11.9-0.6c-4.5-0.4-9-0.8-13.4-1.2c-5.4-0.5-10.8-0.8-16.3-1c-0.8,0-1.5-0.1-2.3-0.3c-0.4-0.1-0.9-0.3-1.3-0.5
					c-0.8-0.6-0.8-1.5,0-2c0.4-0.2,0.8-0.4,1.3-0.6c1.9-0.8,3.9-1.6,5.8-2.4c0.3-0.1,0.6-0.3,0.9-0.5c-0.1-0.5-0.4-0.5-0.7-0.6
					c-0.9-0.1-1.9-0.2-2.8-0.3c-6.1-0.1-12.3-0.2-18.4-0.2c-0.6,0-1.2,0-1.7-0.1c-0.5-0.1-1-0.3-1.4-0.7c-0.3-0.5-0.5-0.9-0.2-1.5
					c0.4,0,0.8-0.1,1.2-0.1c8.8-0.2,17.6-0.3,26.5-0.5c2.3,0,4.7-0.1,7-0.1c7.1-0.1,14.1,0,21.2-0.2c6.5-0.1,13.1-0.3,19.6-0.5
					c3.3-0.1,6.7-0.1,10,0.1c4.8,0.3,9.6,0.4,14.4,0.2c5.3-0.1,10.5-0.1,15.8-0.1c4,0,8,0.4,12.1,0.8c3.3,0.3,6.5,0.8,9.7,1.2
					c5.9,0.7,11.6,1.9,17.3,3.5c1.1,0.3,2.3,0.5,3.4,0.7c0.5,0.1,0.9,0.2,1.3,0.4c4.8,2.1,9.9,3.6,14.8,5.4c0.5,0.2,1.1,0.4,1.6,0.6
					c0.3,0.1,0.5,0.3,0.7,0.5c0.5,0.5,0.4,1.3-0.3,1.6c-0.2,0.1-0.4,0.1-0.7,0.2c-3.3,0.4-6.6,0.5-9.9-0.6c-0.8-0.3-1.7-0.3-2.6-0.3
					c-1,0-2.1,0.1-3.1,0.2c-1,0-1.6,0.6-2,1.4c-0.1,0.3-0.3,0.7-0.3,1c-1,4.2-2,8.4-2.9,12.6c-0.1,0.3-0.1,0.7-0.2,1.1
					c0.7,0.2,1.4,0.4,2,0.6c0.2,0.6,0,1.2-0.2,1.7c-2.2,10-4.4,20-6.6,29.9c-0.6,2.6-1.3,5.1-1.9,7.6c-0.2,0.8-0.4,1.6-0.2,2.4
					c0.2,0.8,0.1,1.6-0.2,2.4c-1.4,4-2.7,8.1-4,12.1c-3.1,9.1-6,18.2-9.4,27.1c-3,7.8-6.1,15.5-9.2,23.3c-1.6,4.1-4.4,7.3-8,9.7
					c-1.9,1.2-3.9,2.3-6.1,3c-1.2,0.4-2.5,0.7-3.8,0.8c-2.8,0.3-5.4,1.3-7.9,2.6c-0.3,0.1-0.5,0.2-0.8,0.4c-1.6,1.3-3.4,1.4-5.3,1.2
					c-1.1-0.1-2.2-0.2-3.3-0.4c-0.4-0.1-0.9-0.3-1.3-0.5c-1.5-1-3.2-1.8-4.9-2.4c-5.1-1.9-9.6-4.7-13.8-8.2
					c-3.6-3.1-7.1-6.2-10.7-9.4c-1.6-1.4-3.2-2.9-4.8-4.4c-1.7-1.6-3.3-3.3-4.7-5.2c-5-6.8-8.7-14.2-10.4-22.6
					c-1.1-5.6-1.5-11.2-1.2-16.9c0.1-1.6,0.6-3.2,0.8-4.8c0.1-0.9,0.3-1.9,0.3-2.8c0-1.3,0.3-2.4,1-3.5c0.5-0.7,0.9-1.5,1.2-2.3
					c1.1-2.6,2.6-5,4.6-7c4-4.4,8.3-8.6,13.1-12.1c6.8-4.9,14.2-8.5,22.4-10.5c1.7-0.4,3.4-0.6,5.2-0.8c2.6-0.3,5,0.3,7.3,1.5
					c1,0.6,2,1.2,2.9,1.9c2.9,2.3,5.4,5,7.6,7.9c1.9,2.5,3.3,5.2,4.4,8.1c1.2,3.1,2.3,6.3,2.9,9.5c0,0.2,0.1,0.5,0.1,0.7
					c0.6,3.9,0.6,3.9-0.8,7.6c-0.5,1.4-1,2.7-1.7,4c-3.4,6.7-8.6,11.2-15.9,13.3c-2.2,0.6-4.4,0.6-6.5-0.2c-2.4-0.9-4.4-2.3-5.9-4.5
					c-0.4-0.7-0.8-1.4-1-2.2c-0.7-3-1.2-6.1-1.8-9.1c-0.4-2,0.1-3.7,1.5-5.1c2.4-2.4,5.3-3.7,8.8-3.8c1.5,0,2.9,0.5,3.9,1.7
					C178.4,218.8,179,219.4,179.7,220.2z M228.2,171.8c0.1,0,0.3,0,0.4,0c0.4-2.3,0.5-4.6,0.7-6.9c0.2-2.3,0.5-4.6,0.6-7
					c-1.1-0.1-2.1-0.1-3,0.2c-0.1,1.1,0.7,10.5,1.1,13.1C228,171.4,228.1,171.6,228.2,171.8z"/>
				<path class="st1" d="M121.5,64.7c2.7,0,5.1,0.8,7.1,2.6c0.4,0.4,1,0.6,1.5,0.9c1.2,0.7,2.3,1.3,3.5,2c2.1,1.4,3.1,3.5,3.5,6
					c0.8,6.8,1.7,13.6,2.4,20.3c0.6,5.3,1,10.7,1.6,16c0,0.3,0.1,0.7,0.1,1c0.3,2.1-0.3,3.9-1.7,5.5c-1.1,1.3-2.1,2.6-3.2,4
					c-0.7,1-1.6,1.7-2.7,2.1c-2.8,0.9-5.6,1.9-8.4,2.9c-0.4,0.2-0.9,0.3-1.3,0.4c-2.2,0.6-3.1,0.3-4.3-1.6c-1.2-1.8-2.6-3.2-4.3-4.5
					c-7-5.4-10.9-12.5-12.1-21.2c-1.2-9.2,0.5-17.9,4.4-26.2c0.8-1.6,1.6-3.1,2.5-4.6c1.6-2.8,4.1-4.4,7.2-5.1
					C118.6,65,120,64.9,121.5,64.7z"/>
				<path class="st1" d="M158,79.5c0,0.7-0.4,1.3-0.8,1.9c-0.5,0.7-0.6,1.5-0.7,2.3c-0.3,2.4-0.1,4.8,0.2,7.2
					c0.3,2.3,0.8,4.6,1.5,6.8c0.1,0.2,0,0.6,0.5,0.7c0-0.3,0.1-0.6,0-0.8c-0.5-5,0.2-9.8,1.4-14.6c0.2-0.8,0.5-1.6,0.6-2.4
					c0.4-2.1,1.9-3,3.8-3.4c0.4-0.1,0.9-0.1,1.4-0.1c1.5,0,2.6,0.6,3.2,2c0.7,1.5,1.3,3,1.9,4.5c0.2,0.5,0.4,1,0.6,1.4
					c0.4,0.7,0.9,1,1.7,1c0.5,0,0.9-0.1,1.4-0.2c0.5-0.1,0.9-0.2,1.4-0.2c1.3-0.1,2,0.4,2.1,1.8c0.1,0.6,0,1.2,0,1.8
					c0,1.6,0,3.2,0,4.7c0,2.6-0.1,5.3-0.2,7.9c-0.1,3.4-0.4,6.9-0.4,10.3c0,2.2-0.4,4.3-0.2,6.5c0.1,1.3-0.5,2.3-1.7,2.8
					c-3,1.2-5.9,2.4-9.1,2.9c-2.7,0.4-4.8-0.4-6.5-2.5c-0.6-0.7-1-1.4-1.4-2.2c-3-5.6-4.8-11.5-5.5-17.8c-0.5-4.5-1.1-9-1.6-13.6
					c-0.3-2.3-0.5-4.6-0.4-7c0-0.4,0-0.8,0.1-1.2c0.1-0.6,0.5-0.9,1.1-1c1.2,0,2.4-0.1,3.7-0.1C156.7,78.9,157.4,79,158,79.5z"/>
				<path class="st1" d="M198.6,86.4c0.5,0.7,0.9,1.5,1.5,2.1c0.6,0.6,1.4,0.9,2.1,1.3c2.1,1.4,3.1,3.3,3,5.8
					c-0.1,1.9-0.3,3.8-0.6,5.7c-1,6.3-2.6,12.6-4.8,18.6c-0.3,0.8-0.6,1.5-1,2.2c-1.8,3.1-5.3,4.1-8.5,2.7c-1.6-0.7-2.7-1.8-3.2-3.5
					c-0.6-1.9-1-3.8-1-5.8c0.2-4.5,0.3-9,0.5-13.5c0.1-2.2,0.2-4.4,0.4-6.6c0.1-1,0.3-2,0.5-2.9c0.2-1,0.7-1.6,1.7-1.9
					c1.3-0.4,2.5-0.9,3.8-1.3c1.3-0.4,2.6-1,3.6-2.1C197.3,86.5,197.5,86.6,198.6,86.4z"/>
				<path class="st1" d="M214.5,100.3c0.6,0.3,1.1,0.6,1.7,0.9c0.5-0.2,0.9-0.4,1.4-0.6c3.2-1.4,6.1,0.2,7.4,2.4
					c0.5,0.9,0.9,1.8,1,2.8c0.4,2.9,0.7,5.8,1.1,8.7c0.2,1.6,0.3,3.3,0.4,4.9c0.1,1.1,0,2.2-0.5,3.3c-0.8,2-2.3,3.1-4.5,3.3
					c-1.7,0.1-3.3,0.5-5,0.8c-0.5,0.1-0.9,0.2-1.4,0.2c-2.1,0-3.7-1.4-4-3.5c-0.1-0.3,0-0.7,0-1c0-4.1,0-8.2,0-12.3
					c0-2.7,0.6-5.3,1.2-7.9C213.5,101.5,213.8,100.8,214.5,100.3z"/>
				<path class="st1" d="M236.4,106.7c0.9,0.2,1.5,0.6,2,1.1c1.5,1.3,2.8,2.8,3.8,4.5c1.6,2.6,2.9,5.3,3.6,8.3
					c0.2,1,0.4,1.9,0.5,2.9c0.2,1.3-0.3,2.4-1.2,3.3c-1.3,1.2-2.8,1.8-4.5,2c-0.3,0-0.6,0-0.9-0.1c-2.6-0.6-4.7-2.9-5.1-5.6
					c0-0.3-0.1-0.7-0.1-1c0.2-2,0-4.1,0-6.1c0-2.3,0.2-4.7,0.4-7C235.1,108.2,235.3,107.2,236.4,106.7z"/>
			</g>
		</g>
	</g>
</g>
</svg>
