<?xml version="1.0" encoding="utf-8"?>
<!-- Generator: Adobe Illustrator 27.4.0, SVG Export Plug-In . SVG Version: 6.00 Build 0)  -->
<svg version="1.1" id="레이어_1" xmlns="http://www.w3.org/2000/svg" xmlns:xlink="http://www.w3.org/1999/xlink" x="0px"
	 y="0px" viewBox="0 0 112.5 27.2" style="enable-background:new 0 0 112.5 27.2;" xml:space="preserve">
<style type="text/css">
	.st0{fill:#00A73C;}
	.st1{fill:#003894;}
</style>
<g>
	<g>
		<path class="st0" d="M13.4,2.6c0-1.3-1.3-1.3-1.3-1.3c-1.3,0.1-1.3,1.3-1.3,1.3c0.1,1.4,1.3,1.3,1.3,1.3
			C13.5,3.8,13.4,2.6,13.4,2.6z M12.1,3.5c0,0-0.8,0-0.9-0.9c0,0,0-0.8,0.9-0.9c0,0,0.9,0.1,0.9,0.9C13,2.6,13.1,3.4,12.1,3.5z"/>
		<polygon class="st0" points="14.5,1.9 15.5,3.9 15.8,3.9 16.1,1.5 15.7,1.5 15.5,3.2 14.5,1.3 14.2,1.3 13.9,3.7 14.3,3.7 		"/>
		<path class="st0" d="M16.3,4l0.5-0.6l0.8,0.3l0,0.8L18,4.7l0-2.6L17.7,2l-1.8,1.9L16.3,4z M17.7,2.5l-0.1,0.9l-0.6-0.3L17.7,2.5z"
			/>
		<polygon class="st0" points="19.3,5.1 18.6,4.7 19.7,2.9 19.4,2.7 18.1,4.8 19.1,5.4 		"/>
		<path class="st0" d="M21.5,7l1.5-1.4l-0.3-0.2l-1.4,1.3c0,0-0.3,0.1-0.5-0.1c0,0-0.2-0.2-0.1-0.4l1.3-1.4L22,4.5l-1.4,1.4
			c0,0-0.3,0.4,0.1,0.8C20.6,6.7,21,7.2,21.5,7z"/>
		<polygon class="st0" points="21.8,7.9 23.3,6.9 22.4,8.9 22.6,9.1 24.7,7.9 24.5,7.5 23,8.5 23.8,6.6 23.6,6.3 21.6,7.6 		"/>
		<polygon class="st0" points="22.9,9.9 25.1,9 25,8.7 22.7,9.6 		"/>
		<polygon class="st0" points="23.3,11.1 25.9,11.3 25.9,11 23.9,10.8 25.4,9.7 25.3,9.3 23.2,10.9 		"/>
		<polygon class="st0" points="23.6,13.4 23.9,13.4 23.9,12.5 24.6,12.4 24.7,13.3 25,13.3 24.9,12.4 25.7,12.4 25.7,13.3 
			26.1,13.3 25.9,12 23.5,12.2 		"/>
		<path class="st0" d="M25,16.2c0,0-0.4-0.1-0.7,0.5c0,0-0.2,0.4-0.6,0.2c0,0-0.3-0.2,0.1-0.6l0.4,0l0-0.4l-0.4,0
			c0,0-0.5,0.1-0.5,0.7c0,0,0,0.7,0.8,0.7c0,0,0.4,0,0.6-0.4c0,0,0.1-0.4,0.4-0.4c0,0,0.3,0,0.4,0.3c0,0,0.1,0.4-0.5,0.3l0,0.3
			c0,0,0.8,0.2,0.8-0.7C25.6,16.8,25.7,16.2,25,16.2z"/>
		<polygon class="st0" points="22.7,17.6 24.9,18.6 25.1,18.3 22.8,17.3 		"/>
		<polygon class="st0" points="24.2,19.3 22.4,18.3 22.2,18.5 24,19.6 23.8,20 24.1,20.2 24.7,19.1 24.4,18.9 		"/>
		<polygon class="st0" points="21.5,19.5 21.3,19.7 22,20.3 22.8,21.8 23,21.6 22.5,20.4 23.7,20.7 23.9,20.4 22.3,20.1 		"/>
		<path class="st0" d="M21.2,21.4c-0.3,0-0.3,0.3-0.3,0.3c0,0.3,0.3,0.3,0.3,0.3c0.3,0,0.3-0.3,0.3-0.3
			C21.6,21.4,21.2,21.4,21.2,21.4z"/>
		<path class="st0" d="M20,23.7c0-0.6-0.9-2-0.9-2l-1.8,0.9l0.2,0.3l1.4-0.7c0.8,1.6,0.8,1.7,0.8,1.7L19.4,24l-0.6-1.1L18.5,23
			l0.6,1.1l-0.2,0.1l-0.6-1.1l-0.4,0.2l0.6,1.1l-0.2,0.1l0.2,0.3l2-1l-0.2-0.3L20,23.7z"/>
		<path class="st0" d="M14.1,24.1h-0.3V23h-0.4v2.3h-0.7v-1.8h0.4v-0.3h-0.8v2.3c0,0.1,0.1,0.1,0.1,0.1h0.9V26h0.4v-1.4h0.3V26h0.4
			V23h-0.4V24.1z"/>
		<path class="st0" d="M10,22.9l0.7,0.2c-0.3,0.5-1,0.4-1,0.4l0,0.3c0.6,0.1,1-0.2,1-0.2c0.1,0.3,0.8,0.7,0.8,0.7l0.2-0.2
			c-0.8-0.4-0.7-0.9-0.7-0.9l0.7,0.2l0.1-0.3l-1.8-0.5L10,22.9z"/>
		<polygon class="st0" points="9.4,24.4 10.3,24.6 10.1,25.6 10.4,25.6 10.7,24.7 11.6,25 11.7,24.7 9.5,24.1 		"/>
		<path class="st0" d="M9.7,22.4l-1.7-1l0,0l-0.1,0.3l1.3,0.7c-0.4,0.7-0.4,0.6-0.4,0.6l-0.4-0.3l0.2-0.4l-0.3-0.2l-0.3,0.4
			l-0.6-0.3l-0.2,0.3l2,1.1l0.2-0.3l-0.2-0.1C9.2,23.3,9.7,22.4,9.7,22.4z"/>
		<path class="st0" d="M15.8,24.6c0.8,0,0.8-0.7,0.8-0.7c0-0.6-0.4-0.6-0.4-0.6l0.3-0.1l-0.1-0.3L15.8,23l-0.1-0.2l-0.3,0.1l0.1,0.2
			l-0.5,0.1l0.1,0.3l0.3,0c-0.2,0.1-0.2,0.4-0.2,0.4C15.2,24.6,15.8,24.6,15.8,24.6z M15.5,23.9c0,0,0-0.3,0.4-0.3
			c0,0,0.3,0,0.3,0.3c0,0,0,0.3-0.4,0.3C15.8,24.2,15.5,24.2,15.5,23.9z"/>
		<path class="st0" d="M7.3,23.1c-0.6,0-0.6,0.5-0.6,0.5c0.1,1,1.3,1,1.3,1c0.7,0,0.6-0.5,0.6-0.5C8.5,23.2,7.3,23.1,7.3,23.1z
			 M8,24.3c0,0-0.7,0-0.9-0.6c0,0-0.1-0.3,0.3-0.2c0,0,0.6,0.1,0.8,0.5C8.2,24,8.3,24.3,8,24.3z"/>
		<path class="st0" d="M6.3,21.7C6,21.8,6,22,6,22c0,0.4,0.3,0.3,0.3,0.3c0.4,0,0.3-0.3,0.3-0.3C6.7,21.7,6.3,21.7,6.3,21.7z"/>
		<polygon class="st0" points="4.9,20.4 5.3,19 5,18.7 4.5,20.1 3,20.1 3.3,20.5 4.8,20.5 3.8,21.2 4,21.5 6,20 5.8,19.7 		"/>
		<polygon class="st0" points="3.8,15.8 2,16.1 3.6,14.6 3.6,14.2 1.1,14.7 1.2,15 3,14.7 1.4,16.1 1.4,16.5 3.9,16.2 		"/>
		<path class="st0" d="M2.4,13.9c1.4-0.1,1.3-1.3,1.3-1.3c0-1.1-1.2-1.2-1.2-1.2l-0.1,1.5l0.3,0l0.1-1.1c0.6,0.2,0.5,0.8,0.5,0.8
			c-0.2,0.9-1,0.8-1,0.8c-0.9-0.1-0.9-0.8-0.9-0.8c0.1-0.6,0.4-0.7,0.4-0.7l0-0.4c-0.9,0.2-0.8,1.1-0.8,1.1
			C1.3,13.9,2.4,13.9,2.4,13.9z"/>
		<path class="st0" d="M3.7,10.6c0,0,0.1,0.3-0.3,0.3l-0.1,0.3l0.3,0c0,0,0.4,0,0.5-0.6c0,0,0.1-0.4-0.5-0.7L1.8,9.4L1.7,9.8
			l1.7,0.6C3.4,10.3,3.7,10.4,3.7,10.6z"/>
		<path class="st0" d="M4.7,9.2c0,0,0.4-0.5-0.1-1L2.9,7.3L2.7,7.6l1.6,0.8c0,0,0.4,0.2,0.1,0.6c0,0-0.1,0.3-0.6,0.1L2.3,8.3
			L2.2,8.6l1.6,0.9C3.8,9.5,4.4,9.7,4.7,9.2z"/>
		<polygon class="st0" points="6.1,7 4.8,5.7 7,6.1 7.2,5.9 5.5,4.2 5.3,4.4 6.5,5.7 4.4,5.2 4.1,5.5 5.8,7.2 		"/>
		<path class="st0" d="M7.6,5.6L7.5,4.9l0.8-0.5l0.7,0.4l0.3-0.2L7.1,3.1L6.8,3.3l0.5,2.6L7.6,5.6z M8,4.2L7.4,4.5L7.2,3.6L8,4.2z"
			/>
		<polygon class="st0" points="8.6,2.7 9.4,4.6 9.8,4.4 8.9,2.5 9.3,2.3 9.2,2 8,2.5 8.2,2.8 		"/>
		<polygon class="st0" points="10.8,4.1 10.1,1.8 9.7,1.9 10.4,4.2 		"/>
		<path class="st0" d="M23.6,13.9l0,0.4l1,0.1L23.4,15l0,0.4l1-0.5c0,0.8,0.8,0.7,0.8,0.7c0.8,0,0.8-1,0.8-1l0-0.5L23.6,13.9z
			 M25.2,15.3c0,0-0.6,0-0.4-0.9l0.9,0.1C25.7,14.5,25.8,15.3,25.2,15.3z"/>
		<path class="st0" d="M3.3,19.3c1.4,0,1.3-1.3,1.3-1.3c0-1.2-1.3-1.2-1.3-1.2C2,17,2.1,18.1,2.1,18.1C2.2,19.4,3.3,19.3,3.3,19.3z
			 M2.4,18.1c0,0,0-0.8,0.9-0.9c0,0,0.8,0,0.9,0.8c0,0,0.1,0.8-0.9,0.9C3.3,18.9,2.5,18.9,2.4,18.1z"/>
		<polygon class="st0" points="17.4,23.2 17.1,23.3 16.9,22.5 16.5,22.6 17,24.4 17.3,24.3 17.2,23.6 17.4,23.5 		"/>
		<polygon class="st0" points="15.5,24.9 15.5,25.2 17,24.8 17.2,25.5 17.6,25.4 17.4,24.4 		"/>
		<path class="st1" d="M13.6,0C6.1,0,0,6.1,0,13.6c0,7.5,6.1,13.6,13.6,13.6c7.2,0,13.6-6.3,13.6-13.6C27.2,6.1,21.1,0,13.6,0z
			 M13.6,26.7c-7.3,0-13.2-5.9-13.2-13.2c0-7.3,5.9-13.2,13.2-13.2c7.3,0,13.2,5.9,13.2,13.2C26.7,20.6,20.6,26.7,13.6,26.7z"/>
		<path class="st1" d="M13.6,22.6c3.6-0.2,5.8-1.6,7.1-3.2l-14.4,0C9.1,22.9,13.6,22.6,13.6,22.6z M15.2,20.4c0,0,0-0.5,0.5-0.5
			c0,0,0.5-0.1,0.5,0.5c0,0,0,0.2-0.2,0.4c0,0,0.3,0.2,0.3,0.5c0,0,0,0.6-0.6,0.6c0,0-0.6,0-0.6-0.6c0,0,0-0.4,0.3-0.5
			C15.4,20.8,15.2,20.7,15.2,20.4z M13.5,21.2l0.8-1.3h0.3v1.3h0.2v0.3h-0.2v0.3h-0.2v-0.3h-0.9V21.2z M12.8,19.9c0,0,0.7,0,0.7,0.7
			c0,0-0.1,0.5-0.7,1.2h-0.3l0.4-0.6c0,0-0.7,0.1-0.7-0.7C12.1,20.5,12.1,19.8,12.8,19.9z M11.8,19.9v1.9h-0.3v-1.7h-0.3l0-0.3H11.8
			z"/>
		<path class="st1" d="M13.6,4.5c-9.1,0.6-9.3,9-9.3,9c0.1,2.3,0.7,4,1.5,5.2l15.3,0c1.7-2.5,1.6-5.2,1.6-5.2
			C22.3,4.5,13.6,4.5,13.6,4.5z M13.6,4.9l5.4,5.2h-1.1L13.5,6l-4.3,4.1H8.1L13.6,4.9z M16.7,10.1h-6.4L13.5,7L16.7,10.1z
			 M20.5,18.1H6.6v-0.6h13.9V18.1z M9.9,13.9l1-2.1c0,0.2,0.4,0.2,0.4,0.2c0.1,0,0.3-0.1,0.3-0.1c0.1,0.5-0.4,0.8-0.4,0.8
			c-0.1,0.2-0.5,0-0.5,0l-0.4,1.1c0.4,0.1,0.6,1.1,0.6,1.1c0.3,1,0.5,1.2,0.5,1.2c0.1,0.3,0.4,0.1,0.4,0.1c-0.2,0.3-0.5,0.8-0.5,0.8
			c-0.6,0.2-0.8-1.2-0.8-1.2c-0.2-0.9-0.5-1.4-0.5-1.4c-0.1,1.4-0.7,1.2-0.7,1.2C9.5,15.6,9.3,13,9.3,13c0.1-1,0.7-1,0.7-1
			C9.7,12.2,9.9,13.9,9.9,13.9z M8.4,14.7c0,0-0.1-0.2-0.5,0.2c0,0-0.3-1,0.5-0.9l0-0.4c0,0,0.1-0.6,0.7-0.8c0,0-0.1,0.3-0.1,0.4
			l0,2c0,0-0.2,0.9-0.8,0.9C8.2,16.1,8.5,15.9,8.4,14.7z M10.2,16.3L10.2,16.3l0.2,0.1c0,0-0.5,0.6-0.5,0.8c0,0-0.1,0-0.2-0.2
			c0,0-0.5-0.5-1.7,0C7.9,17,8.8,15.3,10.2,16.3z M8.8,12.5c0,0-0.3,0-0.5-0.1c0,0-0.1-0.1-0.5,0.1c0,0,0.1-0.8,0.9-0.7
			c0,0,0.6,0.2,0.8,0.1C9.5,11.9,9.4,12.5,8.8,12.5z M12.2,14.9c0,0-0.1,0.1-0.1-0.5c0,0,0-0.5,0.5-0.4v-1.5c0,0-0.3-0.3-0.6,0.4
			c0,0-0.2,0-0.1-0.6c0,0,0.2-0.6,0.7-0.6c0,0,0.8-0.3,1.4,1.8c0,0,0.1,0.6,0.8,0.2v-1c0,0-0.3,0-0.3-0.1c0,0-0.1-0.2-0.3-0.1
			c0,0,0.1-0.3,0.6-0.8c0,0,0.5,0.5,0.9,0.1c0,0,0.2,0.5-0.6,0.9v4.3c0,0-0.5,0.2-1.1-1.9c0,0-0.6-0.5-1.1,0l0,0.8
			c0,0,0.5,0,0.8,0.3l0.1-0.1l0.1,0.1l-0.5,0.7c0,0-0.7-0.7-1.5-0.1c0,0,0.1-0.8,0.8-0.9v-1.4C12.6,14.8,12.3,14.7,12.2,14.9z
			 M17.5,16.2v-4.4h0.2v0.8l0.8-0.8c0,0,0.4,0.7,0.6,0.4c0,0,0.1,0.3-0.3,0.6l0,3.2c0,0,0,0.5,0.5,0.3l-0.4,0.8c0,0-0.4,0.1-0.6-0.8
			c0,0-0.7,0.5-0.9,0.8c0,0-0.8-0.7-1.4-0.3c0,0,0-0.6,0.7-0.8l0-1.4c0,0-0.3-0.2-0.5,0.2c0,0-0.1,0-0.1-0.4c0,0,0-0.7,0.6-0.5v-1
			c0,0-0.3-0.9-1,0c0,0-0.2-1.1,0.8-1.1c0,0,0.7-0.1,0.7,1l0,3.3C17.3,16.1,17.5,16.1,17.5,16.2z M21.1,11.4H6v-0.6h15.1V11.4z"/>
		<polygon class="st1" points="14.8,9.3 13.5,8.1 12.3,9.3 		"/>
		<path class="st1" d="M13.8,14.9c-0.6-2.1-1-2.2-1-2.2l0,2.3C13.1,14.6,13.8,14.9,13.8,14.9z"/>
		<path class="st1" d="M14.8,14c-0.3,0.2-0.7,0-0.7,0c0.3,1.2,0.7,1.7,0.7,1.7V14z"/>
		<path class="st1" d="M18.3,13.6v-0.9c-0.1-0.1-0.2-0.3-0.2-0.3l-0.3,0.3v0.8C17.8,13.8,18.3,13.6,18.3,13.6z"/>
		<path class="st1" d="M18.3,14.9l0-1c0,0-0.3,0.1-0.6,0v1C17.7,14.9,17.9,14.7,18.3,14.9z"/>
		<path class="st1" d="M18.3,16.1l0-1c-0.2-0.2-0.6,0-0.6,0l0,1.3C17.7,16.5,18.3,16.1,18.3,16.1z"/>
		<path class="st1" d="M12.8,20.9c0.4-0.1,0.4-0.4,0.4-0.4c0-0.4-0.4-0.4-0.4-0.4c-0.4,0-0.4,0.4-0.4,0.4
			C12.3,20.9,12.8,20.9,12.8,20.9z"/>
		<polygon class="st1" points="13.8,21.2 14.3,21.2 14.3,20.3 13.8,21.1 		"/>
		<path class="st1" d="M15.7,20.6c0.2,0,0.2-0.2,0.2-0.2c0-0.2-0.2-0.3-0.2-0.3c-0.3,0-0.2,0.3-0.2,0.3
			C15.4,20.6,15.7,20.6,15.7,20.6z"/>
		<path class="st1" d="M15.7,21.6c0.4-0.1,0.3-0.4,0.3-0.4c0-0.3-0.3-0.3-0.3-0.3c-0.3,0-0.3,0.3-0.3,0.3
			C15.3,21.6,15.7,21.6,15.7,21.6z"/>
	</g>
	<g>
		<path d="M53.8,9h-1c0.4-1.1,0.4-2.2,0.4-3.4V3.9h-9.6v1.3h7.8v2.1c0,0.5,0,1.4-0.4,1.7h-3V6.9h-1.8V9h-3v1.3h10.6V9z"/>
		<path d="M53.3,14.1c0-3.8-9.8-3.7-9.8,0C43.6,17.8,53.3,17.8,53.3,14.1z M45.5,14.1c0-2,5.8-2,5.8,0
			C51.4,16.1,45.5,16.1,45.5,14.1z"/>
		<path d="M57.7,8.6l0.7,1.2c1.8-0.3,4-1.6,4.8-2.7c0.9,1.4,3.1,2.5,4.8,2.7l0.7-1.2c-1.8-0.6-3.8-1.4-4.4-3.4h4V3.9h-10v1.3h4
			C61.5,7.2,59.5,8,57.7,8.6z"/>
		<polygon points="62.2,16.5 64,16.5 64,12.2 68.6,12.2 68.6,11 57.7,11 57.7,12.2 62.2,12.2 		"/>
		<path d="M83.1,16.5V3.7h-1.8v4.2h-1.2V3.7h-1.8v9.8c-1,0.4-1.7,0.3-2.5,0.3h-1.5V5.2h2.9V3.9h-4.6v11.1h3.2c0.9,0,1.8,0,2.7-0.3
			v1.7h1.8V9.1h1.2v7.3H83.1z"/>
		<path d="M86.8,7.8c0,4.2,7.4,4.1,7.4,0c0-1-0.5-1.6-1.4-2.3h1.4V4.2h-2.7V3.4h-2v0.9h-2.6v1.3h1.3C87.4,6.1,86.8,6.8,86.8,7.8z
			 M92.5,7.8c0,2.5-3.9,2.6-3.9,0C88.6,5.2,92.5,5.3,92.5,7.8z"/>
		<polygon points="97.3,16.5 97.3,11.7 87.5,11.7 87.5,13 95.5,13 95.5,16.5 		"/>
		<polygon points="97.3,7.4 98.7,7.4 98.7,6.2 97.3,6.2 97.3,3.6 95.5,3.6 95.5,11 97.3,11 		"/>
		<path d="M111.2,14.9c0.5-1.5,0.5-3.5,0.5-5.2V3.9h-9.1v1.3h7.3v6.1c0,1.4,0,2.4-0.6,3.7h-1.2V9h-1.6v5.9h-1.4V9h-1.6v5.9H102v1.3
			h10.5v-1.3H111.2z"/>
		<path d="M35.4,7.9h-1.8v0.6h3.6V10H38V7.9h-1.8V7.1h2.1V6.6h-0.5C38,6.1,38,5.6,38,5.1V4.3h-4.4v0.6h3.6v0.9c0,0.3,0,0.5-0.2,0.9
			h-3.7v0.6h2.1V7.9z"/>
		<path d="M38.2,10.9h-0.8l0,2.3c-0.4,0.2-0.9,0.2-1.4,0.2h-1.7v-0.6h2.3V11h-3.1v0.6h2.3v0.6h-2.3V14h2.4c0.6,0,0.9,0,1.4-0.2v0.3
			h0.8V10.9z"/>
		<path d="M33.8,14.5v2.2h4.4v-2.2h-0.8v0.4h-2.7v-0.4H33.8z M37.3,15.5v0.6h-2.7v-0.6H37.3z"/>
		<polygon points="36.5,19.1 35.5,19.1 34.1,20.6 34.1,19.1 33.4,19.1 33.4,22.8 34.1,22.8 34.1,21.5 34.5,21.2 35.6,22.8 
			36.6,22.8 35,20.6 		"/>
		<path d="M38.6,19c-0.5,0-0.9,0.1-1.2,0.4c-0.4,0.3-0.5,0.8-0.5,1.5c0,0.7,0.2,1.2,0.5,1.5c0.3,0.3,0.7,0.4,1.2,0.4
			c0.5,0,0.9-0.1,1.2-0.4c0.4-0.3,0.5-0.9,0.5-1.5c0-0.7-0.2-1.2-0.5-1.5C39.5,19.1,39.1,19,38.6,19z M39.3,21.9
			c-0.2,0.2-0.4,0.3-0.7,0.3c-0.3,0-0.5-0.1-0.7-0.3c-0.2-0.2-0.3-0.5-0.3-0.9c0-0.4,0.1-0.7,0.3-0.9c0.2-0.2,0.4-0.3,0.7-0.3
			c0.3,0,0.5,0.1,0.7,0.3c0.2,0.2,0.3,0.5,0.3,0.9C39.6,21.3,39.5,21.6,39.3,21.9z"/>
		<polygon points="43.1,21.6 41.7,19.1 40.9,19.1 40.9,22.8 41.6,22.8 41.6,20.2 43,22.8 43.8,22.8 43.8,19.1 43.1,19.1 		"/>
		<path d="M46.1,21.4H47c0,0.2-0.1,0.4-0.3,0.6c-0.2,0.1-0.4,0.2-0.6,0.2c-0.3,0-0.5-0.1-0.7-0.3c-0.2-0.2-0.3-0.5-0.3-1
			c0-0.4,0.1-0.8,0.3-1c0.2-0.2,0.4-0.3,0.7-0.3c0.1,0,0.3,0,0.4,0.1c0.2,0.1,0.4,0.3,0.4,0.5h0.7c0-0.4-0.2-0.7-0.5-0.9
			c-0.3-0.2-0.6-0.4-1.1-0.4c-0.5,0-0.9,0.2-1.3,0.5c-0.3,0.4-0.5,0.8-0.5,1.4c0,0.6,0.2,1.1,0.5,1.4c0.3,0.3,0.7,0.5,1.2,0.5
			c0.3,0,0.5-0.1,0.7-0.2c0.1-0.1,0.2-0.2,0.4-0.4l0.1,0.5h0.5v-2h-1.5V21.4z"/>
		<path d="M49.6,21.7c0,0.2,0,0.3,0,0.4c-0.1,0.1-0.2,0.2-0.3,0.2c-0.2,0-0.3-0.1-0.3-0.2c-0.1-0.1-0.1-0.3-0.1-0.6v-0.1h-0.7v0.1
			c0,0.4,0.1,0.8,0.2,1c0.2,0.2,0.5,0.4,0.9,0.4c0.5,0,0.8-0.2,0.9-0.5c0.1-0.2,0.2-0.4,0.2-0.7v-2.6h-0.7V21.7z"/>
		<path d="M53.2,21.3c0,0.3,0,0.4-0.1,0.6c-0.1,0.2-0.3,0.3-0.6,0.3c-0.3,0-0.5-0.1-0.6-0.3c-0.1-0.1-0.1-0.3-0.1-0.6v-2.3h-0.7v2.3
			c0,0.4,0.1,0.7,0.2,0.9c0.2,0.4,0.6,0.6,1.3,0.6c0.6,0,1-0.2,1.3-0.6C54,22,54,21.7,54,21.3v-2.3h-0.8V21.3z"/>
		<polygon points="58.3,21.6 56.9,19.1 56.1,19.1 56.1,22.8 56.8,22.8 56.8,20.2 58.3,22.8 59,22.8 59,19.1 58.3,19.1 		"/>
		<path d="M60.7,19.1l-1.3,3.7h0.8l0.2-0.7h1.3l0.2,0.7h0.8l-1.3-3.7H60.7z M60.7,21.4l0.5-1.5l0.5,1.5H60.7z"/>
		<polygon points="62.7,19.7 63.7,19.7 63.7,22.8 64.5,22.8 64.5,19.7 65.6,19.7 65.6,19.1 62.7,19.1 		"/>
		<rect x="65.9" y="19.1" width="0.8" height="3.7"/>
		<path d="M69,19c-0.5,0-0.9,0.1-1.2,0.4c-0.4,0.3-0.5,0.8-0.5,1.5c0,0.7,0.2,1.2,0.5,1.5c0.3,0.3,0.7,0.4,1.2,0.4
			c0.5,0,0.9-0.1,1.2-0.4c0.4-0.3,0.5-0.9,0.5-1.5c0-0.7-0.2-1.2-0.5-1.5C69.9,19.1,69.5,19,69,19z M69.7,21.9
			c-0.2,0.2-0.4,0.3-0.7,0.3c-0.3,0-0.5-0.1-0.7-0.3c-0.2-0.2-0.3-0.5-0.3-0.9c0-0.4,0.1-0.7,0.3-0.9c0.2-0.2,0.4-0.3,0.7-0.3
			c0.3,0,0.5,0.1,0.7,0.3c0.2,0.2,0.3,0.5,0.3,0.9C70,21.3,69.9,21.6,69.7,21.9z"/>
		<polygon points="73.5,21.6 72.1,19.1 71.3,19.1 71.3,22.8 72,22.8 72,20.2 73.4,22.8 74.2,22.8 74.2,19.1 73.5,19.1 		"/>
		<path d="M75.9,19.1l-1.3,3.7h0.8l0.2-0.7H77l0.2,0.7H78l-1.3-3.7H75.9z M75.8,21.4l0.5-1.5l0.5,1.5H75.8z"/>
		<polygon points="79.2,19.1 78.5,19.1 78.5,22.8 81,22.8 81,22.1 79.2,22.1 		"/>
		<path d="M84.9,21.3c0,0.3,0,0.4-0.1,0.6c-0.1,0.2-0.3,0.3-0.6,0.3c-0.3,0-0.5-0.1-0.6-0.3c-0.1-0.1-0.1-0.3-0.1-0.6v-2.3h-0.7v2.3
			c0,0.4,0.1,0.7,0.2,0.9c0.2,0.4,0.6,0.6,1.3,0.6s1-0.2,1.3-0.6c0.1-0.2,0.2-0.5,0.2-0.9v-2.3h-0.8V21.3z"/>
		<polygon points="88.6,21.6 87.2,19.1 86.4,19.1 86.4,22.8 87.1,22.8 87.1,20.2 88.6,22.8 89.3,22.8 89.3,19.1 88.6,19.1 		"/>
		<rect x="90" y="19.1" width="0.7" height="3.7"/>
		<polygon points="92.7,21.9 91.9,19.1 91.1,19.1 92.3,22.8 93,22.8 94.3,19.1 93.5,19.1 		"/>
		<polygon points="95.5,21.2 97.2,21.2 97.2,20.5 95.5,20.5 95.5,19.7 97.4,19.7 97.4,19.1 94.8,19.1 94.8,22.8 97.5,22.8 
			97.5,22.1 95.5,22.1 		"/>
		<path d="M100.9,22.5c0-0.1,0-0.2,0-0.3v-0.2c0-0.3,0-0.5-0.1-0.6c-0.1-0.1-0.2-0.2-0.3-0.3c0.2-0.1,0.3-0.2,0.4-0.4
			c0.1-0.2,0.1-0.3,0.1-0.5c0-0.1,0-0.3-0.1-0.4c0-0.1-0.1-0.2-0.2-0.3c-0.1-0.1-0.2-0.2-0.3-0.3c-0.1-0.1-0.3-0.1-0.6-0.1h-1.7v3.7
			h0.7v-1.4h0.7c0.2,0,0.4,0,0.4,0.1c0.1,0.1,0.1,0.2,0.1,0.5l0,0.3c0,0.1,0,0.2,0,0.3c0,0,0,0.1,0,0.2h0.8v-0.1
			C100.9,22.6,100.9,22.6,100.9,22.5z M100,20.6c-0.1,0-0.2,0.1-0.4,0.1h-0.8v-1h0.8c0.2,0,0.3,0,0.3,0.1c0.1,0.1,0.2,0.2,0.2,0.4
			C100.2,20.4,100.1,20.6,100,20.6z"/>
		<path d="M103.5,20.7l-0.6-0.2c-0.2-0.1-0.4-0.1-0.5-0.2c-0.1-0.1-0.2-0.2-0.2-0.3c0-0.1,0.1-0.3,0.2-0.3c0.1-0.1,0.3-0.1,0.5-0.1
			c0.2,0,0.3,0,0.4,0.1c0.2,0.1,0.3,0.3,0.3,0.5h0.7c0-0.4-0.2-0.7-0.4-0.9c-0.3-0.2-0.6-0.3-1-0.3c-0.5,0-0.8,0.1-1,0.3
			c-0.2,0.2-0.4,0.5-0.4,0.8c0,0.4,0.1,0.6,0.4,0.8c0.1,0.1,0.4,0.2,0.8,0.3l0.4,0.1c0.2,0,0.4,0.1,0.5,0.2c0.1,0.1,0.2,0.2,0.2,0.3
			c0,0.2-0.1,0.3-0.3,0.4c-0.1,0-0.3,0.1-0.4,0.1c-0.3,0-0.5-0.1-0.6-0.2c-0.1-0.1-0.1-0.2-0.1-0.4h-0.7c0,0.4,0.1,0.7,0.4,0.9
			c0.3,0.2,0.6,0.3,1.1,0.3c0.5,0,0.8-0.1,1.1-0.3c0.3-0.2,0.4-0.5,0.4-0.8c0-0.3-0.1-0.6-0.3-0.8C104,20.8,103.8,20.7,103.5,20.7z"
			/>
		<rect x="104.9" y="19.1" width="0.7" height="3.7"/>
		<polygon points="106.1,19.7 107.2,19.7 107.2,22.8 107.9,22.8 107.9,19.7 109,19.7 109,19.1 106.1,19.1 		"/>
		<polygon points="110.8,20.7 110,19.1 109.1,19.1 110.4,21.4 110.4,22.8 111.1,22.8 111.1,21.4 112.3,19.1 111.5,19.1 		"/>
	</g>
</g>
</svg>
