<?xml version="1.0" encoding="utf-8"?>
<!-- Generator: Adobe Illustrator 27.5.0, SVG Export Plug-In . SVG Version: 6.00 Build 0)  -->
<svg version="1.1" id="Layer_1" xmlns="http://www.w3.org/2000/svg" xmlns:xlink="http://www.w3.org/1999/xlink" x="0px" y="0px"
	 viewBox="0 0 83.3 19.9" style="enable-background:new 0 0 83.3 19.9;" xml:space="preserve">
<style type="text/css">
	.st0{fill:#58595B;}
	.st1{fill:#003964;}
	.st2{fill:#ED193A;}
</style>
<g>
	<g>
		<path class="st0" d="M27.2,17.1l-1.1-2.3v2.3h-0.5v-2.8h0.7l1.1,2.3v-2.3h0.5v2.8H27.2z"/>
		<path class="st0" d="M29.3,15.8c0.2,0,0.3,0,0.5,0c0-0.1-0.1-0.2-0.2-0.3c-0.1-0.1-0.3-0.1-0.4-0.1h0c-0.2,0-0.4,0-0.6,0.1
			l-0.1-0.4c0.2-0.1,0.4-0.1,0.7-0.1h0c0.3,0,0.6,0.1,0.8,0.2c0.2,0.1,0.3,0.3,0.3,0.6v1.3h-0.4v-0.2c-0.1,0.1-0.2,0.2-0.3,0.2
			c-0.1,0-0.3,0.1-0.4,0.1c-0.2,0-0.4-0.1-0.6-0.2c-0.1-0.1-0.2-0.3-0.2-0.5c0-0.2,0.1-0.4,0.3-0.5C28.7,15.9,29,15.8,29.3,15.8z
			 M29.2,16.8c0.1,0,0.2,0,0.4-0.1c0.1-0.1,0.2-0.1,0.3-0.2v-0.3c-0.2,0-0.3,0-0.4,0c-0.2,0-0.4,0-0.5,0.1c-0.1,0.1-0.1,0.1-0.1,0.2
			c0,0.1,0,0.2,0.1,0.2C28.9,16.8,29,16.8,29.2,16.8z"/>
		<path class="st0" d="M31.4,14.5v0.7h0.4v0.4h-0.4v1c0,0.1,0,0.2,0.1,0.2c0,0,0.1,0.1,0.2,0.1h0.2v0.4h-0.3c-0.2,0-0.4,0-0.5-0.1
			c-0.1-0.1-0.1-0.2-0.1-0.4v-1.1h-0.3v-0.4h0.3v-0.7H31.4z"/>
		<path class="st0" d="M32.7,14.5c0,0.1,0,0.1-0.1,0.2c-0.1,0.1-0.1,0.1-0.2,0.1s-0.2,0-0.2-0.1c-0.1-0.1-0.1-0.1-0.1-0.2
			c0-0.1,0-0.2,0.1-0.2c0.1-0.1,0.1-0.1,0.2-0.1s0.2,0,0.2,0.1C32.7,14.3,32.7,14.4,32.7,14.5z M32.2,17.1v-2h0.5v2H32.2z"/>
		<path class="st0" d="M34.1,17.2c-0.3,0-0.5-0.1-0.8-0.3c-0.2-0.2-0.3-0.5-0.3-0.8c0-0.3,0.1-0.6,0.3-0.8c0.2-0.2,0.5-0.3,0.8-0.3
			c0.3,0,0.6,0.1,0.8,0.3c0.2,0.2,0.3,0.5,0.3,0.8c0,0.3-0.1,0.6-0.3,0.8C34.7,17.1,34.4,17.2,34.1,17.2z M34.1,16.8
			c0.2,0,0.3-0.1,0.4-0.2c0.1-0.1,0.2-0.3,0.2-0.5c0-0.2-0.1-0.4-0.2-0.5c-0.1-0.1-0.3-0.2-0.4-0.2c-0.2,0-0.3,0.1-0.4,0.2
			c-0.1,0.1-0.2,0.3-0.2,0.5c0,0.2,0.1,0.4,0.2,0.5C33.8,16.7,34,16.8,34.1,16.8z"/>
		<path class="st0" d="M36.1,16.1v1h-0.5v-2h0.4v0.3c0.1-0.1,0.1-0.2,0.2-0.2c0.1-0.1,0.2-0.1,0.3-0.1c0.2,0,0.4,0.1,0.6,0.2
			c0.1,0.2,0.2,0.4,0.2,0.7v1.2H37v-1.1c0-0.2,0-0.4-0.1-0.5c-0.1-0.1-0.2-0.2-0.3-0.2c-0.1,0-0.1,0-0.2,0.1c-0.1,0-0.1,0.1-0.2,0.2
			C36.1,15.8,36.1,16,36.1,16.1z"/>
		<path class="st0" d="M38.8,15.8c0.2,0,0.3,0,0.5,0c0-0.1-0.1-0.2-0.2-0.3c-0.1-0.1-0.3-0.1-0.4-0.1h0c-0.2,0-0.4,0-0.6,0.1
			L38,15.2c0.2-0.1,0.4-0.1,0.7-0.1h0c0.3,0,0.6,0.1,0.8,0.2c0.2,0.1,0.3,0.3,0.3,0.6v1.3h-0.4v-0.2c-0.1,0.1-0.2,0.2-0.3,0.2
			c-0.1,0-0.3,0.1-0.4,0.1c-0.2,0-0.4-0.1-0.6-0.2c-0.1-0.1-0.2-0.3-0.2-0.5c0-0.2,0.1-0.4,0.3-0.5C38.3,15.9,38.5,15.8,38.8,15.8z
			 M38.7,16.8c0.1,0,0.2,0,0.4-0.1c0.1-0.1,0.2-0.1,0.3-0.2v-0.3c-0.2,0-0.3,0-0.4,0c-0.2,0-0.4,0-0.5,0.1c-0.1,0.1-0.1,0.1-0.1,0.2
			c0,0.1,0,0.2,0.1,0.2C38.5,16.8,38.6,16.8,38.7,16.8z"/>
		<path class="st0" d="M40.3,17.1v-3h0.5v3H40.3z"/>
		<path class="st0" d="M42.4,16.6l0.3-0.3c0.1,0.2,0.2,0.3,0.3,0.4c0.1,0.1,0.3,0.1,0.4,0.1c0.1,0,0.3,0,0.4-0.1
			c0.1-0.1,0.2-0.2,0.2-0.3c0-0.1-0.1-0.2-0.2-0.3c-0.1-0.1-0.2-0.1-0.3-0.2c-0.1,0-0.3-0.1-0.4-0.1c-0.2-0.1-0.4-0.2-0.5-0.3
			c-0.1-0.1-0.1-0.3-0.1-0.4c0-0.2,0.1-0.4,0.3-0.6c0.2-0.2,0.4-0.2,0.7-0.2c0.3,0,0.5,0.1,0.7,0.2c0.1,0.1,0.2,0.1,0.2,0.2L44,15
			c0,0-0.1-0.1-0.1-0.2c-0.1-0.1-0.3-0.2-0.5-0.2c-0.1,0-0.2,0-0.3,0.1c-0.1,0.1-0.1,0.2-0.1,0.3c0,0.2,0.2,0.3,0.5,0.4
			c0.1,0,0.1,0,0.2,0.1c0.2,0.1,0.4,0.2,0.6,0.3c0.1,0.1,0.2,0.3,0.2,0.5c0,0.2-0.1,0.4-0.3,0.6c-0.2,0.2-0.4,0.2-0.7,0.2
			c-0.3,0-0.5-0.1-0.7-0.2C42.5,16.9,42.4,16.7,42.4,16.6z"/>
		<path class="st0" d="M44.7,16.1c0-0.3,0.1-0.5,0.3-0.7c0.2-0.2,0.5-0.3,0.8-0.3c0.3,0,0.5,0.1,0.7,0.3l-0.1,0.4
			c-0.2-0.2-0.4-0.2-0.6-0.2c-0.2,0-0.4,0.1-0.5,0.2c-0.1,0.1-0.2,0.3-0.2,0.5c0,0.2,0.1,0.4,0.2,0.5c0.1,0.1,0.3,0.2,0.5,0.2
			c0.2,0,0.4-0.1,0.6-0.2l0.1,0.4c-0.2,0.2-0.5,0.3-0.8,0.3c-0.3,0-0.6-0.1-0.8-0.3C44.8,16.7,44.7,16.4,44.7,16.1z"/>
		<path class="st0" d="M47.6,14.5c0,0.1,0,0.1-0.1,0.2c-0.1,0.1-0.1,0.1-0.2,0.1s-0.2,0-0.2-0.1C47,14.6,47,14.6,47,14.5
			c0-0.1,0-0.2,0.1-0.2c0.1-0.1,0.1-0.1,0.2-0.1s0.2,0,0.2,0.1C47.5,14.3,47.6,14.4,47.6,14.5z M47,17.1v-2h0.5v2H47z"/>
		<path class="st0" d="M48.4,16.3c0,0.1,0.1,0.2,0.2,0.3c0.1,0.1,0.3,0.2,0.5,0.2c0.2,0,0.4-0.1,0.6-0.2l0.1,0.3
			c-0.2,0.2-0.5,0.3-0.8,0.3c-0.3,0-0.6-0.1-0.8-0.3c-0.2-0.2-0.3-0.4-0.3-0.8c0-0.3,0.1-0.6,0.3-0.8c0.2-0.2,0.4-0.3,0.7-0.3
			c0.3,0,0.5,0.1,0.7,0.3c0.2,0.2,0.3,0.4,0.3,0.7c0,0.1,0,0.2,0,0.2H48.4z M48.4,16h1.1c0-0.1-0.1-0.3-0.2-0.4
			c-0.1-0.1-0.2-0.2-0.4-0.2c-0.2,0-0.3,0.1-0.4,0.2C48.5,15.7,48.4,15.8,48.4,16z"/>
		<path class="st0" d="M50.8,16.1v1h-0.5v-2h0.4v0.3c0.1-0.1,0.1-0.2,0.2-0.2c0.1-0.1,0.2-0.1,0.3-0.1c0.2,0,0.4,0.1,0.6,0.2
			c0.1,0.2,0.2,0.4,0.2,0.7v1.2h-0.5v-1.1c0-0.2,0-0.4-0.1-0.5c-0.1-0.1-0.2-0.2-0.3-0.2c-0.1,0-0.1,0-0.2,0.1
			c-0.1,0-0.1,0.1-0.2,0.2C50.9,15.8,50.8,16,50.8,16.1z"/>
		<path class="st0" d="M52.6,16.1c0-0.3,0.1-0.5,0.3-0.7c0.2-0.2,0.5-0.3,0.8-0.3c0.3,0,0.5,0.1,0.7,0.3l-0.1,0.4
			c-0.2-0.2-0.4-0.2-0.6-0.2c-0.2,0-0.4,0.1-0.5,0.2c-0.1,0.1-0.2,0.3-0.2,0.5c0,0.2,0.1,0.4,0.2,0.5c0.1,0.1,0.3,0.2,0.5,0.2
			c0.2,0,0.4-0.1,0.6-0.2l0.1,0.4c-0.2,0.2-0.5,0.3-0.8,0.3c-0.3,0-0.6-0.1-0.8-0.3C52.7,16.7,52.6,16.4,52.6,16.1z"/>
		<path class="st0" d="M55.2,16.3c0,0.1,0.1,0.2,0.2,0.3c0.1,0.1,0.3,0.2,0.5,0.2c0.2,0,0.4-0.1,0.6-0.2l0.1,0.3
			c-0.2,0.2-0.5,0.3-0.8,0.3c-0.3,0-0.6-0.1-0.8-0.3c-0.2-0.2-0.3-0.4-0.3-0.8c0-0.3,0.1-0.6,0.3-0.8c0.2-0.2,0.4-0.3,0.7-0.3
			c0.3,0,0.5,0.1,0.7,0.3c0.2,0.2,0.3,0.4,0.3,0.7c0,0.1,0,0.2,0,0.2H55.2z M55.2,16h1.1c0-0.1-0.1-0.3-0.2-0.4
			c-0.1-0.1-0.2-0.2-0.4-0.2c-0.2,0-0.3,0.1-0.4,0.2C55.3,15.7,55.2,15.8,55.2,16z"/>
		<path class="st0" d="M61.2,14.3v2.8h-0.5v-2.3L60,17.1h-0.4l-0.7-2.3v2.3h-0.5v-2.8h0.7l0.7,2.2l0.7-2.2H61.2z"/>
		<path class="st0" d="M63.1,16.1v-1h0.5v2h-0.4v-0.3C63.1,17,63,17,62.9,17.1c-0.1,0.1-0.2,0.1-0.3,0.1c-0.2,0-0.4-0.1-0.6-0.2
			c-0.1-0.2-0.2-0.4-0.2-0.7v-1.2h0.5v1.1c0,0.2,0,0.4,0.1,0.5c0.1,0.1,0.2,0.2,0.3,0.2c0.1,0,0.1,0,0.2-0.1c0.1,0,0.1-0.1,0.2-0.2
			C63.1,16.4,63.1,16.3,63.1,16.1z"/>
		<path class="st0" d="M63.9,16.8l0.3-0.3c0.1,0.1,0.2,0.2,0.3,0.3c0.1,0.1,0.2,0.1,0.3,0.1c0.1,0,0.2,0,0.3-0.1
			c0.1,0,0.1-0.1,0.1-0.2s0-0.1-0.1-0.2c-0.1,0-0.2-0.1-0.2-0.1c-0.1,0-0.2-0.1-0.3-0.1c-0.2-0.1-0.3-0.1-0.3-0.2
			C64,15.9,64,15.8,64,15.7c0-0.2,0.1-0.3,0.2-0.4c0.2-0.1,0.3-0.2,0.6-0.2c0.2,0,0.4,0.1,0.6,0.2c0.1,0.1,0.1,0.1,0.2,0.2l-0.3,0.3
			c0-0.1-0.1-0.1-0.1-0.2c-0.1-0.1-0.2-0.1-0.3-0.1c-0.1,0-0.1,0-0.2,0.1c-0.1,0-0.1,0.1-0.1,0.1c0,0.1,0,0.1,0.1,0.1
			c0.1,0,0.2,0.1,0.3,0.1c0,0,0.1,0,0.2,0c0.2,0.1,0.3,0.1,0.4,0.3c0.1,0.1,0.2,0.2,0.2,0.4c0,0.2-0.1,0.3-0.2,0.4
			c-0.2,0.1-0.4,0.2-0.6,0.2c-0.2,0-0.4,0-0.6-0.1C64.1,17,64,16.9,63.9,16.8z"/>
		<path class="st0" d="M66.3,16.3c0,0.1,0.1,0.2,0.2,0.3c0.1,0.1,0.3,0.2,0.5,0.2c0.2,0,0.4-0.1,0.6-0.2l0.1,0.3
			c-0.2,0.2-0.5,0.3-0.8,0.3c-0.3,0-0.6-0.1-0.8-0.3c-0.2-0.2-0.3-0.4-0.3-0.8c0-0.3,0.1-0.6,0.3-0.8c0.2-0.2,0.4-0.3,0.7-0.3
			c0.3,0,0.5,0.1,0.7,0.3c0.2,0.2,0.3,0.4,0.3,0.7c0,0.1,0,0.2,0,0.2H66.3z M66.3,16h1.1c0-0.1-0.1-0.3-0.2-0.4
			c-0.1-0.1-0.2-0.2-0.4-0.2c-0.2,0-0.3,0.1-0.4,0.2C66.4,15.7,66.3,15.8,66.3,16z"/>
		<path class="st0" d="M69.6,16.1v-1h0.5v2h-0.4v-0.3c-0.1,0.1-0.1,0.2-0.2,0.2c-0.1,0.1-0.2,0.1-0.3,0.1c-0.2,0-0.4-0.1-0.6-0.2
			c-0.1-0.2-0.2-0.4-0.2-0.7v-1.2h0.5v1.1c0,0.2,0,0.4,0.1,0.5c0.1,0.1,0.2,0.2,0.3,0.2c0.1,0,0.1,0,0.2-0.1c0.1,0,0.1-0.1,0.2-0.2
			C69.6,16.4,69.6,16.3,69.6,16.1z"/>
		<path class="st0" d="M72.8,15.1c0.2,0,0.4,0.1,0.6,0.2c0.1,0.2,0.2,0.4,0.2,0.7v1.2h-0.5v-1.1c0-0.2,0-0.4-0.1-0.5
			c-0.1-0.1-0.2-0.2-0.3-0.2c-0.1,0-0.1,0-0.2,0.1c-0.1,0-0.1,0.1-0.1,0.2c0,0.1-0.1,0.2-0.1,0.4v1.1h-0.5v-1.1c0-0.2,0-0.4-0.1-0.5
			c-0.1-0.1-0.2-0.2-0.3-0.2c-0.1,0-0.1,0-0.2,0.1c-0.1,0-0.1,0.1-0.1,0.2c0,0.1-0.1,0.2-0.1,0.4v0v1h-0.5v-2H71v0.3
			c0.1-0.2,0.3-0.3,0.5-0.3c0.3,0,0.4,0.1,0.6,0.4c0.1-0.1,0.2-0.2,0.3-0.3C72.5,15.1,72.6,15.1,72.8,15.1z"/>
	</g>
	<g>
		<g>
			<g>
				<g>
					<g>
						<g>
							<path class="st1" d="M15.4,9.5c-1.7-1.2-3.9-0.7-5.1,1.1c-1,1.5-2.4,1.7-3,1.7c-1.8,0-3.1-1.3-3.5-2.6h0c0,0,0,0,0,0
								c0,0,0,0,0,0C3.6,8.9,3.6,8.7,3.6,8.1c0-3.2,3.3-6.8,8.1-6.8C16.5,1.3,19.3,5,20,7c0,0,0-0.1,0-0.1c-1.4-4-5.2-6.9-9.7-6.9
								C4.6,0,0,4.6,0,10.3c0,5.1,3.7,9.4,8.7,9.4c4,0,6.8-2.3,8-5.4C17.4,12.6,16.9,10.6,15.4,9.5z"/>
						</g>
						<g>
							<path class="st2" d="M20.1,7.2c-0.6-2-3.4-6-8.4-6c-4.8,0-8.1,3.6-8.1,6.8c0,0.6,0,0.9,0.2,1.4C3.7,9.3,3.7,9,3.7,8.8
								c0-3.4,3.4-5.7,6.8-5.7c4.7,0,8.5,3.8,8.5,8.5c0,3.7-2.1,6.8-5.2,8.4l0,0c3.9-1.4,6.8-5.2,6.8-9.7
								C20.5,9.2,20.4,8.3,20.1,7.2z"/>
						</g>
					</g>
				</g>
			</g>
		</g>
	</g>
	<g>
		<g>
			<path class="st0" d="M28.8,8.5V7.3h-3.2V6.5H33v0.9h-3.2v1.2h2.6v2.8h-1V9.4h-5.2V8.5H28.8z M32.4,3.4v2.4h-1V4.3h-5.1V3.4H32.4z
				"/>
			<path class="st0" d="M38.6,7.6h-4.3V5.2h3.2V4.4h-3.2V3.5h4.2V6h-3.2v0.8h3.3V7.6z M34.7,8h1v0.7H40V8h1v3.1h-6.2V8z M40,9.5
				h-4.3v0.8H40V9.5z M40,3.3h1v4.4h-1V3.3z"/>
			<path class="st0" d="M45.5,8V7.5h-3.2V6.6h7.3v0.8h-3.2V8C46.6,8,46.7,8,46.8,8c0.2,0.1,0.5,0.2,0.6,0.4c0.2,0.2,0.3,0.4,0.4,0.6
				C47.9,9.3,48,9.5,48,9.8c0,0.3-0.1,0.5-0.2,0.7c-0.1,0.2-0.2,0.4-0.4,0.6c-0.2,0.2-0.4,0.3-0.6,0.4c-0.2,0.1-0.5,0.1-0.8,0.1
				c-0.3,0-0.5,0-0.8-0.1c-0.2-0.1-0.5-0.2-0.6-0.4c-0.2-0.2-0.3-0.4-0.4-0.6C44,10.2,44,10,44,9.8C44,9.5,44,9.3,44.1,9
				c0.1-0.2,0.2-0.4,0.4-0.6C44.7,8.3,45,8.2,45.2,8C45.3,8,45.4,8,45.5,8z M49.1,4.2h-2.7l2.8,1.5l-0.5,0.7L46,4.9l-2.8,1.5
				l-0.4-0.7l2.8-1.5h-2.7V3.4h6.3V4.2z M47,9.8c0-0.3-0.1-0.5-0.3-0.7c-0.2-0.2-0.4-0.3-0.7-0.3c-0.3,0-0.5,0.1-0.7,0.3
				c-0.2,0.2-0.3,0.4-0.3,0.7c0,0.3,0.1,0.5,0.3,0.7c0.2,0.2,0.4,0.3,0.7,0.3c0.3,0,0.5-0.1,0.7-0.3C46.9,10.3,47,10,47,9.8z"/>
			<path class="st0" d="M54.8,5.4c0,0.3-0.1,0.6-0.2,0.8c-0.1,0.2-0.3,0.5-0.5,0.6C54,7,53.8,7.1,53.5,7.2c-0.3,0.1-0.5,0.2-0.8,0.2
				s-0.6-0.1-0.8-0.2c-0.3-0.1-0.5-0.3-0.7-0.4c-0.2-0.2-0.4-0.4-0.5-0.6c-0.1-0.2-0.2-0.5-0.2-0.8c0-0.3,0.1-0.5,0.2-0.8
				c0.1-0.2,0.3-0.5,0.5-0.6c0.2-0.2,0.4-0.3,0.7-0.4c0.3-0.1,0.5-0.2,0.8-0.2s0.6,0.1,0.8,0.2c0.3,0.1,0.5,0.3,0.7,0.4
				c0.2,0.2,0.3,0.4,0.5,0.6C54.8,4.8,54.8,5.1,54.8,5.4z M53.9,5.4c0-0.3-0.1-0.6-0.3-0.8c-0.2-0.2-0.5-0.3-0.8-0.3
				c-0.3,0-0.6,0.1-0.8,0.3c-0.2,0.2-0.3,0.5-0.3,0.8c0,0.3,0.1,0.6,0.3,0.8c0.2,0.2,0.5,0.3,0.8,0.3c0.3,0,0.6-0.1,0.8-0.3
				C53.8,6,53.9,5.7,53.9,5.4z M56.7,9.5c0,0.3-0.1,0.5-0.2,0.8c-0.1,0.2-0.3,0.5-0.4,0.6c-0.2,0.2-0.4,0.3-0.7,0.4
				c-0.3,0.1-0.5,0.2-0.8,0.2s-0.6-0.1-0.8-0.2c-0.3-0.1-0.5-0.3-0.7-0.4c-0.2-0.2-0.3-0.4-0.5-0.6c-0.1-0.2-0.2-0.5-0.2-0.8
				c0-0.3,0.1-0.5,0.2-0.8c0.1-0.2,0.3-0.5,0.5-0.6c0.2-0.2,0.4-0.3,0.7-0.4c0.3-0.1,0.5-0.2,0.8-0.2s0.6,0.1,0.8,0.2
				c0.3,0.1,0.5,0.3,0.7,0.4c0.2,0.2,0.3,0.4,0.4,0.6C56.7,9,56.7,9.2,56.7,9.5z M55.8,9.5c0-0.3-0.1-0.6-0.3-0.8
				c-0.2-0.2-0.5-0.3-0.8-0.3c-0.3,0-0.6,0.1-0.8,0.3c-0.2,0.2-0.3,0.5-0.3,0.8c0,0.3,0.1,0.6,0.3,0.8c0.2,0.2,0.5,0.3,0.8,0.3
				c0.3,0,0.6-0.1,0.8-0.3C55.7,10.1,55.8,9.8,55.8,9.5z M57.1,7.5h-1V3.3h1v1.6h1.1v1h-1.1V7.5z"/>
			<path class="st0" d="M64,9.6v0.9h-5.2V9.6h1.6V7h1v2.6H64z M62.5,8.6v-4h-3.4V3.7h4.4v4.9H62.5z M65.6,11.2h-1v-8h1v3.4h1v0.9h-1
				V11.2z"/>
			<path class="st0" d="M71.8,3.8v0.9h-4.6V3.8H69V3.1h1v0.7H71.8z M67.5,8.5h6.3v2.6h-1V9.4h-5.3V8.5z M71.3,6.5
				c0,0.2,0,0.5-0.1,0.7c-0.1,0.2-0.2,0.4-0.4,0.5c-0.2,0.1-0.4,0.3-0.6,0.4c-0.2,0.1-0.5,0.1-0.7,0.1s-0.5,0-0.7-0.1
				c-0.2-0.1-0.4-0.2-0.6-0.4c-0.2-0.2-0.3-0.3-0.4-0.5c-0.1-0.2-0.1-0.4-0.1-0.7c0-0.2,0-0.5,0.1-0.7c0.1-0.2,0.2-0.4,0.4-0.5
				c0.2-0.1,0.4-0.3,0.6-0.4c0.2-0.1,0.5-0.1,0.7-0.1s0.5,0,0.7,0.1c0.2,0.1,0.4,0.2,0.6,0.4c0.2,0.2,0.3,0.3,0.4,0.5
				C71.3,6,71.3,6.3,71.3,6.5z M70.4,6.5c0-0.2-0.1-0.4-0.3-0.6c-0.2-0.2-0.4-0.3-0.6-0.3c-0.2,0-0.5,0.1-0.6,0.3
				c-0.2,0.2-0.3,0.4-0.3,0.6c0,0.2,0.1,0.4,0.3,0.6c0.2,0.2,0.4,0.3,0.6,0.3c0.2,0,0.5-0.1,0.6-0.3C70.3,6.9,70.4,6.7,70.4,6.5z
				 M73.8,8.1h-1V3.3h1v1.9h1.1v1h-1.1V8.1z"/>
			<path class="st0" d="M80.7,7.2V8h-5.2V7.2h1.6V5.4h1v1.8H80.7z M79.3,6.4V4.3h-3.4V3.4h4.4v3H79.3z M76.1,11.1V8.7h1v1.5h5.4v0.9
				H76.1z M82.3,8.5h-1V3.3h1v2.1h1v0.9h-1V8.5z"/>
		</g>
	</g>
</g>
</svg>
