<?xml version="1.0" encoding="utf-8"?>
<!-- Generator: Adobe Illustrator 27.4.0, SVG Export Plug-In . SVG Version: 6.00 Build 0)  -->
<svg version="1.1" id="레이어_1" xmlns="http://www.w3.org/2000/svg" xmlns:xlink="http://www.w3.org/1999/xlink" x="0px"
	 y="0px" viewBox="0 0 257.1 56.7" style="enable-background:new 0 0 257.1 56.7;" xml:space="preserve">
<style type="text/css">
	.st0{fill:url(#SVGID_1_);}
	.st1{fill:#5FA3BF;}
	.st2{fill:#727171;}
	.st3{fill:#717071;}
</style>
<g>
	<g>
		<g>
			
				<radialGradient id="SVGID_1_" cx="80.2856" cy="26.3201" r="21.8448" gradientTransform="matrix(0.9565 0 0 0.9565 -53.7426 -7.1757)" gradientUnits="userSpaceOnUse">
				<stop  offset="5.617980e-03" style="stop-color:#F19A96"/>
				<stop  offset="0.7" style="stop-color:#DE0040"/>
				<stop  offset="1" style="stop-color:#C30037"/>
			</radialGradient>
			<path class="st0" d="M42.1,7.8l-5.5-6.6c-1.1-1.3-2.9-1.5-4.3-0.6C20.5,8.3,12.5,20.2,9.4,33.4c-0.3,1.2,0.3,2.4,1.4,2.9
				c3.1,1.4,6.3,2.3,9.6,2.8c1.3,0.2,2.4-0.7,2.7-1.9c2.3-10.4,8.8-19.8,18.4-25.6C42.8,10.8,43.1,9,42.1,7.8z"/>
			<path class="st1" d="M38.1,39.8C27.9,43,16.6,42.1,6.8,36.7c-1.4-0.8-3.1-0.1-3.7,1.4l-2.9,8.1c-0.6,1.6,0.1,3.3,1.6,4.1
				c12.6,6.3,26.9,7.3,39.9,3.4c1.2-0.4,2-1.5,1.8-2.7c-0.4-3.4-1.2-6.6-2.4-9.7C40.7,40,39.3,39.4,38.1,39.8z"/>
			<path class="st2" d="M39.8,15.3c-2.7,2-5.2,4.3-7.2,6.9c-0.8,1-0.6,2.4,0.3,3.3c7.9,7.2,12.8,17.5,13,28.7c0,1.6,1.5,2.8,3,2.5
				l8.5-1.5c1.6-0.3,2.8-1.8,2.7-3.4c-0.8-14.1-7.1-26.9-17-36.2C42.2,14.7,40.8,14.5,39.8,15.3z"/>
		</g>
	</g>
	<g>
		<g>
			<path class="st2" d="M89.9,34.9h17.9v4H87.5c-0.9,0-1.7-0.2-2.2-0.7c-0.5-0.5-0.8-1.2-0.8-2.2V24.8h4.8v9.6
				C89.4,34.4,89.4,34.9,89.9,34.9z M101.6,27.6v-10h-7.1c-0.8,1-1.9,1.8-3.2,2.4c-1.4,0.6-3.1,0.9-5.1,0.9c-1.8,0-3.3-0.3-4.6-0.7
				c-1.3-0.5-2.3-1.2-3.2-2c-0.8-0.8-1.4-1.9-1.8-3c-0.4-1.1-0.6-2.3-0.6-3.6c0-1.2,0.2-2.4,0.6-3.5c0.4-1.1,1-2.1,1.8-2.9
				c0.8-0.8,1.9-1.5,3.2-2c1.3-0.5,2.8-0.8,4.6-0.8c1.9,0,3.5,0.3,4.8,0.8c1.3,0.5,2.4,1.2,3.2,2.1h7.5V0.3h4.8v20.9
				c0,0.5,0,1-0.1,1.5c0,0.5-0.1,1.1-0.1,1.7c-0.1,0.6-0.1,1.1-0.2,1.6c-0.1,0.5-0.2,1-0.2,1.4l0,0.1H101.6z M86.2,6.1
				c-1.7,0-3.1,0.4-4,1.3c-0.9,0.9-1.4,2.2-1.4,4.1c0,1.9,0.5,3.3,1.4,4.2c0.9,0.8,2.3,1.3,4,1.3c1.7,0,3-0.4,4-1.3
				c0.9-0.8,1.4-2.2,1.4-4.2c0-1.8-0.5-3.2-1.4-4.1C89.2,6.6,87.8,6.1,86.2,6.1z M101.6,13.5V9.2h-5.5c0.1,0.7,0.2,1.5,0.2,2.3
				c0,0.4,0,0.8-0.1,1.1c0,0.3-0.1,0.6-0.1,0.9H101.6z"/>
			<path class="st2" d="M121.8,38.9c-0.9,0-1.7-0.2-2.1-0.7c-0.5-0.5-0.7-1.2-0.7-2.3V24.1h22v14.8H121.8z M123.7,34.4
				c0,0.4,0.2,0.6,0.6,0.6h11.8v-7h-12.3V34.4z M136.1,21.9V0.3h4.9V9h6v4h-6v9H136.1z M121.9,20.1c-1.8,0-3.4-0.2-4.7-0.7
				c-1.3-0.5-2.3-1.1-3.1-2c-0.8-0.8-1.4-1.8-1.8-2.9c-0.4-1.1-0.5-2.3-0.5-3.6c0-1.2,0.2-2.4,0.5-3.5c0.4-1.1,1-2.1,1.8-2.9
				c0.8-0.8,1.9-1.5,3.1-2c1.3-0.5,2.8-0.7,4.7-0.7c1.8,0,3.4,0.2,4.7,0.7c1.3,0.5,2.4,1.1,3.2,2c0.8,0.8,1.4,1.8,1.8,2.9
				c0.4,1.1,0.5,2.3,0.5,3.5c0,1.3-0.2,2.5-0.5,3.6c-0.4,1.1-1,2.1-1.8,2.9c-0.8,0.8-1.9,1.5-3.2,2
				C125.3,19.9,123.7,20.1,121.9,20.1z M121.9,5.6c-1.7,0-3,0.4-3.9,1.3c-0.9,0.9-1.4,2.2-1.4,4.1c0,1.9,0.5,3.3,1.4,4.1
				c0.9,0.8,2.2,1.2,3.9,1.2c1.7,0,3-0.4,3.9-1.2c0.9-0.8,1.4-2.2,1.4-4.1c0-1.8-0.5-3.2-1.4-4.1C124.9,6,123.6,5.6,121.9,5.6z"/>
			<path class="st2" d="M177.4,38.9V16.2h-4v14.3c0,1.1,0,2.4-0.1,3.6c-0.1,1.3-0.2,2.4-0.4,3.4l0,0.1h-4v-14
				c-0.8,0.4-1.7,0.8-2.8,1.1c-1.1,0.3-2.4,0.5-3.8,0.5h-8.6c-1.1,0-1.9-0.2-2.4-0.7c-0.5-0.5-0.7-1.3-0.7-2.5V2.5h14.3v4.1h-9.6
				v13.7c0,0.5,0.1,0.6,0.1,0.6c0,0,0.2,0.1,0.6,0.1h6.3c1.3,0,2.5-0.1,3.6-0.4c1.1-0.2,2-0.5,2.8-0.9v-19h4.6v11.3h4V0.3h4.6v30.8
				c0,0.6,0,1.3,0,2c0,0.7-0.1,1.4-0.1,2c0,0.7-0.1,1.3-0.2,2c-0.1,0.6-0.2,1.2-0.3,1.7l0,0.1H177.4z"/>
			<path class="st2" d="M211,39.1V29h-17.8v-3.9h22.7v7.8c0,0.9-0.1,2-0.2,3.1c-0.1,1.1-0.3,2.1-0.5,3l0,0.1H211z M211,23V0.3h4.8
				v9.8h6v4.1h-6V23H211z M198,22.5c-2.9,0-5-0.7-6.4-2c-1.4-1.3-2.1-3.1-2.1-5.2c0-1.9,0.6-3.4,1.8-4.7h-4.5V6.8H209v3.9h-4.4
				c0.6,0.6,1,1.2,1.3,2c0.4,0.8,0.5,1.7,0.5,2.7c0,2.1-0.7,3.9-2.1,5.2C203,21.8,200.9,22.5,198,22.5z M198,11.4
				c-1.3,0-2.3,0.3-3,1c-0.7,0.6-1,1.6-1,2.7c0,2.6,1.3,3.9,4,3.9c2.6,0,3.9-1.3,3.9-3.9c0-1.2-0.3-2.1-0.9-2.7
				C200.4,11.7,199.4,11.4,198,11.4z M198.4,4.8c-1.1,0-2.2-0.1-3.4-0.3c-1.5-0.3-3-0.8-3-0.8l0.6-3.7c0,0,0.7,0.2,3.1,0.7
				c1.2,0.3,2.5,0.4,3.7,0.4h4v3.7H198.4z"/>
			<path class="st2" d="M223,32.5v-4.1h8V14.7h4.5v13.7h3.7V14.6h4.6v13.8h13.3v4.1H223z M246.9,23.6c0,0,0.4-2.2,0.8-5.4
				c0.2-1.8,0.3-3.6,0.3-5.4V6.5h-20.3V2.4h25.2v7.5c0,1.9-0.1,5.4-0.4,7.5c-0.4,3.2-1.3,6.2-1.3,6.2H246.9z"/>
		</g>
		<g>
			<g>
				<path class="st3" d="M87.1,44.6l2.5,4.5h0.2l2.5-4.5h2.6l-4,6.6v4.8h-2.3v-4.8c-0.3-0.5-0.6-1-1-1.6c-0.3-0.6-0.7-1.1-1-1.7
					c-0.3-0.6-0.7-1.1-1-1.7c-0.3-0.6-0.7-1.1-1-1.6H87.1z"/>
				<path class="st3" d="M104,44.4c0.9,0,1.7,0.1,2.3,0.4c0.6,0.3,1.1,0.7,1.5,1.2c0.4,0.5,0.7,1.1,0.9,1.9c0.2,0.7,0.3,1.5,0.3,2.5
					c0,1.9-0.4,3.4-1.3,4.4c-0.9,1-2.2,1.4-4.1,1.4c-0.9,0-1.7-0.1-2.3-0.4c-0.6-0.3-1.1-0.7-1.5-1.2c-0.4-0.5-0.7-1.1-0.8-1.9
					c-0.2-0.7-0.3-1.5-0.3-2.4c0-2,0.4-3.4,1.3-4.4C100.8,44.9,102.2,44.4,104,44.4 M104,46.1c-0.6,0-1,0.1-1.4,0.3
					c-0.4,0.2-0.7,0.5-0.9,0.8c-0.2,0.4-0.4,0.8-0.5,1.3c-0.1,0.5-0.2,1.1-0.2,1.8c0,0.5,0,1.1,0.1,1.5c0.1,0.5,0.2,0.9,0.4,1.3
					c0.2,0.4,0.5,0.6,0.8,0.9c0.3,0.2,0.8,0.3,1.3,0.3c0.6,0,1.1-0.1,1.5-0.3c0.4-0.2,0.7-0.5,0.9-0.8c0.2-0.4,0.4-0.8,0.5-1.3
					c0.1-0.5,0.1-1.1,0.1-1.8c0-0.5,0-1-0.1-1.5c-0.1-0.5-0.2-0.9-0.4-1.3c-0.2-0.4-0.5-0.6-0.8-0.9C104.9,46.2,104.5,46.1,104,46.1
					"/>
				<polygon class="st3" points="113.7,44.6 117.7,44.6 121.4,54.1 121.6,54.1 121.6,44.6 123.9,44.6 123.9,55.9 119.9,55.9 
					116.1,46.3 116,46.3 116,55.9 113.7,55.9 				"/>
				<path class="st3" d="M132.2,44.6h3l4,11.3h-2.5l-1-2.9h-4.2l-1,2.9h-2.4L132.2,44.6z M133.3,46.3l-1.5,4.8h3.1l-1.4-4.8H133.3z"
					/>
				<polygon class="st3" points="143.4,44.6 147.5,44.6 149.6,54.1 149.7,54.1 151.7,44.6 155.6,44.6 155.6,55.9 153.4,55.9 
					153.4,46.3 153.2,46.3 151.1,55.9 148.1,55.9 145.9,46.3 145.7,46.3 145.7,55.9 143.4,55.9 				"/>
				<path class="st3" d="M174.8,47.3c-0.3-0.4-0.7-0.6-1.1-0.8c-0.4-0.2-0.9-0.3-1.5-0.3c-2,0-3,1.4-3,4.2c0,2.5,1,3.8,3,3.8
					c0.6,0,1.2-0.1,1.7-0.2c0.5-0.1,1-0.3,1.5-0.5l0.5,1.8c-0.2,0.1-0.5,0.3-0.8,0.4c-0.3,0.1-0.6,0.2-1,0.3c-0.3,0.1-0.7,0.1-1,0.2
					c-0.4,0-0.7,0.1-1.1,0.1c-1.9,0-3.2-0.5-4-1.5c-0.8-1-1.2-2.5-1.2-4.3c0-1.9,0.5-3.4,1.4-4.4c0.9-1,2.2-1.5,3.9-1.5
					c0.4,0,0.7,0,1.1,0.1c0.4,0.1,0.7,0.2,1.1,0.3c0.3,0.1,0.7,0.3,1,0.5c0.3,0.2,0.6,0.4,0.8,0.7L174.8,47.3z"/>
				<path class="st3" d="M185.8,44.4c0.9,0,1.7,0.1,2.3,0.4c0.6,0.3,1.1,0.7,1.5,1.2c0.4,0.5,0.7,1.1,0.9,1.9
					c0.2,0.7,0.3,1.5,0.3,2.5c0,1.9-0.4,3.4-1.3,4.4c-0.9,1-2.2,1.4-4.1,1.4c-0.9,0-1.7-0.1-2.3-0.4c-0.6-0.3-1.1-0.7-1.5-1.2
					c-0.4-0.5-0.7-1.1-0.8-1.9c-0.2-0.7-0.3-1.5-0.3-2.4c0-2,0.4-3.4,1.3-4.4C182.6,44.9,183.9,44.4,185.8,44.4 M185.8,46.1
					c-0.6,0-1,0.1-1.4,0.3c-0.4,0.2-0.7,0.5-0.9,0.8c-0.2,0.4-0.4,0.8-0.5,1.3c-0.1,0.5-0.2,1.1-0.2,1.8c0,0.5,0,1.1,0.1,1.5
					c0.1,0.5,0.2,0.9,0.4,1.3c0.2,0.4,0.5,0.6,0.8,0.9c0.3,0.2,0.8,0.3,1.3,0.3c0.6,0,1.1-0.1,1.5-0.3c0.4-0.2,0.7-0.5,0.9-0.8
					c0.2-0.4,0.4-0.8,0.5-1.3c0.1-0.5,0.1-1.1,0.1-1.8c0-0.5,0-1-0.1-1.5c-0.1-0.5-0.2-0.9-0.4-1.3c-0.2-0.4-0.5-0.6-0.8-0.9
					C186.7,46.2,186.3,46.1,185.8,46.1"/>
				<polygon class="st3" points="195.7,44.6 198,44.6 198,54.1 202.6,54.1 202.6,55.9 195.7,55.9 				"/>
				<polygon class="st3" points="206.9,44.6 209.2,44.6 209.2,54.1 213.8,54.1 213.8,55.9 206.9,55.9 				"/>
				<polygon class="st3" points="218.2,44.6 225.4,44.6 225.4,46.3 220.4,46.3 220.4,49.2 225.3,49.2 225.3,51 220.4,51 220.4,54.1 
					225.6,54.1 225.6,55.9 218.2,55.9 				"/>
				<path class="st3" d="M235.4,49.7h4.6v5.6c-1.1,0.5-2.5,0.8-4.1,0.8c-1,0-1.8-0.1-2.5-0.4c-0.7-0.3-1.3-0.6-1.7-1.1
					c-0.5-0.5-0.8-1.1-1-1.8c-0.2-0.7-0.3-1.6-0.3-2.5c0-1.9,0.5-3.4,1.5-4.4c1-1,2.4-1.5,4.2-1.5c0.8,0,1.6,0.1,2.3,0.4
					c0.7,0.3,1.3,0.7,1.8,1.3l-1.4,1.2c-0.3-0.4-0.7-0.6-1.2-0.9c-0.4-0.2-1-0.3-1.6-0.3c-1.1,0-1.9,0.4-2.5,1.1
					c-0.6,0.7-0.9,1.8-0.9,3.2c0,1.3,0.3,2.3,0.9,2.9c0.6,0.7,1.4,1,2.5,1c0.2,0,0.3,0,0.5,0c0.2,0,0.3,0,0.5,0c0.1,0,0.2,0,0.4-0.1
					c0.1,0,0.2-0.1,0.4-0.1v-2.6h-2.4V49.7z"/>
				<polygon class="st3" points="245.3,44.6 252.6,44.6 252.6,46.3 247.6,46.3 247.6,49.2 252.4,49.2 252.4,51 247.6,51 247.6,54.1 
					252.8,54.1 252.8,55.9 245.3,55.9 				"/>
			</g>
		</g>
	</g>
</g>
</svg>
