<?xml version="1.0" encoding="UTF-8"?>
<svg id="_레이어_1" data-name="레이어 1" xmlns="http://www.w3.org/2000/svg" xmlns:xlink="http://www.w3.org/1999/xlink" viewBox="0 0 192.52 40.88">
  <defs>
    <style>
      .cls-1 {
        fill: url(#_무제_그라디언트_13-4);
      }

      .cls-2 {
        fill: url(#_무제_그라디언트_13-5);
      }

      .cls-3 {
        fill: url(#_무제_그라디언트_13-6);
      }

      .cls-4 {
        fill: url(#_무제_그라디언트_13-3);
      }

      .cls-5 {
        fill: url(#_무제_그라디언트_13-2);
      }

      .cls-6 {
        fill: url(#_무제_그라디언트_13);
      }
    </style>
    <linearGradient id="_무제_그라디언트_13" data-name="무제 그라디언트 13" x1="-3.12" y1="20.44" x2="189.84" y2="20.44" gradientUnits="userSpaceOnUse">
      <stop offset=".15" stop-color="#0b318f"/>
      <stop offset="1" stop-color="#73c6c8"/>
    </linearGradient>
    <linearGradient id="_무제_그라디언트_13-2" data-name="무제 그라디언트 13" y1="20.44" x2="189.84" y2="20.44" xlink:href="#_무제_그라디언트_13"/>
    <linearGradient id="_무제_그라디언트_13-3" data-name="무제 그라디언트 13" y1="20.44" x2="189.84" y2="20.44" xlink:href="#_무제_그라디언트_13"/>
    <linearGradient id="_무제_그라디언트_13-4" data-name="무제 그라디언트 13" x2="189.84" xlink:href="#_무제_그라디언트_13"/>
    <linearGradient id="_무제_그라디언트_13-5" data-name="무제 그라디언트 13" x1="-3.12" y1="20.44" x2="189.84" y2="20.44" xlink:href="#_무제_그라디언트_13"/>
    <linearGradient id="_무제_그라디언트_13-6" data-name="무제 그라디언트 13" x2="189.84" xlink:href="#_무제_그라디언트_13"/>
  </defs>
  <g>
    <path class="cls-6" d="m28.57,20.16v2.2c0,3.42-.19,6-.56,7.73-.56,2.67-1.73,4.89-3.5,6.66-1.24,1.24-2.76,2.18-4.54,2.82-1.79.64-3.74.96-5.84.96H0V.34h14.12c4.4,0,7.87,1.26,10.39,3.78,1.92,1.92,3.14,4.4,3.67,7.45.26,1.54.4,4.4.4,8.58Zm-6.1,0c0-3.35-.09-5.68-.28-7-.3-2.03-.92-3.58-1.86-4.63-1.66-1.81-3.93-2.71-6.83-2.71h-7.4v29.25h7.4c2.9,0,5.17-.9,6.83-2.71.94-1.05,1.56-2.67,1.86-4.86.19-1.43.28-3.88.28-7.34Z"/>
    <path class="cls-5" d="m60.41,28.51c-.68,3.95-2.3,7-4.86,9.15-2.56,2.15-5.72,3.22-9.49,3.22-4.18,0-7.7-1.43-10.56-4.29-1.81-1.81-2.96-4.01-3.44-6.61-.3-1.62-.45-4.8-.45-9.54s.15-7.87.45-9.48c.49-2.64,1.64-4.86,3.44-6.66,2.86-2.86,6.38-4.29,10.56-4.29,3.76,0,6.92,1.07,9.46,3.22,2.54,2.15,4.17,5.19,4.88,9.15h-6.21c-.49-2.15-1.39-3.8-2.71-4.97-1.43-1.28-3.24-1.92-5.42-1.92-2.45,0-4.42.81-5.93,2.43-.98,1.05-1.63,2.43-1.95,4.12-.32,1.69-.48,4.5-.48,8.41s.15,6.94.45,8.53c.3,1.58.96,2.92,1.98,4.01,1.51,1.62,3.48,2.43,5.93,2.43,2.18,0,3.97-.62,5.36-1.86,1.39-1.24,2.33-2.92,2.82-5.02h6.15Z"/>
    <path class="cls-4" d="m89.15,29.08c0,3.65-1.33,6.53-3.98,8.64-2.65,2.11-6.15,3.16-10.47,3.16-3.09,0-5.76-.4-8.02-1.21-2.26-.81-4.33-2.17-6.21-4.09l4.07-4.01c1.39,1.39,2.93,2.38,4.6,2.96,1.67.58,3.57.88,5.67.88,2.63,0,4.68-.54,6.13-1.61,1.45-1.07,2.17-2.59,2.17-4.55,0-1.84-.53-3.24-1.58-4.18-.49-.45-1.05-.81-1.69-1.07-.64-.26-1.54-.47-2.71-.62l-4.74-.68c-3.27-.45-5.82-1.52-7.62-3.22-1.96-1.84-2.94-4.4-2.94-7.68,0-3.54,1.2-6.39,3.61-8.55,2.41-2.16,5.68-3.25,9.82-3.25,5.04,0,9.2,1.52,12.48,4.57l-3.9,3.84c-1.17-1.13-2.47-1.93-3.9-2.4-1.43-.47-3.05-.71-4.86-.71-2.3,0-4.09.59-5.39,1.78-1.3,1.19-1.95,2.68-1.95,4.49,0,1.58.52,2.83,1.55,3.75,1.03.92,2.53,1.53,4.49,1.83l4.57.68c1.81.26,3.28.63,4.43,1.1,1.15.47,2.17,1.1,3.08,1.89,2.18,1.92,3.27,4.67,3.27,8.24Z"/>
  </g>
  <g>
    <path class="cls-1" d="m127.53,40.54h-25.46V.34h6.1v34.72h19.37v5.48Z"/>
    <path class="cls-2" d="m162.93,40.54h-6.49s-2.72-8.07-2.72-8.07h-15.9l-2.78,8.07h-6.49L143.29.34h4.91l14.74,40.2Zm-10.98-13.21l-6.06-17.86-6.25,17.86h12.31Z"/>
    <path class="cls-3" d="m192.52,29.16c0,3.62-1.1,6.43-3.3,8.41-2.2,1.98-5.15,2.97-8.84,2.97h-16.26V.34h15.64c3.73,0,6.68.98,8.86,2.93,2.18,1.95,3.27,4.63,3.27,8.05,0,2.03-.54,3.8-1.61,5.32-1.07,1.52-2.34,2.58-3.81,3.18,1.69.68,3.09,1.76,4.18,3.23,1.24,1.7,1.86,3.74,1.86,6.11Zm-6.72-17.61c0-1.84-.59-3.25-1.78-4.24-1.19-.99-2.78-1.49-4.77-1.49h-9.03v11.46h9.03c1.99,0,3.58-.5,4.77-1.49s1.78-2.41,1.78-4.24Zm.62,17.33c0-1.85-.57-3.34-1.72-4.45-1.15-1.11-2.78-1.67-4.88-1.67h-9.6v12.31h9.6c2.07,0,3.69-.57,4.85-1.7,1.17-1.13,1.75-2.63,1.75-4.48Z"/>
  </g>
</svg>