<?xml version="1.0" encoding="UTF-8"?>
<svg id="_레이어_1" data-name="레이어 1" xmlns="http://www.w3.org/2000/svg" xmlns:xlink="http://www.w3.org/1999/xlink" viewBox="0 0 192.52 39.95">
  <defs>
    <style>
      .cls-1 {
        fill: url(#_무제_그라디언트_13-4);
      }

      .cls-2 {
        fill: url(#_무제_그라디언트_13-5);
      }

      .cls-3 {
        fill: url(#_무제_그라디언트_13-6);
      }

      .cls-4 {
        fill: url(#_무제_그라디언트_13-3);
      }

      .cls-5 {
        fill: url(#_무제_그라디언트_13-2);
      }

      .cls-6 {
        fill: url(#_무제_그라디언트_13);
      }
    </style>
    <linearGradient id="_무제_그라디언트_13" data-name="무제 그라디언트 13" x1=".36" y1="19.82" x2="189.94" y2="19.82" gradientUnits="userSpaceOnUse">
      <stop offset=".15" stop-color="#0b318f"/>
      <stop offset="1" stop-color="#73c6c8"/>
    </linearGradient>
    <linearGradient id="_무제_그라디언트_13-2" data-name="무제 그라디언트 13" x1=".36" y1="19.82" x2="189.94" y2="19.82" xlink:href="#_무제_그라디언트_13"/>
    <linearGradient id="_무제_그라디언트_13-3" data-name="무제 그라디언트 13" x1=".36" y1="19.82" x2="189.94" y2="19.82" xlink:href="#_무제_그라디언트_13"/>
    <linearGradient id="_무제_그라디언트_13-4" data-name="무제 그라디언트 13" x1=".36" x2="189.94" xlink:href="#_무제_그라디언트_13"/>
    <linearGradient id="_무제_그라디언트_13-5" data-name="무제 그라디언트 13" x1=".36" y1="19.82" x2="189.94" y2="19.82" xlink:href="#_무제_그라디언트_13"/>
    <linearGradient id="_무제_그라디언트_13-6" data-name="무제 그라디언트 13" x1=".36" x2="189.94" xlink:href="#_무제_그라디언트_13"/>
  </defs>
  <path class="cls-6" d="m24.36,3.87c-2.57-2.57-6.11-3.87-10.51-3.87H-.48v39.64h14.33c2.09,0,4.05-.32,5.83-.96,1.83-.65,3.4-1.63,4.68-2.91,1.81-1.81,3.01-4.1,3.59-6.8.37-1.69.55-4.11.55-7.38v-2.02c0-3.94-.13-6.6-.38-8.11-.53-3.07-1.79-5.62-3.75-7.58Zm-4.46,22.24c-.24,1.71-.7,2.96-1.37,3.72-1.25,1.36-2.97,2.03-5.24,2.03h-5.41V7.78h5.41c2.28,0,3.99.67,5.25,2.04.66.75,1.13,1.93,1.36,3.52.16,1.13.24,3.23.24,6.22s-.08,5.31-.25,6.56Z"/>
  <path class="cls-5" d="m59.34,25.85h-8.37l-.25,1.07c-.39,1.67-1.1,2.94-2.17,3.89-1.03.92-2.34,1.36-4.01,1.36-1.86,0-3.31-.58-4.43-1.79-.76-.82-1.24-1.8-1.47-3-.26-1.36-.39-3.9-.39-7.57s.14-6,.42-7.46c.25-1.31.72-2.32,1.44-3.1,1.12-1.2,2.57-1.79,4.43-1.79,1.67,0,2.99.46,4.06,1.41.99.88,1.68,2.17,2.06,3.84l.24,1.07h8.44l-.29-1.62c-.71-3.93-2.38-7.03-4.95-9.2-2.58-2.18-5.79-3.28-9.57-3.28-4.19,0-7.78,1.46-10.66,4.34-1.85,1.85-3.04,4.15-3.54,6.84-.29,1.58-.44,4.51-.44,8.95s.14,7.43.44,9.01c.5,2.65,1.69,4.93,3.54,6.78,2.88,2.88,6.47,4.34,10.66,4.34,3.77,0,7-1.1,9.59-3.27,2.59-2.17,4.25-5.28,4.93-9.22l.28-1.61Z"/>
  <path class="cls-4" d="m85.23,19.15c-.94-.82-2.02-1.49-3.21-1.98-1.17-.48-2.6-.84-4.39-1.1l-4.19-.62c-1.51-.23-2.66-.69-3.4-1.35-.66-.59-.96-1.35-.96-2.42,0-1.27.44-2.28,1.34-3.1.94-.86,2.25-1.27,4.02-1.27,1.5,0,2.86.19,4.03.58,1.11.36,2.13,1,3.05,1.88l.97.93.96-.94,3.58-3.52,1.02-1.01-1.05-.98c-3.25-3.03-7.42-4.57-12.39-4.57-4.13,0-7.47,1.12-9.93,3.33-2.5,2.25-3.77,5.23-3.77,8.87,0,3.39,1.05,6.09,3.13,8.05,1.86,1.75,4.47,2.86,7.75,3.31l4.35.62c1.2.16,1.83.35,2.16.48.44.18.81.42,1.14.72.68.61,1.01,1.53,1.01,2.82,0,1.36-.46,2.34-1.44,3.07-1.08.8-2.7,1.21-4.8,1.21-1.77,0-3.37-.24-4.75-.73-1.33-.46-2.58-1.27-3.7-2.39l-.97-.97-.97.96-3.73,3.68-.98.96.96.98c1.86,1.9,3.96,3.28,6.22,4.09,2.21.79,4.84,1.19,7.82,1.19,4.27,0,7.79-1.08,10.47-3.2,2.77-2.2,4.17-5.23,4.17-9s-1.17-6.57-3.47-8.6Z"/>
  <polygon class="cls-1" points="107.59 31.86 107.59 1.38 107.59 0 106.22 0 100.62 0 99.24 0 99.24 1.38 99.24 38.27 99.24 39.64 100.62 39.64 123.99 39.64 125.36 39.64 125.36 38.27 125.36 33.24 125.36 31.86 123.99 31.86 107.59 31.86"/>
  <path class="cls-2" d="m148.29.9l-.33-.9h-6.43l-.33.9-13.52,36.89-.68,1.85h8.91l.32-.93,2.23-6.48h12.62l2.18,6.47.32.94h.99s5.96,0,5.96,0h1.97s-.68-1.85-.68-1.85L148.29.9Zm-7.2,23.86l3.77-10.78,3.66,10.78h-7.44Z"/>
  <path class="cls-3" d="m188.24,19.19c.69-.57,1.32-1.26,1.89-2.07,1.15-1.63,1.73-3.54,1.73-5.68,0-3.53-1.17-6.36-3.46-8.41-2.25-2.02-5.3-3.04-9.05-3.04h-15.73v39.64h16.3c3.72,0,6.76-1.04,9.03-3.08,2.31-2.08,3.49-5.02,3.49-8.74,0-2.47-.66-4.63-1.97-6.42-.64-.86-1.38-1.6-2.22-2.21Zm-16.27-11.42h6.91c1.51,0,2.65.34,3.49,1.05.77.64,1.14,1.57,1.14,2.84s-.37,2.2-1.14,2.84c-.84.7-1.98,1.04-3.49,1.04h-6.91v-7.76Zm10.93,22.91c-.81.79-1.95,1.17-3.5,1.17h-7.43v-8.54h7.43c1.58,0,2.73.38,3.52,1.15.78.76,1.16,1.77,1.16,3.1s-.39,2.35-1.19,3.12Z"/>
</svg>