<?xml version="1.0" encoding="utf-8"?>
<!-- Generator: Adobe Illustrator 27.2.0, SVG Export Plug-In . SVG Version: 6.00 Build 0)  -->
<svg version="1.1" id="_레이어_1" xmlns="http://www.w3.org/2000/svg" xmlns:xlink="http://www.w3.org/1999/xlink" x="0px"
	 y="0px" viewBox="0 0 193 244.5" style="enable-background:new 0 0 193 244.5;" xml:space="preserve">
<style type="text/css">
	.st0{fill:#EBF6FB;}
</style>
<g>
	<rect x="191.1" y="0" class="st0" width="1.9" height="195.3"/>
	<rect x="183.5" y="0" class="st0" width="1.9" height="195.3"/>
	<rect x="175.9" y="0" class="st0" width="1.9" height="131.1"/>
	<rect x="168.3" y="0" class="st0" width="1.9" height="132.2"/>
	<rect x="160.8" y="0" class="st0" width="1.9" height="133.7"/>
	<rect x="153.2" y="0" class="st0" width="1.9" height="133.1"/>
	<rect x="145.6" y="0" class="st0" width="1.9" height="132.6"/>
	<rect x="138" y="0" class="st0" width="1.9" height="66.3"/>
	<rect x="130.4" y="0" class="st0" width="1.9" height="67.4"/>
	<rect x="122.9" y="0" class="st0" width="1.9" height="68.5"/>
	<rect x="115.3" y="0" class="st0" width="1.9" height="65.9"/>
	<rect x="138" y="86.6" class="st0" width="1.9" height="44.9"/>
	<rect x="130.4" y="90.8" class="st0" width="1.9" height="39.6"/>
	<rect x="122.9" y="93.5" class="st0" width="1.9" height="34.6"/>
	<rect x="115.3" y="97.4" class="st0" width="1.9" height="29.5"/>
	<rect x="115.4" y="175.8" class="st0" width="1.9" height="19.5"/>
	<rect x="123" y="172.3" class="st0" width="1.9" height="23"/>
	<rect x="130.6" y="169.2" class="st0" width="1.9" height="26.1"/>
	<rect x="138.3" y="166.8" class="st0" width="1.9" height="28.5"/>
	<rect x="145.9" y="164.2" class="st0" width="1.9" height="31.1"/>
	<rect x="153.5" y="162.3" class="st0" width="1.9" height="33"/>
	<rect x="161.1" y="159.4" class="st0" width="1.9" height="35.9"/>
	<rect x="168.7" y="156.1" class="st0" width="1.9" height="39.2"/>
	<rect x="176.3" y="152.7" class="st0" width="1.9" height="42.7"/>
	<rect x="107.7" y="0" class="st0" width="1.9" height="64.8"/>
	<rect x="109.5" y="0" class="st0" width="1.9" height="14.1"/>
	<rect x="109.5" y="0" class="st0" width="1.9" height="14.1"/>
	<rect x="117.2" y="0" class="st0" width="1.9" height="8.2"/>
	<rect x="102" y="0" class="st0" width="1.9" height="17.4"/>
	<rect x="94.4" y="0" class="st0" width="1.9" height="24"/>
	<rect x="86.9" y="0" class="st0" width="1.9" height="30"/>
	<rect x="100.1" y="0" class="st0" width="1.9" height="62.9"/>
	<rect x="92.5" y="0" class="st0" width="1.9" height="61.5"/>
	<rect x="85.2" y="0" class="st0" width="1.9" height="60.1"/>
	<rect x="77.4" y="0" class="st0" width="3.2" height="59"/>
	<rect x="69.9" y="0" class="st0" width="3.2" height="57.8"/>
	<rect x="62.3" y="0" class="st0" width="3.2" height="56.6"/>
	<rect x="54.8" y="0" class="st0" width="3.2" height="54.7"/>
	<rect x="47.3" y="0" class="st0" width="3.2" height="53"/>
	<rect x="39.7" y="0" class="st0" width="3.2" height="51.6"/>
	<rect x="32.2" y="0" class="st0" width="3.2" height="50.2"/>
	<rect x="24.7" y="0" class="st0" width="3.2" height="48.9"/>
	<rect x="17.1" y="0" class="st0" width="3.2" height="47.2"/>
	<rect x="9.6" y="0" class="st0" width="3.2" height="45.4"/>
	<rect x="2.1" y="0" class="st0" width="3.2" height="43.6"/>
	<rect x="0.5" y="61.3" class="st0" width="3.2" height="45.1"/>
	<rect x="0.5" y="119" class="st0" width="3.2" height="76.4"/>
	<rect x="8" y="124.4" class="st0" width="3.2" height="71"/>
	<rect x="5.5" y="119.4" class="st0" width="2.5" height="38.2"/>
	<rect x="13.1" y="120.7" class="st0" width="2.5" height="38.2"/>
	<rect x="20.6" y="121.7" class="st0" width="2.5" height="38.2"/>
	<rect x="28.2" y="122.9" class="st0" width="2.5" height="38.2"/>
	<rect x="35.8" y="124.4" class="st0" width="2.5" height="38.2"/>
	<rect x="43.3" y="125.1" class="st0" width="2.5" height="38.2"/>
	<rect x="50.9" y="126.5" class="st0" width="2.5" height="39.4"/>
	<rect x="58.4" y="128.2" class="st0" width="2.5" height="39.3"/>
	<rect x="66" y="128.8" class="st0" width="2.5" height="41"/>
	<rect x="73.6" y="130.3" class="st0" width="2.5" height="42"/>
	<rect x="81.1" y="131.4" class="st0" width="2.5" height="42.8"/>
	<rect x="88.7" y="133" class="st0" width="2.5" height="42.7"/>
	<rect x="96.3" y="134.8" class="st0" width="2.5" height="43"/>
	<rect x="103.8" y="137" class="st0" width="2.5" height="42.2"/>
	<rect x="111.4" y="138" class="st0" width="2.8" height="37.7"/>
	<rect x="119.2" y="139.9" class="st0" width="2.9" height="32.4"/>
	<rect x="127.1" y="140.6" class="st0" width="2.5" height="27.4"/>
	<rect x="134.7" y="141.7" class="st0" width="2.5" height="23.5"/>
	<rect x="142.2" y="142.4" class="st0" width="2.6" height="20.4"/>
	<rect x="149.8" y="143" class="st0" width="2.7" height="17.9"/>
	<rect x="157.3" y="143" class="st0" width="2.5" height="15.1"/>
	<rect x="164.8" y="143" class="st0" width="2.3" height="12.4"/>
	<rect x="15.6" y="126" class="st0" width="3.2" height="69.4"/>
	<rect x="23.2" y="127.4" class="st0" width="3.2" height="67.9"/>
	<rect x="30.7" y="128.9" class="st0" width="3.2" height="66.4"/>
	<rect x="38.3" y="130.4" class="st0" width="3.2" height="64.9"/>
	<rect x="45.9" y="132.5" class="st0" width="3.2" height="62.8"/>
	<rect x="53.4" y="134.6" class="st0" width="3.2" height="60.8"/>
	<rect x="61" y="135.9" class="st0" width="3.2" height="59.4"/>
	<rect x="68.5" y="137.4" class="st0" width="3.2" height="58"/>
	<rect x="76.1" y="138.7" class="st0" width="3.2" height="56.7"/>
	<rect x="83.7" y="140.4" class="st0" width="3.2" height="55"/>
	<rect x="91.2" y="142.4" class="st0" width="3.2" height="52.9"/>
	<rect x="98.8" y="144.3" class="st0" width="3.2" height="51.1"/>
	<rect x="106.4" y="146.4" class="st0" width="3.2" height="48.9"/>
	<rect x="114.2" y="147.9" class="st0" width="3.2" height="27.8"/>
	<rect x="122.1" y="150.4" class="st0" width="3.2" height="21.9"/>
	<rect x="129.6" y="151.9" class="st0" width="3.2" height="17.3"/>
	<rect x="137.1" y="152.6" class="st0" width="3.2" height="14.1"/>
	<rect x="144.8" y="151.3" class="st0" width="3.2" height="12.8"/>
	<rect x="152.2" y="151.3" class="st0" width="3.2" height="11"/>
	<rect x="159.8" y="151.3" class="st0" width="3.2" height="8.1"/>
	<rect x="167.1" y="149.9" class="st0" width="3.2" height="6.2"/>
	<rect x="174.9" y="149.3" class="st0" width="3.2" height="3.4"/>
	<rect x="178.1" y="141.2" class="st0" width="3.2" height="10.3"/>
	<rect x="172.2" y="142.9" class="st0" width="2.8" height="10.3"/>
	<rect x="3.7" y="56.7" class="st0" width="2.8" height="38.1"/>
	<rect x="11.5" y="58.1" class="st0" width="2.5" height="38.1"/>
	<rect x="19.1" y="59" class="st0" width="2.3" height="38.1"/>
	<rect x="26.4" y="60.2" class="st0" width="2.5" height="38.1"/>
	<rect x="33.9" y="61.7" class="st0" width="2.6" height="38.1"/>
	<rect x="41.6" y="62.4" class="st0" width="2.5" height="38.1"/>
	<rect x="49" y="63.9" class="st0" width="2.5" height="38.1"/>
	<rect x="56.6" y="65.5" class="st0" width="2.5" height="39.5"/>
	<rect x="64.2" y="66.2" class="st0" width="2.5" height="40.9"/>
	<rect x="71.7" y="67.1" class="st0" width="2.5" height="42.5"/>
	<rect x="79" y="68.7" class="st0" width="2.8" height="42.4"/>
	<rect x="8.3" y="63.9" class="st0" width="3.2" height="43.9"/>
	<rect x="15.9" y="65" class="st0" width="3.2" height="44.6"/>
	<rect x="23.2" y="66.1" class="st0" width="3.2" height="44.6"/>
	<rect x="30.7" y="67.4" class="st0" width="3.2" height="44.6"/>
	<rect x="38.3" y="68.6" class="st0" width="3.2" height="44.6"/>
	<rect x="45.9" y="70.1" class="st0" width="3.2" height="44.6"/>
	<rect x="53.4" y="71.2" class="st0" width="3.2" height="44.6"/>
	<rect x="61" y="72.8" class="st0" width="3.2" height="44.6"/>
	<rect x="68.5" y="73.9" class="st0" width="3.2" height="44.6"/>
	<rect x="76.1" y="75.3" class="st0" width="3.2" height="44.6"/>
	<rect x="83.7" y="76.9" class="st0" width="3.2" height="44.6"/>
	<rect x="91.2" y="78.6" class="st0" width="3.2" height="44.6"/>
	<rect x="98.8" y="80.3" class="st0" width="3.2" height="44.6"/>
	<rect x="106.3" y="78.6" class="st0" width="3.2" height="46.3"/>
	<rect x="114.6" y="82.7" class="st0" width="2.6" height="14.9"/>
	<rect x="122.2" y="82.7" class="st0" width="2.6" height="10.8"/>
	<rect x="124.8" y="77.9" class="st0" width="3.2" height="14.5"/>
	<rect x="132.4" y="76.8" class="st0" width="3.2" height="11.7"/>
	<rect x="139.8" y="76.5" class="st0" width="3.2" height="6.2"/>
	<rect x="117.2" y="76.8" class="st0" width="3.2" height="18"/>
	<rect x="109.6" y="75.3" class="st0" width="3.2" height="23"/>
	<rect x="102.1" y="74.3" class="st0" width="2.5" height="31.1"/>
	<rect x="94.4" y="72.1" class="st0" width="2.6" height="35"/>
	<rect x="86.9" y="70.3" class="st0" width="2.5" height="38.7"/>
	<rect x="129.8" y="81.6" class="st0" width="2.6" height="9.4"/>
	<rect x="137.4" y="79.3" class="st0" width="2.5" height="7.3"/>
	<rect x="7.1" y="0" class="st0" width="2.5" height="19.6"/>
	<rect x="14.6" y="0" class="st0" width="2.5" height="21.5"/>
	<rect x="22.2" y="0" class="st0" width="2.5" height="23.1"/>
	<rect x="29.7" y="0" class="st0" width="2.5" height="24.4"/>
	<rect x="37.2" y="0" class="st0" width="2.5" height="25.8"/>
	<rect x="44.8" y="0" class="st0" width="2.5" height="27.2"/>
	<rect x="52.3" y="0" class="st0" width="2.5" height="28.9"/>
	<rect x="59.8" y="0" class="st0" width="2.5" height="30.8"/>
	<rect x="67.4" y="0" class="st0" width="2.5" height="32.1"/>
	<rect x="74.9" y="0" class="st0" width="2.5" height="33.4"/>
	<rect x="82.4" y="0" class="st0" width="2.8" height="30.4"/>
	<rect x="90.6" y="0" class="st0" width="1.9" height="25"/>
	<rect x="98.2" y="0" class="st0" width="1.9" height="19.5"/>
	<rect x="105.8" y="0" class="st0" width="1.9" height="15.2"/>
	<rect x="113.3" y="0" class="st0" width="2" height="9.7"/>
	<rect x="120.9" y="0" class="st0" width="1.9" height="5.1"/>
	<rect x="0.5" y="0" class="st0" width="1.6" height="18.7"/>
</g>
<g>
	<g>
		<path class="st0" d="M28.6,223.8v2.2c0,3.4-0.2,6-0.6,7.7c-0.6,2.7-1.7,4.9-3.5,6.7c-1.2,1.2-2.8,2.2-4.5,2.8
			c-1.8,0.6-3.7,1-5.8,1H0V204h14.1c4.4,0,7.9,1.3,10.4,3.8c1.9,1.9,3.1,4.4,3.7,7.4C28.4,216.7,28.6,219.6,28.6,223.8L28.6,223.8z
			 M22.5,223.8c0-3.4-0.1-5.7-0.3-7c-0.3-2-0.9-3.6-1.9-4.6c-1.7-1.8-3.9-2.7-6.8-2.7H6.1v29.2h7.4c2.9,0,5.2-0.9,6.8-2.7
			c0.9-1.1,1.6-2.7,1.9-4.9C22.4,229.7,22.5,227.2,22.5,223.8L22.5,223.8z"/>
		<path class="st0" d="M60.4,232.1c-0.7,3.9-2.3,7-4.9,9.1s-5.7,3.2-9.5,3.2c-4.2,0-7.7-1.4-10.6-4.3c-1.8-1.8-3-4-3.4-6.6
			c-0.3-1.6-0.5-4.8-0.5-9.5s0.1-7.9,0.5-9.5c0.5-2.6,1.6-4.9,3.4-6.7c2.9-2.9,6.4-4.3,10.6-4.3c3.8,0,6.9,1.1,9.5,3.2
			s4.2,5.2,4.9,9.1h-6.2c-0.5-2.1-1.4-3.8-2.7-5c-1.4-1.3-3.2-1.9-5.4-1.9c-2.5,0-4.4,0.8-5.9,2.4c-1,1.1-1.6,2.4-2,4.1
			s-0.5,4.5-0.5,8.4s0.2,6.9,0.5,8.5c0.3,1.6,1,2.9,2,4c1.5,1.6,3.5,2.4,5.9,2.4c2.2,0,4-0.6,5.4-1.9s2.3-2.9,2.8-5L60.4,232.1
			L60.4,232.1z"/>
		<path class="st0" d="M89.2,232.7c0,3.6-1.3,6.5-4,8.6s-6.2,3.2-10.5,3.2c-3.1,0-5.8-0.4-8-1.2c-2.3-0.8-4.3-2.2-6.2-4.1l4.1-4
			c1.4,1.4,2.9,2.4,4.6,3s3.6,0.9,5.7,0.9c2.6,0,4.7-0.5,6.1-1.6s2.2-2.6,2.2-4.6c0-1.8-0.5-3.2-1.6-4.2c-0.5-0.4-1.1-0.8-1.7-1.1
			c-0.6-0.3-1.5-0.5-2.7-0.6l-4.7-0.7c-3.3-0.4-5.8-1.5-7.6-3.2c-2-1.8-2.9-4.4-2.9-7.7c0-3.5,1.2-6.4,3.6-8.6
			c2.4-2.2,5.7-3.2,9.8-3.2c5,0,9.2,1.5,12.5,4.6l-3.9,3.8c-1.2-1.1-2.5-1.9-3.9-2.4s-3.1-0.7-4.9-0.7c-2.3,0-4.1,0.6-5.4,1.8
			s-1.9,2.7-1.9,4.5c0,1.6,0.5,2.8,1.6,3.8c1,0.9,2.5,1.5,4.5,1.8l4.6,0.7c1.8,0.3,3.3,0.6,4.4,1.1s2.2,1.1,3.1,1.9
			C88,226.4,89.1,229.1,89.2,232.7L89.2,232.7z"/>
	</g>
	<g>
		<path class="st0" d="M127.5,244.2h-25.5V204h6.1v34.7h19.4L127.5,244.2L127.5,244.2z"/>
		<path class="st0" d="M162.9,244.2h-6.5l-2.7-8.1h-15.9l-2.8,8.1h-6.5l14.7-40.2h4.9L162.9,244.2L162.9,244.2z M151.9,230.9
			l-6.1-17.9l-6.2,17.9H151.9z"/>
		<path class="st0" d="M192.5,232.8c0,3.6-1.1,6.4-3.3,8.4c-2.2,2-5.1,3-8.8,3h-16.3V204h15.6c3.7,0,6.7,1,8.9,2.9
			c2.2,1.9,3.3,4.6,3.3,8.1c0,2-0.5,3.8-1.6,5.3s-2.3,2.6-3.8,3.2c1.7,0.7,3.1,1.8,4.2,3.2C191.9,228.4,192.5,230.4,192.5,232.8
			L192.5,232.8z M185.8,215.2c0-1.8-0.6-3.2-1.8-4.2s-2.8-1.5-4.8-1.5h-9v11.5h9c2,0,3.6-0.5,4.8-1.5S185.8,217,185.8,215.2
			L185.8,215.2z M186.4,232.5c0-1.9-0.6-3.3-1.7-4.4s-2.8-1.7-4.9-1.7h-9.6v12.3h9.6c2.1,0,3.7-0.6,4.9-1.7
			C185.8,235.9,186.4,234.4,186.4,232.5L186.4,232.5z"/>
	</g>
</g>
</svg>
